G04*
G04 #@! TF.GenerationSoftware,Altium Limited,CircuitMaker,2.1.0 (2.1.0.4)*
G04*
G04 Layer_Physical_Order=1*
G04 Layer_Color=25308*
%FSLAX25Y25*%
%MOIN*%
G70*
G04*
G04 #@! TF.SameCoordinates,28D2FB88-65ED-4333-9925-A9BECD5D763D*
G04*
G04*
G04 #@! TF.FilePolarity,Positive*
G04*
G01*
G75*
%ADD10C,0.01000*%
%ADD26R,0.05905X0.05905*%
%ADD27P,0.08352X4X385.0*%
%ADD28P,0.08352X4X65.0*%
%ADD29C,0.00500*%
%ADD30C,0.07400*%
%ADD31C,0.06693*%
G04:AMPARAMS|DCode=32|XSize=66.93mil|YSize=60mil|CornerRadius=0mil|HoleSize=0mil|Usage=FLASHONLY|Rotation=340.000|XOffset=0mil|YOffset=0mil|HoleType=Round|Shape=Round|*
%AMOVALD32*
21,1,0.00693,0.06000,0.00000,0.00000,340.0*
1,1,0.06000,-0.00326,0.00119*
1,1,0.06000,0.00326,-0.00119*
%
%ADD32OVALD32*%

%ADD33C,0.06000*%
%ADD34C,0.07000*%
%ADD35C,0.13780*%
%ADD36C,0.26500*%
%ADD37O,0.06693X0.06000*%
G04:AMPARAMS|DCode=38|XSize=66.93mil|YSize=60mil|CornerRadius=0mil|HoleSize=0mil|Usage=FLASHONLY|Rotation=20.000|XOffset=0mil|YOffset=0mil|HoleType=Round|Shape=Round|*
%AMOVALD38*
21,1,0.00693,0.06000,0.00000,0.00000,20.0*
1,1,0.06000,-0.00326,-0.00119*
1,1,0.06000,0.00326,0.00119*
%
%ADD38OVALD38*%

%ADD39C,0.03000*%
G36*
X316677Y383323D02*
X316239Y382886D01*
X315620Y381814D01*
X315300Y380619D01*
Y379381D01*
X315620Y378186D01*
X316239Y377114D01*
X316323Y377030D01*
X319647Y380353D01*
X320000Y380000D01*
X320354Y380353D01*
X323677Y377030D01*
X323761Y377114D01*
X324380Y378186D01*
X324700Y379381D01*
Y380000D01*
X375300D01*
Y379381D01*
X375620Y378186D01*
X376239Y377114D01*
X377114Y376239D01*
X377307Y376128D01*
Y373872D01*
X377114Y373761D01*
X376239Y372886D01*
X375620Y371814D01*
X375300Y370619D01*
Y369381D01*
X375620Y368186D01*
X376239Y367114D01*
X377114Y366239D01*
X377307Y366128D01*
Y363872D01*
X377114Y363761D01*
X376239Y362886D01*
X375620Y361814D01*
X375300Y360619D01*
Y359381D01*
X375620Y358186D01*
X376239Y357114D01*
X377114Y356239D01*
X377307Y356128D01*
Y353872D01*
X377114Y353761D01*
X376239Y352886D01*
X375620Y351814D01*
X375300Y350619D01*
Y349381D01*
X375620Y348186D01*
X376239Y347114D01*
X377114Y346239D01*
X377307Y346128D01*
Y343872D01*
X377114Y343761D01*
X376239Y342886D01*
X375620Y341814D01*
X375300Y340619D01*
Y339381D01*
X375620Y338186D01*
X376239Y337114D01*
X377114Y336239D01*
X377307Y336128D01*
Y333872D01*
X377114Y333761D01*
X376239Y332886D01*
X375620Y331814D01*
X375544Y331529D01*
X357500D01*
X356915Y331413D01*
X356419Y331081D01*
X331419Y306081D01*
X331087Y305585D01*
X330971Y305000D01*
Y263134D01*
X326607Y258769D01*
X325455Y259139D01*
X324700Y259691D01*
Y260619D01*
X324380Y261814D01*
X323761Y262886D01*
X322886Y263761D01*
X322693Y263872D01*
Y266128D01*
X322886Y266239D01*
X323761Y267114D01*
X324380Y268186D01*
X324700Y269381D01*
Y270619D01*
X324380Y271814D01*
X323761Y272886D01*
X322886Y273761D01*
X322693Y273872D01*
Y276128D01*
X322886Y276239D01*
X323761Y277114D01*
X324380Y278186D01*
X324700Y279381D01*
Y280619D01*
X324380Y281814D01*
X323761Y282886D01*
X322886Y283761D01*
X322693Y283872D01*
Y286128D01*
X322886Y286239D01*
X323761Y287114D01*
X324380Y288186D01*
X324700Y289381D01*
Y290619D01*
X324380Y291814D01*
X323761Y292886D01*
X322886Y293761D01*
X322693Y293872D01*
Y296128D01*
X322886Y296239D01*
X323761Y297114D01*
X324380Y298186D01*
X324700Y299381D01*
Y300619D01*
X324380Y301814D01*
X323761Y302886D01*
X322886Y303761D01*
X322693Y303872D01*
Y306128D01*
X322886Y306239D01*
X323761Y307114D01*
X324380Y308186D01*
X324700Y309381D01*
Y310619D01*
X324380Y311814D01*
X323761Y312886D01*
X322886Y313761D01*
X322693Y313872D01*
Y316128D01*
X322886Y316239D01*
X323761Y317114D01*
X324380Y318186D01*
X324700Y319381D01*
Y320619D01*
X324380Y321814D01*
X323761Y322886D01*
X322886Y323761D01*
X322693Y323872D01*
Y326128D01*
X322886Y326239D01*
X323761Y327114D01*
X324380Y328186D01*
X324700Y329381D01*
Y330619D01*
X324380Y331814D01*
X323761Y332886D01*
X322886Y333761D01*
X322693Y333872D01*
Y336128D01*
X322886Y336239D01*
X323761Y337114D01*
X324380Y338186D01*
X324700Y339381D01*
Y340619D01*
X324380Y341814D01*
X323761Y342886D01*
X322886Y343761D01*
X322693Y343872D01*
Y346128D01*
X322886Y346239D01*
X323761Y347114D01*
X324380Y348186D01*
X324700Y349381D01*
Y350619D01*
X324380Y351814D01*
X323761Y352886D01*
X322886Y353761D01*
X322693Y353872D01*
Y356128D01*
X322886Y356239D01*
X323761Y357114D01*
X324380Y358186D01*
X324700Y359381D01*
Y360619D01*
X324380Y361814D01*
X323761Y362886D01*
X322886Y363761D01*
X322693Y363872D01*
Y366128D01*
X322886Y366239D01*
X323761Y367114D01*
X324380Y368186D01*
X324700Y369381D01*
Y370619D01*
X324380Y371814D01*
X323761Y372886D01*
X322886Y373761D01*
X322693Y373872D01*
Y376128D01*
X322886Y376239D01*
X322970Y376323D01*
X320000Y379293D01*
X317030Y376323D01*
X317114Y376239D01*
X317307Y376128D01*
Y373872D01*
X317114Y373761D01*
X316239Y372886D01*
X315620Y371814D01*
X315300Y370619D01*
Y369381D01*
X315620Y368186D01*
X316239Y367114D01*
X317114Y366239D01*
X317307Y366128D01*
Y363872D01*
X317114Y363761D01*
X316239Y362886D01*
X315620Y361814D01*
X315300Y360619D01*
Y359381D01*
X315620Y358186D01*
X316239Y357114D01*
X317114Y356239D01*
X317307Y356128D01*
Y353872D01*
X317114Y353761D01*
X316239Y352886D01*
X315620Y351814D01*
X315300Y350619D01*
Y349381D01*
X315620Y348186D01*
X316239Y347114D01*
X317114Y346239D01*
X317307Y346128D01*
Y343872D01*
X317114Y343761D01*
X316239Y342886D01*
X315620Y341814D01*
X315300Y340619D01*
Y339381D01*
X315620Y338186D01*
X316239Y337114D01*
X317114Y336239D01*
X317307Y336128D01*
Y333872D01*
X317114Y333761D01*
X316239Y332886D01*
X315620Y331814D01*
X315300Y330619D01*
Y329381D01*
X315620Y328186D01*
X316239Y327114D01*
X317114Y326239D01*
X317307Y326128D01*
Y323872D01*
X317114Y323761D01*
X316239Y322886D01*
X315620Y321814D01*
X315300Y320619D01*
Y319381D01*
X315620Y318186D01*
X316239Y317114D01*
X317114Y316239D01*
X317307Y316128D01*
Y313872D01*
X317114Y313761D01*
X316239Y312886D01*
X315620Y311814D01*
X315300Y310619D01*
Y309381D01*
X315620Y308186D01*
X316239Y307114D01*
X317114Y306239D01*
X317307Y306128D01*
Y303872D01*
X317114Y303761D01*
X316239Y302886D01*
X315620Y301814D01*
X315300Y300619D01*
Y299381D01*
X315620Y298186D01*
X316239Y297114D01*
X317114Y296239D01*
X317307Y296128D01*
Y293872D01*
X317114Y293761D01*
X316239Y292886D01*
X315620Y291814D01*
X315300Y290619D01*
Y289381D01*
X315620Y288186D01*
X316239Y287114D01*
X317114Y286239D01*
X317307Y286128D01*
Y283872D01*
X317114Y283761D01*
X316239Y282886D01*
X315620Y281814D01*
X315300Y280619D01*
Y279381D01*
X315620Y278186D01*
X316239Y277114D01*
X317114Y276239D01*
X317307Y276128D01*
Y273872D01*
X317114Y273761D01*
X316239Y272886D01*
X315620Y271814D01*
X315300Y270619D01*
Y269381D01*
X315620Y268186D01*
X316239Y267114D01*
X317114Y266239D01*
X317307Y266128D01*
Y263872D01*
X317114Y263761D01*
X316239Y262886D01*
X315620Y261814D01*
X315300Y260619D01*
Y259381D01*
X315620Y258186D01*
X316239Y257114D01*
X317114Y256239D01*
X318186Y255620D01*
X319381Y255300D01*
X320309D01*
X320861Y254545D01*
X321231Y253393D01*
X319367Y251529D01*
X300634D01*
X214329Y337834D01*
Y355043D01*
X214212Y355629D01*
X213881Y356125D01*
X211720Y358286D01*
X211727Y358299D01*
X212000Y359316D01*
Y360369D01*
X211727Y361386D01*
X211201Y362299D01*
X210456Y363043D01*
X209544Y363570D01*
X208527Y363843D01*
X207473D01*
X206456Y363570D01*
X206443Y363562D01*
X198924Y371081D01*
X198428Y371413D01*
X197843Y371529D01*
X196590D01*
X196550Y371678D01*
X195978Y372669D01*
X195169Y373478D01*
X194178Y374050D01*
X193072Y374346D01*
X191928D01*
X190822Y374050D01*
X189831Y373478D01*
X189022Y372669D01*
X188450Y371678D01*
X188154Y370572D01*
Y369428D01*
X188450Y368322D01*
X189022Y367331D01*
X189831Y366522D01*
X190822Y365950D01*
X191928Y365653D01*
X193072D01*
X194178Y365950D01*
X195169Y366522D01*
X195768Y367121D01*
X196270Y367338D01*
X198291Y367389D01*
X204280Y361400D01*
X204273Y361386D01*
X204000Y360369D01*
Y359316D01*
X204273Y358299D01*
X204799Y357386D01*
X205544Y356642D01*
X206456Y356115D01*
X207473Y355843D01*
X208527D01*
X209544Y356115D01*
X209557Y356123D01*
X211270Y354410D01*
Y345198D01*
X210225Y344403D01*
X209270Y343958D01*
X208527Y344157D01*
X207473D01*
X206456Y343885D01*
X205544Y343358D01*
X205525Y343339D01*
X208353Y340511D01*
X208000Y340157D01*
X208353Y339804D01*
X205525Y336975D01*
X205544Y336957D01*
X206456Y336430D01*
X207473Y336157D01*
X208527D01*
X209392Y336389D01*
X211031Y336575D01*
X211718Y336119D01*
Y336119D01*
X211916Y335921D01*
X230602Y317235D01*
X229773Y315235D01*
X209427D01*
X196474Y328189D01*
X196550Y328322D01*
X196846Y329428D01*
Y330572D01*
X196550Y331678D01*
X195978Y332669D01*
X195169Y333478D01*
X194178Y334050D01*
X193072Y334347D01*
X191928D01*
X190822Y334050D01*
X190689Y333974D01*
X190422Y334241D01*
X189926Y334573D01*
X189340Y334689D01*
X147877D01*
X147491Y335515D01*
X146756Y336392D01*
X145818Y337048D01*
X144743Y337440D01*
X143603Y337539D01*
X142476Y337341D01*
X141438Y336857D01*
X140562Y336121D01*
X139905Y335184D01*
X139514Y334108D01*
X139414Y332968D01*
X139613Y331841D01*
X140096Y330804D01*
X140832Y329927D01*
X141770Y329271D01*
X142845Y328879D01*
X143985Y328780D01*
X145112Y328978D01*
X146149Y329462D01*
X147026Y330198D01*
X147682Y331135D01*
X147863Y331630D01*
X187342D01*
X188154Y330572D01*
Y329428D01*
X188450Y328322D01*
X189022Y327331D01*
X189831Y326522D01*
X190822Y325950D01*
X191928Y325654D01*
X193072D01*
X194178Y325950D01*
X194311Y326027D01*
X207264Y313073D01*
Y297242D01*
X206438Y296857D01*
X205562Y296121D01*
X204905Y295184D01*
X204514Y294108D01*
X204414Y292968D01*
X204613Y291841D01*
X205097Y290804D01*
X205832Y289927D01*
X206770Y289271D01*
X207845Y288879D01*
X208985Y288780D01*
X210112Y288979D01*
X211149Y289462D01*
X212026Y290198D01*
X212683Y291135D01*
X213074Y292211D01*
X213174Y293351D01*
X212975Y294478D01*
X212491Y295515D01*
X211756Y296392D01*
X210818Y297048D01*
X210323Y297228D01*
Y312177D01*
X230090D01*
X230767Y311266D01*
X229702Y309347D01*
X229428D01*
X228322Y309050D01*
X227331Y308478D01*
X226522Y307669D01*
X225950Y306678D01*
X225654Y305572D01*
Y304428D01*
X225950Y303322D01*
X226522Y302331D01*
X227331Y301522D01*
X228322Y300950D01*
X229428Y300654D01*
X229471D01*
Y177006D01*
X228881Y176416D01*
X228500Y175497D01*
Y174503D01*
X228881Y173584D01*
X229584Y172881D01*
X230503Y172500D01*
X231497D01*
X232416Y172881D01*
X233119Y173584D01*
X233500Y174503D01*
Y175497D01*
X233119Y176416D01*
X232529Y177006D01*
Y301442D01*
X232669Y301522D01*
X233478Y302331D01*
X234050Y303322D01*
X234347Y304428D01*
Y305572D01*
X234314Y305695D01*
X236107Y306731D01*
X306027Y236811D01*
X305950Y236678D01*
X305654Y235572D01*
Y234428D01*
X305950Y233322D01*
X306027Y233189D01*
X303773Y230936D01*
X303441Y230440D01*
X303325Y229854D01*
Y139051D01*
X303322Y139050D01*
X302331Y138478D01*
X301522Y137669D01*
X300950Y136678D01*
X300654Y135572D01*
Y134428D01*
X300950Y133322D01*
X301522Y132331D01*
X302331Y131522D01*
X303322Y130950D01*
X304428Y130654D01*
X305572D01*
X306678Y130950D01*
X307669Y131522D01*
X308478Y132331D01*
X309050Y133322D01*
X309347Y134428D01*
Y135572D01*
X309050Y136678D01*
X308478Y137669D01*
X307669Y138478D01*
X306678Y139050D01*
X306384Y139129D01*
Y155433D01*
X308384Y156472D01*
X308456Y156430D01*
X309473Y156157D01*
X310527D01*
X311544Y156430D01*
X312456Y156957D01*
X313201Y157701D01*
X313727Y158614D01*
X314000Y159631D01*
Y160684D01*
X313727Y161701D01*
X313201Y162613D01*
X312456Y163358D01*
X311544Y163885D01*
X310527Y164157D01*
X309473D01*
X308456Y163885D01*
X308384Y163843D01*
X306384Y164881D01*
Y175119D01*
X308384Y176157D01*
X308456Y176115D01*
X309473Y175843D01*
X310527D01*
X311544Y176115D01*
X312456Y176642D01*
X312475Y176661D01*
X309647Y179489D01*
X310000Y179843D01*
X309647Y180196D01*
X312475Y183025D01*
X312456Y183043D01*
X311544Y183570D01*
X310527Y183843D01*
X309473D01*
X308456Y183570D01*
X308384Y183528D01*
X306384Y184567D01*
Y189760D01*
X308322Y190950D01*
X309428Y190654D01*
X310572D01*
X311678Y190950D01*
X312669Y191522D01*
X313478Y192331D01*
X314050Y193322D01*
X314347Y194428D01*
Y195572D01*
X314050Y196678D01*
X313478Y197669D01*
X312669Y198478D01*
X311678Y199050D01*
X310572Y199346D01*
X309428D01*
X308322Y199050D01*
X306384Y200240D01*
Y229221D01*
X308189Y231027D01*
X308322Y230950D01*
X309428Y230654D01*
X310572D01*
X311678Y230950D01*
X312669Y231522D01*
X313478Y232331D01*
X314050Y233322D01*
X314347Y234428D01*
Y235572D01*
X314050Y236678D01*
X313973Y236811D01*
X333893Y256731D01*
X335686Y255695D01*
X335653Y255572D01*
Y254428D01*
X335950Y253322D01*
X336522Y252331D01*
X337331Y251522D01*
X338322Y250950D01*
X339428Y250654D01*
X340572D01*
X341678Y250950D01*
X342669Y251522D01*
X343478Y252331D01*
X344050Y253322D01*
X344346Y254428D01*
Y255572D01*
X344314Y255695D01*
X346107Y256731D01*
X362029Y240808D01*
X361415Y238859D01*
X361243Y238766D01*
X360369Y239000D01*
X359316D01*
X358299Y238727D01*
X357386Y238201D01*
X357368Y238182D01*
X360196Y235353D01*
X363025Y232525D01*
X363043Y232544D01*
X363570Y233456D01*
X363843Y234473D01*
Y235527D01*
X363609Y236400D01*
X363702Y236573D01*
X365651Y237186D01*
X371419Y231419D01*
X371915Y231087D01*
X372500Y230971D01*
X385910D01*
X385950Y230822D01*
X386522Y229831D01*
X387331Y229022D01*
X388322Y228450D01*
X389428Y228153D01*
X390572D01*
X391678Y228450D01*
X392669Y229022D01*
X393478Y229831D01*
X394050Y230822D01*
X394346Y231928D01*
Y233072D01*
X394050Y234178D01*
X393478Y235169D01*
X392669Y235978D01*
X391678Y236550D01*
X390572Y236846D01*
X389428D01*
X388322Y236550D01*
X387331Y235978D01*
X386522Y235169D01*
X385950Y234178D01*
X385910Y234029D01*
X373133D01*
X341529Y265634D01*
Y290910D01*
X341678Y290950D01*
X342669Y291522D01*
X343478Y292331D01*
X344050Y293322D01*
X344346Y294428D01*
Y295572D01*
X344050Y296678D01*
X343478Y297669D01*
X342669Y298478D01*
X341678Y299050D01*
X340572Y299346D01*
X339428D01*
X338322Y299050D01*
X337331Y298478D01*
X336522Y297669D01*
X336029Y296816D01*
X335844Y296763D01*
X334029Y297734D01*
Y304366D01*
X358134Y328471D01*
X375544D01*
X375620Y328186D01*
X376239Y327114D01*
X377114Y326239D01*
X377307Y326128D01*
Y323872D01*
X377114Y323761D01*
X376239Y322886D01*
X375620Y321814D01*
X375300Y320619D01*
Y319381D01*
X375620Y318186D01*
X376239Y317114D01*
X377114Y316239D01*
X377307Y316128D01*
Y313872D01*
X377114Y313761D01*
X376239Y312886D01*
X375620Y311814D01*
X375300Y310619D01*
Y309381D01*
X375620Y308186D01*
X376239Y307114D01*
X377114Y306239D01*
X377307Y306128D01*
Y303872D01*
X377114Y303761D01*
X376239Y302886D01*
X375620Y301814D01*
X375300Y300619D01*
Y299381D01*
X375620Y298186D01*
X376239Y297114D01*
X377114Y296239D01*
X377307Y296128D01*
Y293872D01*
X377114Y293761D01*
X376239Y292886D01*
X375620Y291814D01*
X375300Y290619D01*
Y289381D01*
X375620Y288186D01*
X376239Y287114D01*
X377114Y286239D01*
X377307Y286128D01*
Y283872D01*
X377114Y283761D01*
X376239Y282886D01*
X375620Y281814D01*
X375300Y280619D01*
Y279381D01*
X375620Y278186D01*
X376239Y277114D01*
X377114Y276239D01*
X377307Y276128D01*
Y273872D01*
X377114Y273761D01*
X376239Y272886D01*
X375620Y271814D01*
X375300Y270619D01*
Y269381D01*
X375620Y268186D01*
X376239Y267114D01*
X377114Y266239D01*
X377307Y266128D01*
Y263872D01*
X377114Y263761D01*
X376239Y262886D01*
X375620Y261814D01*
X375300Y260619D01*
Y259381D01*
X375620Y258186D01*
X376239Y257114D01*
X377114Y256239D01*
X378186Y255620D01*
X379381Y255300D01*
X380619D01*
X381814Y255620D01*
X382886Y256239D01*
X383761Y257114D01*
X384380Y258186D01*
X384700Y259381D01*
Y260619D01*
X384380Y261814D01*
X383761Y262886D01*
X382886Y263761D01*
X382693Y263872D01*
Y266128D01*
X382886Y266239D01*
X383761Y267114D01*
X384380Y268186D01*
X384700Y269381D01*
Y270619D01*
X384380Y271814D01*
X383761Y272886D01*
X382886Y273761D01*
X382693Y273872D01*
Y276128D01*
X382886Y276239D01*
X383761Y277114D01*
X384380Y278186D01*
X384700Y279381D01*
Y280619D01*
X384380Y281814D01*
X384232Y282069D01*
X385779Y283616D01*
X414760D01*
X415950Y281678D01*
X415654Y280572D01*
Y279428D01*
X415950Y278322D01*
X416522Y277331D01*
X417331Y276522D01*
X418322Y275950D01*
X419428Y275654D01*
X420572D01*
X421678Y275950D01*
X422669Y276522D01*
X423478Y277331D01*
X424050Y278322D01*
X424346Y279428D01*
Y280572D01*
X424050Y281678D01*
X425240Y283616D01*
X454760D01*
X455950Y281678D01*
X455653Y280572D01*
Y279428D01*
X455950Y278322D01*
X456522Y277331D01*
X457331Y276522D01*
X458322Y275950D01*
X459428Y275654D01*
X460572D01*
X461678Y275950D01*
X461811Y276027D01*
X518573Y219264D01*
X519069Y218933D01*
X519654Y218816D01*
X530431D01*
X531718Y215279D01*
X534167Y216170D01*
X552500Y197837D01*
Y197163D01*
X476866Y121529D01*
X275634D01*
X168581Y228581D01*
X168085Y228913D01*
X167500Y229029D01*
X156926D01*
X156341Y228913D01*
X155845Y228581D01*
X155579Y228316D01*
X151718Y229721D01*
X149014Y222292D01*
X149014Y222292D01*
X149113Y221849D01*
X136419Y209155D01*
X136087Y208659D01*
X135971Y208074D01*
Y197006D01*
X135381Y196416D01*
X135038Y195589D01*
X134989Y195493D01*
X133000Y194654D01*
X119029Y205739D01*
Y237500D01*
X118913Y238085D01*
X118581Y238581D01*
X103714Y253449D01*
X103282Y255279D01*
X105986Y262708D01*
X98557Y265412D01*
X95853Y257983D01*
X99390Y256696D01*
Y254081D01*
X99506Y253495D01*
X99838Y252999D01*
X115971Y236866D01*
Y228043D01*
X113971Y227886D01*
X113899Y228337D01*
X113206Y230470D01*
X112188Y232469D01*
X110869Y234283D01*
X110430Y234723D01*
X100707Y225000D01*
X110430Y215277D01*
X110869Y215717D01*
X112188Y217531D01*
X113206Y219530D01*
X113899Y221663D01*
X113971Y222114D01*
X115971Y221957D01*
Y205000D01*
X115988Y204913D01*
X115981Y204825D01*
X116046Y204623D01*
X116087Y204415D01*
X116136Y204341D01*
X116163Y204257D01*
X116301Y204095D01*
X116419Y203919D01*
X116492Y203869D01*
X116549Y203802D01*
X163471Y166571D01*
Y90000D01*
X163587Y89415D01*
X163919Y88919D01*
X212500Y40337D01*
Y39503D01*
X212881Y38584D01*
X212935Y38529D01*
X212107Y36529D01*
X152006D01*
X151416Y37119D01*
X150497Y37500D01*
X149663D01*
X86480Y100683D01*
Y215962D01*
X88480Y216612D01*
X89131Y215717D01*
X89570Y215277D01*
X99293Y225000D01*
X89570Y234723D01*
X89131Y234283D01*
X88480Y233388D01*
X86480Y234038D01*
Y259497D01*
X88102Y260804D01*
X91443Y259588D01*
X94147Y267017D01*
X86718Y269721D01*
X84014Y262292D01*
X84014Y262292D01*
X83538Y261110D01*
X83421Y260525D01*
Y100049D01*
X83538Y99464D01*
X83869Y98968D01*
X147500Y35337D01*
Y34503D01*
X147881Y33584D01*
X147935Y33529D01*
X147107Y31529D01*
X123134D01*
X31384Y123279D01*
Y234760D01*
X33322Y235950D01*
X34428Y235653D01*
X35572D01*
X36678Y235950D01*
X37669Y236522D01*
X38478Y237331D01*
X39050Y238322D01*
X39346Y239428D01*
Y240572D01*
X39050Y241678D01*
X38478Y242669D01*
X37669Y243478D01*
X36678Y244050D01*
X35572Y244346D01*
X34428D01*
X33322Y244050D01*
X31384Y245240D01*
Y274221D01*
X33189Y276027D01*
X33322Y275950D01*
X34428Y275654D01*
X35572D01*
X36678Y275950D01*
X37669Y276522D01*
X38478Y277331D01*
X39050Y278322D01*
X39346Y279428D01*
Y280572D01*
X39050Y281678D01*
X38478Y282669D01*
X37669Y283478D01*
X36678Y284050D01*
X35572Y284347D01*
X34428D01*
X33322Y284050D01*
X32331Y283478D01*
X31522Y282669D01*
X30950Y281678D01*
X30654Y280572D01*
Y279428D01*
X30950Y278322D01*
X31027Y278189D01*
X28773Y275936D01*
X28441Y275440D01*
X28325Y274854D01*
Y122646D01*
X28441Y122060D01*
X28773Y121564D01*
X121419Y28919D01*
X121915Y28587D01*
X122500Y28471D01*
X189748D01*
Y26047D01*
X195491D01*
X197619Y23919D01*
X198116Y23587D01*
X198701Y23471D01*
X351299D01*
X351885Y23587D01*
X352381Y23919D01*
X354509Y26047D01*
X358089D01*
X365218Y18918D01*
X365714Y18587D01*
X366299Y18471D01*
X627994D01*
X628584Y17881D01*
X629503Y17500D01*
X630497D01*
X631416Y17881D01*
X632119Y18584D01*
X632500Y19503D01*
Y20497D01*
X632119Y21416D01*
X631416Y22119D01*
X630497Y22500D01*
X629503D01*
X628584Y22119D01*
X627994Y21529D01*
X513521D01*
X512692Y23529D01*
X561081Y71919D01*
X561413Y72415D01*
X561529Y73000D01*
Y210574D01*
X561413Y211159D01*
X561081Y211655D01*
X551612Y221125D01*
X552440Y223125D01*
X572897D01*
X573482Y223241D01*
X573979Y223573D01*
X610816Y260410D01*
X615986Y262292D01*
X613282Y269721D01*
X605853Y267017D01*
X607786Y261706D01*
X605441Y259361D01*
X603488Y259794D01*
X601443Y265412D01*
X594014Y262708D01*
X596157Y256820D01*
X575802Y236464D01*
X574969Y236119D01*
X574265Y235416D01*
X573885Y234497D01*
Y233503D01*
X574265Y232584D01*
X574969Y231881D01*
X575084Y231833D01*
X575692Y229786D01*
X575670Y229590D01*
X572264Y226184D01*
X549569D01*
X548282Y229721D01*
X548168Y229679D01*
X546529Y230826D01*
Y245635D01*
X546763Y246013D01*
X548406Y247234D01*
X548504Y247239D01*
X548794Y247201D01*
X549995Y247359D01*
X551114Y247822D01*
X552075Y248560D01*
X552812Y249521D01*
X553275Y250640D01*
X553434Y251840D01*
X553275Y253041D01*
X552812Y254160D01*
X552075Y255121D01*
X551114Y255858D01*
X549995Y256322D01*
X548794Y256480D01*
X547593Y256322D01*
X546474Y255858D01*
X545513Y255121D01*
X544776Y254160D01*
X544312Y253041D01*
X544154Y251840D01*
X542282Y250737D01*
X531615Y258107D01*
X532326Y260047D01*
X532556Y260024D01*
X533959Y260162D01*
X535308Y260571D01*
X536551Y261236D01*
X537641Y262130D01*
X538535Y263219D01*
X539199Y264462D01*
X539608Y265811D01*
X539747Y267214D01*
X539608Y268617D01*
X539199Y269966D01*
X538535Y271209D01*
X537641Y272298D01*
X536551Y273192D01*
X535308Y273857D01*
X533959Y274266D01*
X532556Y274404D01*
X531154Y274266D01*
X529805Y273857D01*
X528562Y273192D01*
X527472Y272298D01*
X526578Y271209D01*
X525914Y269966D01*
X525505Y268617D01*
X525366Y267214D01*
X525505Y265811D01*
X525914Y264462D01*
X524366Y263115D01*
X506221Y275652D01*
X506556Y277350D01*
X506728Y277732D01*
X507614Y278055D01*
X508477Y278659D01*
X509154Y279466D01*
X509599Y280420D01*
X509782Y281458D01*
X509690Y282507D01*
X509330Y283496D01*
X508726Y284359D01*
X507919Y285036D01*
X506964Y285481D01*
X505927Y285664D01*
X504878Y285573D01*
X503888Y285212D01*
X503025Y284608D01*
X502348Y283801D01*
X501903Y282847D01*
X501720Y281810D01*
X501778Y281152D01*
X500885Y280362D01*
X499972Y279969D01*
X490983Y286179D01*
X490936Y286227D01*
X490440Y286559D01*
X489854Y286675D01*
X385817D01*
X384955Y287581D01*
X384696Y287976D01*
X384486Y288583D01*
X384700Y289381D01*
Y290619D01*
X384380Y291814D01*
X383761Y292886D01*
X382886Y293761D01*
X382693Y293872D01*
Y296128D01*
X382886Y296239D01*
X383761Y297114D01*
X384380Y298186D01*
X384700Y299381D01*
Y300619D01*
X384380Y301814D01*
X383761Y302886D01*
X382886Y303761D01*
X382693Y303872D01*
Y306128D01*
X382886Y306239D01*
X383761Y307114D01*
X384380Y308186D01*
X384700Y309381D01*
Y310619D01*
X384380Y311814D01*
X383761Y312886D01*
X382886Y313761D01*
X382693Y313872D01*
Y316128D01*
X382886Y316239D01*
X383761Y317114D01*
X384380Y318186D01*
X384700Y319381D01*
Y320619D01*
X384380Y321814D01*
X383761Y322886D01*
X382886Y323761D01*
X382693Y323872D01*
Y326128D01*
X382886Y326239D01*
X383761Y327114D01*
X384380Y328186D01*
X384700Y329381D01*
Y330619D01*
X384380Y331814D01*
X383761Y332886D01*
X382886Y333761D01*
X382693Y333872D01*
Y336128D01*
X382886Y336239D01*
X383761Y337114D01*
X384380Y338186D01*
X384700Y339381D01*
Y340619D01*
X384380Y341814D01*
X383761Y342886D01*
X382886Y343761D01*
X382693Y343872D01*
Y346128D01*
X382886Y346239D01*
X383761Y347114D01*
X384380Y348186D01*
X384700Y349381D01*
Y350619D01*
X384380Y351814D01*
X383761Y352886D01*
X382886Y353761D01*
X382693Y353872D01*
Y356128D01*
X382886Y356239D01*
X383761Y357114D01*
X384380Y358186D01*
X384700Y359381D01*
Y360619D01*
X384380Y361814D01*
X383761Y362886D01*
X382886Y363761D01*
X382693Y363872D01*
Y366128D01*
X382886Y366239D01*
X383761Y367114D01*
X384380Y368186D01*
X384700Y369381D01*
Y370619D01*
X384380Y371814D01*
X383761Y372886D01*
X382886Y373761D01*
X382693Y373872D01*
Y376128D01*
X382886Y376239D01*
X383761Y377114D01*
X384380Y378186D01*
X384700Y379381D01*
Y380619D01*
X384380Y381814D01*
X383761Y382886D01*
X383323Y383323D01*
X393605Y393605D01*
X394976Y392481D01*
X396539Y391645D01*
X398236Y391130D01*
X400000Y390956D01*
X546868D01*
X547025Y388956D01*
X546663Y388899D01*
X544530Y388206D01*
X542531Y387188D01*
X540717Y385869D01*
X540277Y385430D01*
X550000Y375707D01*
X559723Y385430D01*
X559283Y385869D01*
X557469Y387188D01*
X555470Y388206D01*
X553337Y388899D01*
X552975Y388956D01*
X553132Y390956D01*
X600000D01*
X600000Y390956D01*
X600000Y390956D01*
X601991Y390934D01*
X605952Y390804D01*
X611878Y390220D01*
X617753Y389250D01*
X623553Y387898D01*
X629251Y386170D01*
X634824Y384072D01*
X640248Y381614D01*
X645500Y378807D01*
X650556Y375663D01*
X655397Y372194D01*
X660000Y368417D01*
X664346Y364346D01*
X668417Y360000D01*
X672194Y355397D01*
X675663Y350556D01*
X678807Y345500D01*
X681614Y340248D01*
X684072Y334824D01*
X686169Y329251D01*
X687898Y323553D01*
X689250Y317753D01*
X690220Y311878D01*
X690804Y305952D01*
X690934Y301991D01*
X690956Y300000D01*
X690956Y298001D01*
X690956Y101999D01*
X690956Y99999D01*
X690934Y98009D01*
X690804Y94048D01*
X690220Y88122D01*
X689250Y82247D01*
X687898Y76447D01*
X686169Y70749D01*
X684072Y65176D01*
X681614Y59752D01*
X678807Y54500D01*
X675663Y49444D01*
X672194Y44603D01*
X668417Y40000D01*
X664346Y35654D01*
X660000Y31583D01*
X655397Y27806D01*
X650557Y24337D01*
X645500Y21193D01*
X640248Y18386D01*
X634824Y15928D01*
X629251Y13830D01*
X623553Y12102D01*
X617754Y10750D01*
X611878Y9780D01*
X605952Y9196D01*
X600322Y9012D01*
X600000Y9044D01*
X100000D01*
X99678Y9012D01*
X94048Y9196D01*
X88122Y9780D01*
X82247Y10750D01*
X76447Y12102D01*
X70749Y13830D01*
X65176Y15928D01*
X59752Y18386D01*
X54501Y21193D01*
X49444Y24337D01*
X44603Y27806D01*
X40000Y31583D01*
X35654Y35654D01*
X31583Y40000D01*
X27806Y44603D01*
X24337Y49444D01*
X21193Y54501D01*
X18386Y59752D01*
X15928Y65176D01*
X13831Y70749D01*
X12102Y76447D01*
X10750Y82247D01*
X9780Y88122D01*
X9196Y94048D01*
X9066Y98009D01*
X9044Y100000D01*
D01*
X9044Y102000D01*
Y300000D01*
X9012Y300322D01*
X9196Y305951D01*
X9780Y311878D01*
X10750Y317753D01*
X12102Y323552D01*
X13831Y329251D01*
X15928Y334824D01*
X18386Y340248D01*
X21193Y345499D01*
X24337Y350556D01*
X27806Y355396D01*
X31583Y359999D01*
X35654Y364346D01*
X40000Y368416D01*
X44603Y372194D01*
X49444Y375662D01*
X54501Y378807D01*
X59752Y381614D01*
X65176Y384072D01*
X70749Y386169D01*
X76448Y387898D01*
X82247Y389250D01*
X88122Y390220D01*
X94048Y390804D01*
X98009Y390933D01*
X100000Y390956D01*
Y390956D01*
X100002Y390956D01*
X121868D01*
X122025Y388956D01*
X121663Y388899D01*
X119530Y388206D01*
X117531Y387188D01*
X115717Y385869D01*
X115277Y385430D01*
X125000Y375707D01*
X134723Y385430D01*
X134283Y385869D01*
X132469Y387188D01*
X130470Y388206D01*
X128337Y388899D01*
X127975Y388956D01*
X128132Y390956D01*
X300000D01*
X301764Y391130D01*
X303461Y391645D01*
X305024Y392481D01*
X306395Y393605D01*
X316677Y383323D01*
D02*
G37*
G36*
X273919Y118919D02*
X274415Y118587D01*
X275000Y118471D01*
X477500D01*
X478085Y118587D01*
X478581Y118919D01*
X554663Y195000D01*
X555497D01*
X556416Y195381D01*
X556471Y195435D01*
X558471Y194607D01*
Y73633D01*
X512252Y27415D01*
X510252Y28243D01*
Y33953D01*
X504509D01*
X501529Y36933D01*
Y110000D01*
X501413Y110585D01*
X501081Y111081D01*
X496474Y115689D01*
X496550Y115822D01*
X496846Y116928D01*
Y118072D01*
X496550Y119178D01*
X495978Y120169D01*
X495169Y120978D01*
X494178Y121550D01*
X493072Y121846D01*
X491928D01*
X490822Y121550D01*
X489831Y120978D01*
X489022Y120169D01*
X488450Y119178D01*
X488154Y118072D01*
Y116928D01*
X488450Y115822D01*
X489022Y114831D01*
X489831Y114022D01*
X490822Y113450D01*
X491928Y113154D01*
X493072D01*
X494178Y113450D01*
X494311Y113526D01*
X498471Y109367D01*
Y38529D01*
X222000D01*
X221415Y38413D01*
X220919Y38081D01*
X219741Y36904D01*
X218377Y37073D01*
X218050Y37465D01*
X217287Y38987D01*
X217500Y39503D01*
Y40497D01*
X217119Y41416D01*
X216416Y42119D01*
X215497Y42500D01*
X214663D01*
X166529Y90633D01*
Y167310D01*
Y203994D01*
X167119Y204584D01*
X167500Y205503D01*
Y206497D01*
X167119Y207416D01*
X166529Y208006D01*
Y214174D01*
X168168Y215321D01*
X168282Y215279D01*
X170121Y220331D01*
X172073Y220764D01*
X273919Y118919D01*
D02*
G37*
%LPC*%
G36*
X560430Y384723D02*
X550707Y375000D01*
X560430Y365277D01*
X560869Y365717D01*
X562188Y367531D01*
X563206Y369530D01*
X563899Y371663D01*
X564250Y373879D01*
Y376121D01*
X563899Y378337D01*
X563206Y380470D01*
X562188Y382469D01*
X560869Y384283D01*
X560430Y384723D01*
D02*
G37*
G36*
X135430D02*
X125707Y375000D01*
X135430Y365277D01*
X135869Y365717D01*
X137188Y367531D01*
X138206Y369530D01*
X138899Y371663D01*
X139250Y373879D01*
Y376121D01*
X138899Y378337D01*
X138206Y380470D01*
X137188Y382469D01*
X135869Y384283D01*
X135430Y384723D01*
D02*
G37*
G36*
X539570D02*
X539131Y384283D01*
X537812Y382469D01*
X536794Y380470D01*
X536101Y378337D01*
X535750Y376121D01*
Y373879D01*
X536101Y371663D01*
X536794Y369530D01*
X537812Y367531D01*
X539131Y365717D01*
X539570Y365277D01*
X549293Y375000D01*
X539570Y384723D01*
D02*
G37*
G36*
X114570D02*
X114131Y384283D01*
X112812Y382469D01*
X111794Y380470D01*
X111101Y378337D01*
X110750Y376121D01*
Y373879D01*
X111101Y371663D01*
X111794Y369530D01*
X112812Y367531D01*
X114131Y365717D01*
X114570Y365277D01*
X124293Y375000D01*
X114570Y384723D01*
D02*
G37*
G36*
X460000Y377190D02*
X458597Y377052D01*
X457248Y376643D01*
X456005Y375978D01*
X454916Y375084D01*
X454022Y373995D01*
X453357Y372751D01*
X452948Y371403D01*
X452810Y370000D01*
X452948Y368597D01*
X453357Y367249D01*
X454022Y366005D01*
X454916Y364916D01*
X456005Y364022D01*
X457248Y363357D01*
X458597Y362948D01*
X460000Y362810D01*
X461403Y362948D01*
X462751Y363357D01*
X463995Y364022D01*
X465084Y364916D01*
X465978Y366005D01*
X466643Y367249D01*
X467052Y368597D01*
X467190Y370000D01*
X467052Y371403D01*
X466643Y372751D01*
X465978Y373995D01*
X465084Y375084D01*
X463995Y375978D01*
X462751Y376643D01*
X461403Y377052D01*
X460000Y377190D01*
D02*
G37*
G36*
X260000D02*
X258597Y377052D01*
X257248Y376643D01*
X256005Y375978D01*
X254916Y375084D01*
X254022Y373995D01*
X253357Y372751D01*
X252948Y371403D01*
X252810Y370000D01*
X252948Y368597D01*
X253357Y367249D01*
X254022Y366005D01*
X254916Y364916D01*
X256005Y364022D01*
X257248Y363357D01*
X258597Y362948D01*
X260000Y362810D01*
X261403Y362948D01*
X262752Y363357D01*
X263995Y364022D01*
X265084Y364916D01*
X265978Y366005D01*
X266643Y367249D01*
X267052Y368597D01*
X267190Y370000D01*
X267052Y371403D01*
X266643Y372751D01*
X265978Y373995D01*
X265084Y375084D01*
X263995Y375978D01*
X262752Y376643D01*
X261403Y377052D01*
X260000Y377190D01*
D02*
G37*
G36*
X550000Y374293D02*
X540277Y364570D01*
X540717Y364131D01*
X542531Y362812D01*
X544530Y361794D01*
X546663Y361101D01*
X548878Y360750D01*
X551122D01*
X553337Y361101D01*
X555470Y361794D01*
X557469Y362812D01*
X559283Y364131D01*
X559723Y364570D01*
X550000Y374293D01*
D02*
G37*
G36*
X125000D02*
X115277Y364570D01*
X115717Y364131D01*
X117531Y362812D01*
X119530Y361794D01*
X121663Y361101D01*
X123879Y360750D01*
X126121D01*
X128337Y361101D01*
X130470Y361794D01*
X132469Y362812D01*
X134283Y364131D01*
X134723Y364570D01*
X125000Y374293D01*
D02*
G37*
G36*
X408027Y366343D02*
X406973D01*
X405956Y366070D01*
X405044Y365543D01*
X404299Y364799D01*
X403773Y363886D01*
X403500Y362869D01*
Y361816D01*
X403773Y360799D01*
X404299Y359887D01*
X405044Y359142D01*
X405956Y358615D01*
X406973Y358343D01*
X408027D01*
X409044Y358615D01*
X409956Y359142D01*
X410701Y359887D01*
X411227Y360799D01*
X411500Y361816D01*
Y362869D01*
X411227Y363886D01*
X410701Y364799D01*
X409956Y365543D01*
X409044Y366070D01*
X408027Y366343D01*
D02*
G37*
G36*
X470000Y354640D02*
X468799Y354482D01*
X467680Y354018D01*
X466719Y353281D01*
X465982Y352320D01*
X465518Y351201D01*
X465360Y350000D01*
X465518Y348799D01*
X465982Y347680D01*
X466719Y346719D01*
X467680Y345982D01*
X468799Y345518D01*
X470000Y345360D01*
X471201Y345518D01*
X472320Y345982D01*
X473281Y346719D01*
X474018Y347680D01*
X474482Y348799D01*
X474640Y350000D01*
X474482Y351201D01*
X474018Y352320D01*
X473281Y353281D01*
X472320Y354018D01*
X471201Y354482D01*
X470000Y354640D01*
D02*
G37*
G36*
X270000D02*
X268799Y354482D01*
X267680Y354018D01*
X266719Y353281D01*
X265982Y352320D01*
X265518Y351201D01*
X265360Y350000D01*
X265518Y348799D01*
X265982Y347680D01*
X266719Y346719D01*
X267680Y345982D01*
X268799Y345518D01*
X270000Y345360D01*
X271201Y345518D01*
X272320Y345982D01*
X273281Y346719D01*
X274018Y347680D01*
X274482Y348799D01*
X274640Y350000D01*
X274482Y351201D01*
X274018Y352320D01*
X273281Y353281D01*
X272320Y354018D01*
X271201Y354482D01*
X270000Y354640D01*
D02*
G37*
G36*
X408027Y346657D02*
X406973D01*
X405956Y346385D01*
X405044Y345858D01*
X405025Y345839D01*
X407500Y343365D01*
X409975Y345839D01*
X409956Y345858D01*
X409044Y346385D01*
X408027Y346657D01*
D02*
G37*
G36*
X593985Y351220D02*
X592845Y351120D01*
X591770Y350729D01*
X590832Y350073D01*
X590097Y349196D01*
X589613Y348159D01*
X589414Y347032D01*
X589514Y345892D01*
X589905Y344816D01*
X590562Y343879D01*
X591438Y343143D01*
X592476Y342659D01*
X593603Y342461D01*
X594743Y342560D01*
X595818Y342952D01*
X596756Y343608D01*
X597491Y344485D01*
X597975Y345522D01*
X598174Y346649D01*
X598074Y347789D01*
X597683Y348865D01*
X597026Y349802D01*
X596149Y350538D01*
X595112Y351022D01*
X593985Y351220D01*
D02*
G37*
G36*
X106015D02*
X104888Y351022D01*
X103851Y350538D01*
X102974Y349802D01*
X102317Y348865D01*
X101926Y347789D01*
X101826Y346649D01*
X102025Y345522D01*
X102509Y344485D01*
X103244Y343608D01*
X104182Y342952D01*
X105257Y342560D01*
X106397Y342461D01*
X107524Y342659D01*
X108562Y343143D01*
X109438Y343879D01*
X110095Y344816D01*
X110486Y345892D01*
X110586Y347032D01*
X110387Y348159D01*
X109904Y349196D01*
X109168Y350073D01*
X108230Y350729D01*
X107155Y351120D01*
X106015Y351220D01*
D02*
G37*
G36*
X435000Y367190D02*
X433597Y367052D01*
X432248Y366643D01*
X431005Y365978D01*
X429916Y365084D01*
X429022Y363995D01*
X428357Y362752D01*
X427948Y361403D01*
X427810Y360000D01*
X427948Y358597D01*
X428357Y357248D01*
X428761Y356494D01*
X428769Y356056D01*
X428471Y355029D01*
X427968Y354137D01*
X427680Y354018D01*
X426719Y353281D01*
X425982Y352320D01*
X425518Y351201D01*
X425360Y350000D01*
X425518Y348799D01*
X425982Y347680D01*
X426719Y346719D01*
X427680Y345982D01*
X428799Y345518D01*
X430000Y345360D01*
X431201Y345518D01*
X432320Y345982D01*
X433281Y346719D01*
X434018Y347680D01*
X434482Y348799D01*
X434640Y350000D01*
X434528Y350847D01*
X434631Y351274D01*
X434763Y351529D01*
X435942Y352903D01*
X436403Y352948D01*
X437751Y353357D01*
X438995Y354022D01*
X440084Y354916D01*
X441633Y353650D01*
X441552Y353499D01*
X441032Y351784D01*
X440856Y350000D01*
X441032Y348216D01*
X441552Y346501D01*
X442397Y344920D01*
X443534Y343534D01*
X444920Y342397D01*
X446501Y341552D01*
X448216Y341032D01*
X450000Y340856D01*
X451784Y341032D01*
X453499Y341552D01*
X455080Y342397D01*
X456466Y343534D01*
X457603Y344920D01*
X458448Y346501D01*
X458968Y348216D01*
X459144Y350000D01*
X458968Y351784D01*
X458448Y353499D01*
X457603Y355080D01*
X456466Y356466D01*
X455080Y357603D01*
X453499Y358448D01*
X451784Y358968D01*
X450000Y359144D01*
X448216Y358968D01*
X446501Y358448D01*
X444920Y357603D01*
X443534Y356466D01*
X443407Y356311D01*
X441643Y357248D01*
X442052Y358597D01*
X442190Y360000D01*
X442052Y361403D01*
X441643Y362752D01*
X440978Y363995D01*
X440084Y365084D01*
X438995Y365978D01*
X437751Y366643D01*
X436403Y367052D01*
X435000Y367190D01*
D02*
G37*
G36*
X235000D02*
X233597Y367052D01*
X232248Y366643D01*
X231005Y365978D01*
X229916Y365084D01*
X229022Y363995D01*
X228357Y362752D01*
X227948Y361403D01*
X227810Y360000D01*
X227948Y358597D01*
X228357Y357248D01*
X228761Y356494D01*
X228769Y356056D01*
X228471Y355029D01*
X227968Y354137D01*
X227680Y354018D01*
X226719Y353281D01*
X225982Y352320D01*
X225518Y351201D01*
X225360Y350000D01*
X225518Y348799D01*
X225982Y347680D01*
X226719Y346719D01*
X227680Y345982D01*
X228799Y345518D01*
X230000Y345360D01*
X231201Y345518D01*
X232320Y345982D01*
X233281Y346719D01*
X234018Y347680D01*
X234482Y348799D01*
X234640Y350000D01*
X234528Y350847D01*
X234631Y351274D01*
X234763Y351529D01*
X235942Y352903D01*
X236403Y352948D01*
X237752Y353357D01*
X238995Y354022D01*
X240084Y354916D01*
X241633Y353650D01*
X241552Y353499D01*
X241032Y351784D01*
X240856Y350000D01*
X241032Y348216D01*
X241552Y346501D01*
X242397Y344920D01*
X243534Y343534D01*
X244920Y342397D01*
X246501Y341552D01*
X248216Y341032D01*
X250000Y340856D01*
X251784Y341032D01*
X253499Y341552D01*
X255080Y342397D01*
X256466Y343534D01*
X257603Y344920D01*
X258448Y346501D01*
X258968Y348216D01*
X259144Y350000D01*
X258968Y351784D01*
X258448Y353499D01*
X257603Y355080D01*
X256466Y356466D01*
X255080Y357603D01*
X253499Y358448D01*
X251784Y358968D01*
X250000Y359144D01*
X248216Y358968D01*
X246501Y358448D01*
X244920Y357603D01*
X243534Y356466D01*
X243407Y356311D01*
X241643Y357248D01*
X242052Y358597D01*
X242190Y360000D01*
X242052Y361403D01*
X241643Y362752D01*
X240978Y363995D01*
X240084Y365084D01*
X238995Y365978D01*
X237752Y366643D01*
X236403Y367052D01*
X235000Y367190D01*
D02*
G37*
G36*
X404318Y345132D02*
X404299Y345113D01*
X403773Y344201D01*
X403500Y343184D01*
Y342131D01*
X403773Y341113D01*
X404299Y340201D01*
X404318Y340182D01*
X406793Y342657D01*
X404318Y345132D01*
D02*
G37*
G36*
X410682D02*
X408207Y342657D01*
X410682Y340182D01*
X410701Y340201D01*
X411227Y341113D01*
X411500Y342131D01*
Y343184D01*
X411227Y344201D01*
X410701Y345113D01*
X410682Y345132D01*
D02*
G37*
G36*
X407500Y341950D02*
X405025Y339475D01*
X405044Y339457D01*
X405956Y338930D01*
X406973Y338657D01*
X408027D01*
X409044Y338930D01*
X409956Y339457D01*
X409975Y339475D01*
X407500Y341950D01*
D02*
G37*
G36*
X204818Y342632D02*
X204799Y342614D01*
X204273Y341701D01*
X204000Y340684D01*
Y339631D01*
X204273Y338614D01*
X204799Y337701D01*
X204818Y337683D01*
X207293Y340157D01*
X204818Y342632D01*
D02*
G37*
G36*
X589425Y332397D02*
X588376Y332305D01*
X587386Y331945D01*
X586523Y331341D01*
X585846Y330534D01*
X585835Y330510D01*
X589007Y329031D01*
X590486Y332203D01*
X590462Y332214D01*
X589425Y332397D01*
D02*
G37*
G36*
X556397Y337539D02*
X555257Y337440D01*
X554182Y337048D01*
X553244Y336392D01*
X552509Y335515D01*
X552025Y334478D01*
X551826Y333351D01*
X551926Y332211D01*
X552317Y331135D01*
X552974Y330198D01*
X553851Y329462D01*
X554888Y328978D01*
X556015Y328780D01*
X557155Y328879D01*
X558230Y329271D01*
X559168Y329927D01*
X559903Y330804D01*
X560387Y331841D01*
X560586Y332968D01*
X560486Y334108D01*
X560095Y335184D01*
X559438Y336121D01*
X558562Y336857D01*
X557524Y337341D01*
X556397Y337539D01*
D02*
G37*
G36*
X591393Y331780D02*
X589913Y328608D01*
X593085Y327129D01*
X593097Y327153D01*
X593280Y328190D01*
X593188Y329240D01*
X592828Y330229D01*
X592224Y331092D01*
X591417Y331769D01*
X591393Y331780D01*
D02*
G37*
G36*
X585412Y329604D02*
X585401Y329580D01*
X585218Y328542D01*
X585310Y327493D01*
X585670Y326503D01*
X586274Y325641D01*
X587081Y324964D01*
X587105Y324953D01*
X588585Y328125D01*
X585412Y329604D01*
D02*
G37*
G36*
X589491Y327702D02*
X588012Y324530D01*
X588036Y324519D01*
X589073Y324336D01*
X590122Y324428D01*
X591112Y324788D01*
X591975Y325392D01*
X592652Y326199D01*
X592663Y326223D01*
X589491Y327702D01*
D02*
G37*
G36*
X110575Y332397D02*
X109538Y332214D01*
X108583Y331769D01*
X107776Y331092D01*
X107172Y330229D01*
X106812Y329240D01*
X106720Y328190D01*
X106903Y327153D01*
X107348Y326199D01*
X108025Y325392D01*
X108888Y324788D01*
X109878Y324428D01*
X110927Y324336D01*
X111964Y324519D01*
X112919Y324964D01*
X113726Y325641D01*
X114330Y326503D01*
X114690Y327493D01*
X114782Y328542D01*
X114599Y329580D01*
X114154Y330534D01*
X113477Y331341D01*
X112614Y331945D01*
X111624Y332305D01*
X110575Y332397D01*
D02*
G37*
G36*
X129073Y325664D02*
X128036Y325481D01*
X128012Y325470D01*
X129491Y322298D01*
X132663Y323777D01*
X132652Y323801D01*
X131975Y324608D01*
X131112Y325212D01*
X130122Y325572D01*
X129073Y325664D01*
D02*
G37*
G36*
X127105Y325047D02*
X127081Y325036D01*
X126274Y324359D01*
X125670Y323497D01*
X125310Y322507D01*
X125218Y321458D01*
X125401Y320420D01*
X125412Y320396D01*
X128585Y321875D01*
X127105Y325047D01*
D02*
G37*
G36*
X133086Y322871D02*
X129913Y321392D01*
X131393Y318220D01*
X131417Y318231D01*
X132223Y318908D01*
X132828Y319771D01*
X133188Y320760D01*
X133280Y321810D01*
X133097Y322847D01*
X133086Y322871D01*
D02*
G37*
G36*
X570927Y325664D02*
X569878Y325572D01*
X568888Y325212D01*
X568025Y324608D01*
X567348Y323801D01*
X566903Y322847D01*
X566720Y321810D01*
X566812Y320760D01*
X567172Y319771D01*
X567776Y318908D01*
X568583Y318231D01*
X569538Y317786D01*
X570575Y317603D01*
X571624Y317695D01*
X572614Y318055D01*
X573477Y318659D01*
X574154Y319466D01*
X574599Y320420D01*
X574782Y321458D01*
X574690Y322507D01*
X574330Y323497D01*
X573726Y324359D01*
X572919Y325036D01*
X571964Y325481D01*
X570927Y325664D01*
D02*
G37*
G36*
X129007Y320969D02*
X125835Y319490D01*
X125846Y319466D01*
X126523Y318659D01*
X127386Y318055D01*
X128376Y317695D01*
X129425Y317603D01*
X130462Y317786D01*
X130486Y317797D01*
X129007Y320969D01*
D02*
G37*
G36*
X460572Y314347D02*
X459428D01*
X458322Y314050D01*
X457331Y313478D01*
X456522Y312669D01*
X455950Y311678D01*
X455653Y310572D01*
Y309428D01*
X455950Y308322D01*
X456522Y307331D01*
X457331Y306522D01*
X458322Y305950D01*
X459428Y305654D01*
X460572D01*
X461678Y305950D01*
X462669Y306522D01*
X463478Y307331D01*
X464050Y308322D01*
X464347Y309428D01*
Y310572D01*
X464050Y311678D01*
X463478Y312669D01*
X462669Y313478D01*
X461678Y314050D01*
X460572Y314347D01*
D02*
G37*
G36*
X420572D02*
X419428D01*
X418322Y314050D01*
X417331Y313478D01*
X416522Y312669D01*
X415950Y311678D01*
X415654Y310572D01*
Y309428D01*
X415950Y308322D01*
X416522Y307331D01*
X417331Y306522D01*
X418322Y305950D01*
X419428Y305654D01*
X420572D01*
X421678Y305950D01*
X422669Y306522D01*
X423478Y307331D01*
X424050Y308322D01*
X424346Y309428D01*
Y310572D01*
X424050Y311678D01*
X423478Y312669D01*
X422669Y313478D01*
X421678Y314050D01*
X420572Y314347D01*
D02*
G37*
G36*
X528985Y311220D02*
X527845Y311121D01*
X526770Y310729D01*
X525832Y310073D01*
X525097Y309196D01*
X524613Y308159D01*
X524414Y307032D01*
X524514Y305892D01*
X524905Y304816D01*
X525562Y303879D01*
X526439Y303143D01*
X527476Y302659D01*
X528603Y302461D01*
X529743Y302560D01*
X530818Y302952D01*
X531756Y303608D01*
X532491Y304485D01*
X532975Y305522D01*
X533174Y306649D01*
X533074Y307789D01*
X532683Y308865D01*
X532026Y309802D01*
X531149Y310538D01*
X530112Y311021D01*
X528985Y311220D01*
D02*
G37*
G36*
X171015D02*
X169888Y311021D01*
X168851Y310538D01*
X167974Y309802D01*
X167317Y308865D01*
X166926Y307789D01*
X166826Y306649D01*
X167025Y305522D01*
X167509Y304485D01*
X168244Y303608D01*
X169182Y302952D01*
X170257Y302560D01*
X171397Y302461D01*
X172524Y302659D01*
X173562Y303143D01*
X174438Y303879D01*
X175095Y304816D01*
X175486Y305892D01*
X175586Y307032D01*
X175387Y308159D01*
X174904Y309196D01*
X174168Y310073D01*
X173230Y310729D01*
X172155Y311121D01*
X171015Y311220D01*
D02*
G37*
G36*
X270572Y309347D02*
X269428D01*
X268322Y309050D01*
X267331Y308478D01*
X266522Y307669D01*
X265950Y306678D01*
X265653Y305572D01*
Y304428D01*
X265950Y303322D01*
X266522Y302331D01*
X267331Y301522D01*
X268322Y300950D01*
X269428Y300654D01*
X270572D01*
X271678Y300950D01*
X272669Y301522D01*
X273478Y302331D01*
X274050Y303322D01*
X274346Y304428D01*
Y305572D01*
X274050Y306678D01*
X273478Y307669D01*
X272669Y308478D01*
X271678Y309050D01*
X270572Y309347D01*
D02*
G37*
G36*
X597556Y314404D02*
X596154Y314266D01*
X594805Y313857D01*
X593562Y313192D01*
X592472Y312298D01*
X591578Y311209D01*
X590914Y309966D01*
X590505Y308617D01*
X590366Y307214D01*
X590505Y305811D01*
X590914Y304463D01*
X591578Y303219D01*
X592472Y302130D01*
X593562Y301236D01*
X594805Y300571D01*
X596154Y300162D01*
X597556Y300024D01*
X598959Y300162D01*
X600308Y300571D01*
X601551Y301236D01*
X602641Y302130D01*
X603535Y303219D01*
X604199Y304463D01*
X604608Y305811D01*
X604747Y307214D01*
X604608Y308617D01*
X604199Y309966D01*
X603535Y311209D01*
X602641Y312298D01*
X601551Y313192D01*
X600308Y313857D01*
X598959Y314266D01*
X597556Y314404D01*
D02*
G37*
G36*
X121237Y307564D02*
X119835Y307426D01*
X118486Y307016D01*
X117243Y306352D01*
X116153Y305458D01*
X115259Y304368D01*
X114594Y303125D01*
X114185Y301776D01*
X114047Y300374D01*
X114185Y298971D01*
X114594Y297622D01*
X115259Y296379D01*
X116153Y295289D01*
X117243Y294395D01*
X118486Y293731D01*
X119835Y293322D01*
X121237Y293183D01*
X122640Y293322D01*
X123989Y293731D01*
X125232Y294395D01*
X126321Y295289D01*
X127216Y296379D01*
X127880Y297622D01*
X128289Y298971D01*
X128427Y300374D01*
X128289Y301776D01*
X127880Y303125D01*
X127216Y304368D01*
X126321Y305458D01*
X125232Y306352D01*
X123989Y307016D01*
X122640Y307426D01*
X121237Y307564D01*
D02*
G37*
G36*
X524425Y292397D02*
X523376Y292305D01*
X522386Y291945D01*
X521523Y291341D01*
X520846Y290534D01*
X520835Y290510D01*
X524007Y289031D01*
X525486Y292203D01*
X525462Y292214D01*
X524425Y292397D01*
D02*
G37*
G36*
X491397Y297539D02*
X490257Y297440D01*
X489182Y297048D01*
X488244Y296392D01*
X487509Y295515D01*
X487025Y294478D01*
X486826Y293351D01*
X486926Y292211D01*
X487317Y291135D01*
X487974Y290198D01*
X488851Y289462D01*
X489888Y288979D01*
X491015Y288780D01*
X492155Y288879D01*
X493230Y289271D01*
X494168Y289927D01*
X494903Y290804D01*
X495387Y291841D01*
X495586Y292968D01*
X495486Y294108D01*
X495095Y295184D01*
X494438Y296121D01*
X493562Y296857D01*
X492524Y297341D01*
X491397Y297539D01*
D02*
G37*
G36*
X613794Y296480D02*
X612593Y296322D01*
X611474Y295859D01*
X610513Y295121D01*
X609776Y294160D01*
X609312Y293041D01*
X609154Y291840D01*
X609312Y290640D01*
X609776Y289521D01*
X610513Y288560D01*
X611474Y287822D01*
X612593Y287359D01*
X613794Y287201D01*
X614995Y287359D01*
X616114Y287822D01*
X617075Y288560D01*
X617812Y289521D01*
X618275Y290640D01*
X618434Y291840D01*
X618275Y293041D01*
X617812Y294160D01*
X617075Y295121D01*
X616114Y295859D01*
X614995Y296322D01*
X613794Y296480D01*
D02*
G37*
G36*
X526393Y291780D02*
X524913Y288608D01*
X528086Y287129D01*
X528097Y287153D01*
X528280Y288190D01*
X528188Y289240D01*
X527828Y290229D01*
X527223Y291092D01*
X526417Y291769D01*
X526393Y291780D01*
D02*
G37*
G36*
X520412Y289604D02*
X520401Y289580D01*
X520218Y288542D01*
X520310Y287493D01*
X520670Y286504D01*
X521274Y285641D01*
X522081Y284964D01*
X522105Y284952D01*
X523585Y288125D01*
X520412Y289604D01*
D02*
G37*
G36*
X524491Y287702D02*
X523012Y284530D01*
X523036Y284519D01*
X524073Y284336D01*
X525122Y284427D01*
X526112Y284788D01*
X526975Y285392D01*
X527652Y286199D01*
X527663Y286223D01*
X524491Y287702D01*
D02*
G37*
G36*
X175575Y292397D02*
X174538Y292214D01*
X173583Y291769D01*
X172776Y291092D01*
X172172Y290229D01*
X171812Y289240D01*
X171720Y288190D01*
X171903Y287153D01*
X172348Y286199D01*
X173025Y285392D01*
X173888Y284788D01*
X174878Y284427D01*
X175927Y284336D01*
X176964Y284519D01*
X177919Y284964D01*
X178726Y285641D01*
X179330Y286504D01*
X179690Y287493D01*
X179782Y288542D01*
X179599Y289580D01*
X179154Y290534D01*
X178477Y291341D01*
X177614Y291945D01*
X176624Y292305D01*
X175575Y292397D01*
D02*
G37*
G36*
X194073Y285664D02*
X193036Y285481D01*
X193012Y285470D01*
X194491Y282298D01*
X197663Y283777D01*
X197652Y283801D01*
X196975Y284608D01*
X196112Y285212D01*
X195122Y285573D01*
X194073Y285664D01*
D02*
G37*
G36*
X192105Y285048D02*
X192081Y285036D01*
X191274Y284359D01*
X190670Y283496D01*
X190310Y282507D01*
X190218Y281458D01*
X190401Y280420D01*
X190412Y280396D01*
X193585Y281875D01*
X192105Y285048D01*
D02*
G37*
G36*
X198085Y282871D02*
X194913Y281392D01*
X196393Y278220D01*
X196417Y278231D01*
X197223Y278908D01*
X197828Y279771D01*
X198188Y280760D01*
X198280Y281810D01*
X198097Y282847D01*
X198085Y282871D01*
D02*
G37*
G36*
X194007Y280969D02*
X190835Y279490D01*
X190846Y279466D01*
X191523Y278659D01*
X192386Y278055D01*
X193376Y277695D01*
X194425Y277603D01*
X195462Y277786D01*
X195486Y277797D01*
X194007Y280969D01*
D02*
G37*
G36*
X577484Y296457D02*
X576082Y296319D01*
X574733Y295909D01*
X573490Y295245D01*
X572400Y294351D01*
X571506Y293261D01*
X570842Y292018D01*
X570432Y290669D01*
X570294Y289267D01*
X570432Y287864D01*
X570842Y286515D01*
X571506Y285272D01*
X572400Y284182D01*
X572850Y283813D01*
X572996Y281672D01*
X572950Y281521D01*
X572861Y281357D01*
X572188Y280479D01*
X571725Y279360D01*
X571566Y278160D01*
X571725Y276959D01*
X572188Y275840D01*
X572925Y274879D01*
X573886Y274142D01*
X575005Y273678D01*
X576206Y273520D01*
X577407Y273678D01*
X578526Y274142D01*
X579487Y274879D01*
X580224Y275840D01*
X580688Y276959D01*
X580846Y278160D01*
X580688Y279360D01*
X580224Y280479D01*
X580193Y280521D01*
X580209Y281337D01*
X580680Y282805D01*
X580772Y282910D01*
X581479Y283288D01*
X582569Y284182D01*
X583463Y285272D01*
X584127Y286515D01*
X585935Y285806D01*
X585856Y285000D01*
X586032Y283216D01*
X586552Y281501D01*
X587397Y279920D01*
X588534Y278534D01*
X589920Y277397D01*
X591501Y276552D01*
X593216Y276032D01*
X595000Y275856D01*
X596784Y276032D01*
X598499Y276552D01*
X600080Y277397D01*
X601466Y278534D01*
X602603Y279920D01*
X603448Y281501D01*
X603968Y283216D01*
X604144Y285000D01*
X603968Y286784D01*
X603448Y288499D01*
X602603Y290080D01*
X601466Y291466D01*
X600080Y292603D01*
X598499Y293448D01*
X596784Y293968D01*
X595000Y294144D01*
X593216Y293968D01*
X591501Y293448D01*
X589920Y292603D01*
X588534Y291466D01*
X587397Y290080D01*
X586552Y288499D01*
X584659Y289105D01*
X584675Y289267D01*
X584536Y290669D01*
X584127Y292018D01*
X583463Y293261D01*
X582569Y294351D01*
X581479Y295245D01*
X580236Y295909D01*
X578887Y296319D01*
X577484Y296457D01*
D02*
G37*
G36*
X94325Y306717D02*
X92922Y306579D01*
X91573Y306170D01*
X90330Y305506D01*
X89241Y304611D01*
X88346Y303522D01*
X87682Y302279D01*
X87273Y300930D01*
X87135Y299527D01*
X87250Y298360D01*
X87018Y297826D01*
X85702Y296414D01*
X85005Y296322D01*
X83886Y295859D01*
X82925Y295121D01*
X82188Y294160D01*
X81725Y293041D01*
X81566Y291840D01*
X81725Y290640D01*
X82188Y289521D01*
X82925Y288560D01*
X83886Y287822D01*
X85005Y287359D01*
X86206Y287201D01*
X87407Y287359D01*
X88526Y287822D01*
X89487Y288560D01*
X90224Y289521D01*
X90688Y290640D01*
X90750Y291109D01*
X90786Y291187D01*
X92236Y292331D01*
X92774Y292520D01*
X92922Y292475D01*
X94325Y292337D01*
X95727Y292475D01*
X97076Y292884D01*
X97246Y292975D01*
X98534Y291466D01*
X97397Y290080D01*
X96552Y288499D01*
X96032Y286784D01*
X95856Y285000D01*
X96032Y283216D01*
X96552Y281501D01*
X97397Y279920D01*
X98534Y278534D01*
X99920Y277397D01*
X101501Y276552D01*
X103216Y276032D01*
X105000Y275856D01*
X106784Y276032D01*
X108499Y276552D01*
X110080Y277397D01*
X111466Y278534D01*
X112603Y279920D01*
X113448Y281501D01*
X113968Y283216D01*
X114144Y285000D01*
X113968Y286784D01*
X113448Y288499D01*
X112603Y290080D01*
X111466Y291466D01*
X110080Y292603D01*
X108499Y293448D01*
X106784Y293968D01*
X105000Y294144D01*
X103216Y293968D01*
X101501Y293448D01*
X100761Y293053D01*
X99409Y294443D01*
X100303Y295533D01*
X100968Y296776D01*
X101377Y298125D01*
X101515Y299527D01*
X101377Y300930D01*
X100968Y302279D01*
X100303Y303522D01*
X99409Y304611D01*
X98319Y305506D01*
X97076Y306170D01*
X95727Y306579D01*
X94325Y306717D01*
D02*
G37*
G36*
X123794Y282799D02*
X122593Y282641D01*
X121474Y282178D01*
X120513Y281440D01*
X119776Y280479D01*
X119312Y279360D01*
X119154Y278160D01*
X119312Y276959D01*
X119776Y275840D01*
X120513Y274879D01*
X121474Y274142D01*
X122593Y273678D01*
X123794Y273520D01*
X124995Y273678D01*
X126114Y274142D01*
X127075Y274879D01*
X127812Y275840D01*
X128276Y276959D01*
X128434Y278160D01*
X128276Y279360D01*
X127812Y280479D01*
X127075Y281440D01*
X126114Y282178D01*
X124995Y282641D01*
X123794Y282799D01*
D02*
G37*
G36*
X186237Y267564D02*
X184835Y267426D01*
X183486Y267017D01*
X182243Y266352D01*
X181153Y265458D01*
X180259Y264368D01*
X179595Y263125D01*
X179185Y261776D01*
X179047Y260374D01*
X179185Y258971D01*
X179595Y257622D01*
X180259Y256379D01*
X181153Y255290D01*
X182243Y254395D01*
X183486Y253731D01*
X184835Y253322D01*
X186237Y253184D01*
X187640Y253322D01*
X188989Y253731D01*
X190232Y254395D01*
X191322Y255290D01*
X192216Y256379D01*
X192880Y257622D01*
X193289Y258971D01*
X193427Y260374D01*
X193289Y261776D01*
X192880Y263125D01*
X192216Y264368D01*
X191322Y265458D01*
X190232Y266352D01*
X188989Y267017D01*
X187640Y267426D01*
X186237Y267564D01*
D02*
G37*
G36*
X159325Y266717D02*
X157922Y266579D01*
X156573Y266170D01*
X155330Y265506D01*
X154241Y264611D01*
X153347Y263522D01*
X152682Y262279D01*
X152273Y260930D01*
X152135Y259527D01*
X152250Y258360D01*
X152018Y257826D01*
X150702Y256414D01*
X150005Y256322D01*
X148886Y255858D01*
X147925Y255121D01*
X147188Y254160D01*
X146724Y253041D01*
X146566Y251840D01*
X146724Y250640D01*
X147188Y249521D01*
X147925Y248560D01*
X148886Y247822D01*
X150005Y247359D01*
X151206Y247201D01*
X152407Y247359D01*
X153526Y247822D01*
X154487Y248560D01*
X155224Y249521D01*
X155688Y250640D01*
X155749Y251109D01*
X155786Y251187D01*
X157236Y252331D01*
X157774Y252520D01*
X157922Y252475D01*
X159325Y252337D01*
X160728Y252475D01*
X162076Y252884D01*
X162246Y252975D01*
X163534Y251466D01*
X162397Y250080D01*
X161552Y248499D01*
X161032Y246784D01*
X160856Y245000D01*
X161032Y243216D01*
X161552Y241501D01*
X162397Y239920D01*
X163534Y238534D01*
X164920Y237397D01*
X166501Y236552D01*
X168216Y236032D01*
X170000Y235856D01*
X171784Y236032D01*
X173499Y236552D01*
X175080Y237397D01*
X176466Y238534D01*
X177603Y239920D01*
X178448Y241501D01*
X178968Y243216D01*
X179144Y245000D01*
X178968Y246784D01*
X178448Y248499D01*
X177603Y250080D01*
X176466Y251466D01*
X175080Y252603D01*
X173499Y253448D01*
X171784Y253968D01*
X170000Y254144D01*
X168216Y253968D01*
X166501Y253448D01*
X165761Y253053D01*
X164409Y254443D01*
X165303Y255533D01*
X165968Y256776D01*
X166377Y258124D01*
X166515Y259527D01*
X166377Y260930D01*
X165968Y262279D01*
X165303Y263522D01*
X164409Y264611D01*
X163319Y265506D01*
X162076Y266170D01*
X160728Y266579D01*
X159325Y266717D01*
D02*
G37*
G36*
X188794Y242799D02*
X187593Y242641D01*
X186474Y242178D01*
X185513Y241440D01*
X184776Y240479D01*
X184312Y239360D01*
X184154Y238160D01*
X184312Y236959D01*
X184776Y235840D01*
X185513Y234879D01*
X186474Y234141D01*
X187593Y233678D01*
X188794Y233520D01*
X189995Y233678D01*
X191114Y234141D01*
X192075Y234879D01*
X192812Y235840D01*
X193275Y236959D01*
X193434Y238160D01*
X193275Y239360D01*
X192812Y240479D01*
X192075Y241440D01*
X191114Y242178D01*
X189995Y242641D01*
X188794Y242799D01*
D02*
G37*
G36*
X356661Y237475D02*
X356642Y237456D01*
X356115Y236544D01*
X355843Y235527D01*
Y234473D01*
X356115Y233456D01*
X356642Y232544D01*
X356661Y232525D01*
X359136Y235000D01*
X356661Y237475D01*
D02*
G37*
G36*
X359843Y234293D02*
X357368Y231818D01*
X357386Y231799D01*
X358299Y231273D01*
X359316Y231000D01*
X360369D01*
X361386Y231273D01*
X362299Y231799D01*
X362317Y231818D01*
X359843Y234293D01*
D02*
G37*
G36*
X340684Y239000D02*
X339631D01*
X338614Y238727D01*
X337701Y238201D01*
X336957Y237456D01*
X336430Y236544D01*
X336157Y235527D01*
Y234473D01*
X336430Y233456D01*
X336957Y232544D01*
X337701Y231799D01*
X338614Y231273D01*
X339631Y231000D01*
X340684D01*
X341701Y231273D01*
X342614Y231799D01*
X343358Y232544D01*
X343885Y233456D01*
X344157Y234473D01*
Y235527D01*
X343885Y236544D01*
X343358Y237456D01*
X342614Y238201D01*
X341701Y238727D01*
X340684Y239000D01*
D02*
G37*
G36*
X601122Y239250D02*
X598878D01*
X596663Y238899D01*
X594530Y238206D01*
X592531Y237188D01*
X590717Y235869D01*
X590277Y235430D01*
X600000Y225707D01*
X609723Y235430D01*
X609283Y235869D01*
X607469Y237188D01*
X605470Y238206D01*
X603337Y238899D01*
X601122Y239250D01*
D02*
G37*
G36*
X101121D02*
X98879D01*
X96663Y238899D01*
X94530Y238206D01*
X92531Y237188D01*
X90717Y235869D01*
X90277Y235430D01*
X100000Y225707D01*
X109723Y235430D01*
X109283Y235869D01*
X107469Y237188D01*
X105470Y238206D01*
X103337Y238899D01*
X101121Y239250D01*
D02*
G37*
G36*
X360435Y222059D02*
X359250D01*
X358106Y221752D01*
X357080Y221160D01*
X357014Y221095D01*
X359842Y218266D01*
X362671Y221095D01*
X362606Y221160D01*
X361579Y221752D01*
X360435Y222059D01*
D02*
G37*
G36*
X610430Y234723D02*
X600707Y225000D01*
X610430Y215277D01*
X610869Y215717D01*
X612188Y217531D01*
X613206Y219530D01*
X613899Y221663D01*
X614250Y223879D01*
Y226121D01*
X613899Y228337D01*
X613206Y230470D01*
X612188Y232469D01*
X610869Y234283D01*
X610430Y234723D01*
D02*
G37*
G36*
X589570D02*
X589131Y234283D01*
X587812Y232469D01*
X586794Y230470D01*
X586101Y228337D01*
X585750Y226121D01*
Y223879D01*
X586101Y221663D01*
X586794Y219530D01*
X587812Y217531D01*
X589131Y215717D01*
X589570Y215277D01*
X599293Y225000D01*
X589570Y234723D01*
D02*
G37*
G36*
X363378Y220388D02*
X360550Y217559D01*
X363378Y214731D01*
X363443Y214796D01*
X364036Y215822D01*
X364342Y216967D01*
Y218151D01*
X364036Y219296D01*
X363443Y220322D01*
X363378Y220388D01*
D02*
G37*
G36*
X356307D02*
X356242Y220322D01*
X355649Y219296D01*
X355343Y218151D01*
Y216967D01*
X355649Y215822D01*
X356242Y214796D01*
X356307Y214731D01*
X359135Y217559D01*
X356307Y220388D01*
D02*
G37*
G36*
X359842Y216852D02*
X357014Y214023D01*
X357080Y213958D01*
X358106Y213366D01*
X359250Y213059D01*
X360435D01*
X361579Y213366D01*
X362606Y213958D01*
X362671Y214023D01*
X359842Y216852D01*
D02*
G37*
G36*
X340750Y222059D02*
X339565D01*
X338421Y221752D01*
X337394Y221160D01*
X336557Y220322D01*
X335964Y219296D01*
X335658Y218151D01*
Y216967D01*
X335964Y215822D01*
X336557Y214796D01*
X337394Y213958D01*
X338421Y213366D01*
X339565Y213059D01*
X340750D01*
X341894Y213366D01*
X342920Y213958D01*
X343758Y214796D01*
X344351Y215822D01*
X344657Y216967D01*
Y218151D01*
X344351Y219296D01*
X343758Y220322D01*
X342920Y221160D01*
X341894Y221752D01*
X340750Y222059D01*
D02*
G37*
G36*
X600000Y224293D02*
X590277Y214570D01*
X590717Y214131D01*
X592531Y212812D01*
X594530Y211794D01*
X596663Y211101D01*
X598878Y210750D01*
X601122D01*
X603337Y211101D01*
X605470Y211794D01*
X607469Y212812D01*
X609283Y214131D01*
X609723Y214570D01*
X600000Y224293D01*
D02*
G37*
G36*
X100000D02*
X90277Y214570D01*
X90717Y214131D01*
X92531Y212812D01*
X94530Y211794D01*
X96663Y211101D01*
X98879Y210750D01*
X101121D01*
X103337Y211101D01*
X105470Y211794D01*
X107469Y212812D01*
X109283Y214131D01*
X109723Y214570D01*
X100000Y224293D01*
D02*
G37*
G36*
X451122Y214250D02*
X448878D01*
X446663Y213899D01*
X444530Y213206D01*
X442531Y212188D01*
X440717Y210869D01*
X440277Y210430D01*
X450000Y200707D01*
X459723Y210430D01*
X459283Y210869D01*
X457469Y212188D01*
X455470Y213206D01*
X453337Y213899D01*
X451122Y214250D01*
D02*
G37*
G36*
X251121D02*
X248879D01*
X246663Y213899D01*
X244530Y213206D01*
X242531Y212188D01*
X240717Y210869D01*
X240277Y210430D01*
X250000Y200707D01*
X259723Y210430D01*
X259283Y210869D01*
X257469Y212188D01*
X255470Y213206D01*
X253337Y213899D01*
X251121Y214250D01*
D02*
G37*
G36*
X460430Y209723D02*
X450707Y200000D01*
X460430Y190277D01*
X460869Y190717D01*
X462188Y192531D01*
X463206Y194530D01*
X463899Y196663D01*
X464250Y198879D01*
Y201121D01*
X463899Y203337D01*
X463206Y205470D01*
X462188Y207469D01*
X460869Y209283D01*
X460430Y209723D01*
D02*
G37*
G36*
X260430D02*
X250707Y200000D01*
X260430Y190277D01*
X260869Y190717D01*
X262188Y192531D01*
X263206Y194530D01*
X263899Y196663D01*
X264250Y198879D01*
Y201121D01*
X263899Y203337D01*
X263206Y205470D01*
X262188Y207469D01*
X260869Y209283D01*
X260430Y209723D01*
D02*
G37*
G36*
X439570D02*
X439131Y209283D01*
X437812Y207469D01*
X436794Y205470D01*
X436101Y203337D01*
X435750Y201121D01*
Y198879D01*
X436101Y196663D01*
X436794Y194530D01*
X437812Y192531D01*
X439131Y190717D01*
X439570Y190277D01*
X449293Y200000D01*
X439570Y209723D01*
D02*
G37*
G36*
X239570D02*
X239131Y209283D01*
X237812Y207469D01*
X236794Y205470D01*
X236101Y203337D01*
X235750Y201121D01*
Y198879D01*
X236101Y196663D01*
X236794Y194530D01*
X237812Y192531D01*
X239131Y190717D01*
X239570Y190277D01*
X249293Y200000D01*
X239570Y209723D01*
D02*
G37*
G36*
X390572Y196846D02*
X389428D01*
X388322Y196550D01*
X387331Y195978D01*
X386522Y195169D01*
X385950Y194178D01*
X385653Y193072D01*
Y191928D01*
X385950Y190822D01*
X386522Y189831D01*
X387331Y189022D01*
X388322Y188450D01*
X389428Y188154D01*
X390572D01*
X391678Y188450D01*
X392669Y189022D01*
X393478Y189831D01*
X394050Y190822D01*
X394346Y191928D01*
Y193072D01*
X394050Y194178D01*
X393478Y195169D01*
X392669Y195978D01*
X391678Y196550D01*
X390572Y196846D01*
D02*
G37*
G36*
X450000Y199293D02*
X440277Y189570D01*
X440717Y189131D01*
X442531Y187812D01*
X444530Y186794D01*
X446663Y186101D01*
X448878Y185750D01*
X451122D01*
X453337Y186101D01*
X455470Y186794D01*
X457469Y187812D01*
X459283Y189131D01*
X459723Y189570D01*
X450000Y199293D01*
D02*
G37*
G36*
X250000D02*
X240277Y189570D01*
X240717Y189131D01*
X242531Y187812D01*
X244530Y186794D01*
X246663Y186101D01*
X248879Y185750D01*
X251121D01*
X253337Y186101D01*
X255470Y186794D01*
X257469Y187812D01*
X259283Y189131D01*
X259723Y189570D01*
X250000Y199293D01*
D02*
G37*
G36*
X374777Y197890D02*
X373223D01*
X371699Y197587D01*
X370263Y196992D01*
X368971Y196128D01*
X367872Y195029D01*
X367008Y193737D01*
X366413Y192301D01*
X366110Y190777D01*
Y189223D01*
X366413Y187699D01*
X367008Y186263D01*
X367872Y184971D01*
X368971Y183872D01*
X370263Y183008D01*
X371699Y182413D01*
X373223Y182110D01*
X374777D01*
X376301Y182413D01*
X377737Y183008D01*
X379029Y183872D01*
X380128Y184971D01*
X380992Y186263D01*
X381587Y187699D01*
X381890Y189223D01*
Y190777D01*
X381587Y192301D01*
X380992Y193737D01*
X380128Y195029D01*
X379029Y196128D01*
X377737Y196992D01*
X376301Y197587D01*
X374777Y197890D01*
D02*
G37*
G36*
X327277D02*
X325723D01*
X324199Y197587D01*
X322763Y196992D01*
X321471Y196128D01*
X320372Y195029D01*
X319508Y193737D01*
X318913Y192301D01*
X318610Y190777D01*
Y189223D01*
X318913Y187699D01*
X319508Y186263D01*
X320372Y184971D01*
X321471Y183872D01*
X322763Y183008D01*
X324199Y182413D01*
X325723Y182110D01*
X327277D01*
X328801Y182413D01*
X330237Y183008D01*
X331529Y183872D01*
X332628Y184971D01*
X333492Y186263D01*
X334087Y187699D01*
X334390Y189223D01*
Y190777D01*
X334087Y192301D01*
X333492Y193737D01*
X332628Y195029D01*
X331529Y196128D01*
X330237Y196992D01*
X328801Y197587D01*
X327277Y197890D01*
D02*
G37*
G36*
X390527Y183843D02*
X389473D01*
X388456Y183570D01*
X387544Y183043D01*
X387525Y183025D01*
X390000Y180550D01*
X392475Y183025D01*
X392456Y183043D01*
X391544Y183570D01*
X390527Y183843D01*
D02*
G37*
G36*
X386818Y182317D02*
X386799Y182299D01*
X386273Y181386D01*
X386000Y180369D01*
Y179316D01*
X386273Y178299D01*
X386799Y177386D01*
X386818Y177368D01*
X389293Y179843D01*
X386818Y182317D01*
D02*
G37*
G36*
X393182D02*
X390707Y179843D01*
X393182Y177368D01*
X393201Y177386D01*
X393727Y178299D01*
X394000Y179316D01*
Y180369D01*
X393727Y181386D01*
X393201Y182299D01*
X393182Y182317D01*
D02*
G37*
G36*
X313182D02*
X310707Y179843D01*
X313182Y177368D01*
X313201Y177386D01*
X313727Y178299D01*
X314000Y179316D01*
Y180369D01*
X313727Y181386D01*
X313201Y182299D01*
X313182Y182317D01*
D02*
G37*
G36*
X390000Y179136D02*
X387525Y176661D01*
X387544Y176642D01*
X388456Y176115D01*
X389473Y175843D01*
X390527D01*
X391544Y176115D01*
X392456Y176642D01*
X392475Y176661D01*
X390000Y179136D01*
D02*
G37*
G36*
X360435Y164972D02*
X359250D01*
X358106Y164666D01*
X357080Y164073D01*
X356242Y163235D01*
X356024Y162859D01*
X355815Y162785D01*
X354027D01*
X353818Y162859D01*
X353601Y163235D01*
X353536Y163301D01*
X350707Y160472D01*
X353536Y157644D01*
X353601Y157709D01*
X353818Y158086D01*
X354027Y158160D01*
X355815D01*
X356024Y158086D01*
X356242Y157709D01*
X357080Y156871D01*
X358106Y156279D01*
X359250Y155972D01*
X360435D01*
X361579Y156279D01*
X362606Y156871D01*
X363443Y157709D01*
X364036Y158736D01*
X364342Y159880D01*
Y161065D01*
X364036Y162209D01*
X363443Y163235D01*
X362606Y164073D01*
X361579Y164666D01*
X360435Y164972D01*
D02*
G37*
G36*
X350592D02*
X349408D01*
X348263Y164666D01*
X347237Y164073D01*
X347172Y164008D01*
X350000Y161179D01*
X352828Y164008D01*
X352763Y164073D01*
X351737Y164666D01*
X350592Y164972D01*
D02*
G37*
G36*
X340750D02*
X339565D01*
X338421Y164666D01*
X337394Y164073D01*
X336557Y163235D01*
X335964Y162209D01*
X335658Y161065D01*
Y159880D01*
X335964Y158736D01*
X336557Y157709D01*
X337394Y156871D01*
X338421Y156279D01*
X339565Y155972D01*
X340750D01*
X341894Y156279D01*
X342920Y156871D01*
X343758Y157709D01*
X343976Y158086D01*
X344185Y158160D01*
X345973D01*
X346182Y158086D01*
X346399Y157709D01*
X346464Y157644D01*
X349293Y160472D01*
X346464Y163301D01*
X346399Y163235D01*
X346182Y162859D01*
X345973Y162785D01*
X344185D01*
X343976Y162859D01*
X343758Y163235D01*
X342920Y164073D01*
X341894Y164666D01*
X340750Y164972D01*
D02*
G37*
G36*
X390527Y164157D02*
X389473D01*
X388456Y163885D01*
X387544Y163358D01*
X386799Y162613D01*
X386273Y161701D01*
X386000Y160684D01*
Y159631D01*
X386273Y158614D01*
X386799Y157701D01*
X387544Y156957D01*
X388456Y156430D01*
X389473Y156157D01*
X390527D01*
X391544Y156430D01*
X392456Y156957D01*
X393201Y157701D01*
X393727Y158614D01*
X394000Y159631D01*
Y160684D01*
X393727Y161701D01*
X393201Y162613D01*
X392456Y163358D01*
X391544Y163885D01*
X390527Y164157D01*
D02*
G37*
G36*
X350000Y159765D02*
X347172Y156937D01*
X347237Y156871D01*
X348263Y156279D01*
X349408Y155972D01*
X350592D01*
X351737Y156279D01*
X352763Y156871D01*
X352828Y156937D01*
X350000Y159765D01*
D02*
G37*
G36*
X493072Y161846D02*
X491928D01*
X490822Y161550D01*
X489831Y160978D01*
X489022Y160169D01*
X488450Y159178D01*
X488154Y158072D01*
Y156928D01*
X488450Y155822D01*
X489022Y154831D01*
X489831Y154022D01*
X490822Y153450D01*
X491928Y153154D01*
X493072D01*
X494178Y153450D01*
X495169Y154022D01*
X495978Y154831D01*
X496550Y155822D01*
X496846Y156928D01*
Y158072D01*
X496550Y159178D01*
X495978Y160169D01*
X495169Y160978D01*
X494178Y161550D01*
X493072Y161846D01*
D02*
G37*
G36*
X641121Y74250D02*
X638878D01*
X636663Y73899D01*
X634530Y73206D01*
X632531Y72188D01*
X630717Y70869D01*
X630277Y70430D01*
X640000Y60707D01*
X649723Y70430D01*
X649283Y70869D01*
X647469Y72188D01*
X645470Y73206D01*
X643337Y73899D01*
X641121Y74250D01*
D02*
G37*
G36*
X61121D02*
X58878D01*
X56663Y73899D01*
X54530Y73206D01*
X52531Y72188D01*
X50717Y70869D01*
X50277Y70430D01*
X60000Y60707D01*
X69723Y70430D01*
X69283Y70869D01*
X67469Y72188D01*
X65470Y73206D01*
X63337Y73899D01*
X61121Y74250D01*
D02*
G37*
G36*
X650430Y69723D02*
X640707Y60000D01*
X650430Y50277D01*
X650869Y50717D01*
X652188Y52531D01*
X653206Y54530D01*
X653899Y56663D01*
X654250Y58878D01*
Y61121D01*
X653899Y63337D01*
X653206Y65470D01*
X652188Y67469D01*
X650869Y69283D01*
X650430Y69723D01*
D02*
G37*
G36*
X70430D02*
X60707Y60000D01*
X70430Y50277D01*
X70869Y50717D01*
X72188Y52531D01*
X73206Y54530D01*
X73899Y56663D01*
X74250Y58878D01*
Y61121D01*
X73899Y63337D01*
X73206Y65470D01*
X72188Y67469D01*
X70869Y69283D01*
X70430Y69723D01*
D02*
G37*
G36*
X629570D02*
X629131Y69283D01*
X627812Y67469D01*
X626794Y65470D01*
X626101Y63337D01*
X625750Y61121D01*
Y58878D01*
X626101Y56663D01*
X626794Y54530D01*
X627812Y52531D01*
X629131Y50717D01*
X629570Y50277D01*
X639293Y60000D01*
X629570Y69723D01*
D02*
G37*
G36*
X49570D02*
X49131Y69283D01*
X47812Y67469D01*
X46794Y65470D01*
X46101Y63337D01*
X45750Y61121D01*
Y58878D01*
X46101Y56663D01*
X46794Y54530D01*
X47812Y52531D01*
X49131Y50717D01*
X49570Y50277D01*
X59293Y60000D01*
X49570Y69723D01*
D02*
G37*
G36*
X640000Y59293D02*
X630277Y49570D01*
X630717Y49131D01*
X632531Y47812D01*
X634530Y46794D01*
X636663Y46101D01*
X638878Y45750D01*
X641121D01*
X643337Y46101D01*
X645470Y46794D01*
X647469Y47812D01*
X649283Y49131D01*
X649723Y49570D01*
X640000Y59293D01*
D02*
G37*
G36*
X60000D02*
X50277Y49570D01*
X50717Y49131D01*
X52531Y47812D01*
X54530Y46794D01*
X56663Y46101D01*
X58878Y45750D01*
X61121D01*
X63337Y46101D01*
X65470Y46794D01*
X67469Y47812D01*
X69283Y49131D01*
X69723Y49570D01*
X60000Y59293D01*
D02*
G37*
G36*
X305572Y99347D02*
X304428D01*
X303322Y99050D01*
X302331Y98478D01*
X301522Y97669D01*
X300950Y96678D01*
X300654Y95572D01*
Y94428D01*
X300950Y93322D01*
X301522Y92331D01*
X302331Y91522D01*
X303322Y90950D01*
X304428Y90654D01*
X305572D01*
X306678Y90950D01*
X307669Y91522D01*
X308478Y92331D01*
X309050Y93322D01*
X309347Y94428D01*
Y95572D01*
X309050Y96678D01*
X308478Y97669D01*
X307669Y98478D01*
X306678Y99050D01*
X305572Y99347D01*
D02*
G37*
G36*
X305527Y83843D02*
X304473D01*
X303456Y83570D01*
X302544Y83043D01*
X302525Y83025D01*
X305000Y80550D01*
X307475Y83025D01*
X307456Y83043D01*
X306544Y83570D01*
X305527Y83843D01*
D02*
G37*
G36*
X308182Y82318D02*
X305707Y79843D01*
X308182Y77368D01*
X308201Y77386D01*
X308727Y78299D01*
X309000Y79316D01*
Y80369D01*
X308727Y81387D01*
X308201Y82299D01*
X308182Y82318D01*
D02*
G37*
G36*
X301818D02*
X301799Y82299D01*
X301273Y81387D01*
X301000Y80369D01*
Y79316D01*
X301273Y78299D01*
X301799Y77386D01*
X301818Y77368D01*
X304293Y79843D01*
X301818Y82318D01*
D02*
G37*
G36*
X305000Y79136D02*
X302525Y76661D01*
X302544Y76642D01*
X303456Y76115D01*
X304473Y75843D01*
X305527D01*
X306544Y76115D01*
X307456Y76642D01*
X307475Y76661D01*
X305000Y79136D01*
D02*
G37*
G36*
X360000Y82190D02*
X358597Y82052D01*
X357248Y81643D01*
X356005Y80978D01*
X354916Y80084D01*
X354022Y78995D01*
X353357Y77751D01*
X352948Y76403D01*
X352810Y75000D01*
X352948Y73597D01*
X353357Y72249D01*
X354022Y71005D01*
X354916Y69916D01*
X356005Y69022D01*
X357248Y68357D01*
X358597Y67948D01*
X360000Y67810D01*
X361403Y67948D01*
X362752Y68357D01*
X363995Y69022D01*
X365084Y69916D01*
X365978Y71005D01*
X366643Y72249D01*
X367052Y73597D01*
X367190Y75000D01*
X367052Y76403D01*
X366643Y77751D01*
X365978Y78995D01*
X365084Y80084D01*
X363995Y80978D01*
X362752Y81643D01*
X361403Y82052D01*
X360000Y82190D01*
D02*
G37*
G36*
X476122Y74250D02*
X473878D01*
X471663Y73899D01*
X469530Y73206D01*
X467531Y72188D01*
X465717Y70869D01*
X465277Y70430D01*
X475000Y60707D01*
X484723Y70430D01*
X484283Y70869D01*
X482469Y72188D01*
X480470Y73206D01*
X478337Y73899D01*
X476122Y74250D01*
D02*
G37*
G36*
X226121D02*
X223879D01*
X221663Y73899D01*
X219530Y73206D01*
X217531Y72188D01*
X215717Y70869D01*
X215277Y70430D01*
X225000Y60707D01*
X234723Y70430D01*
X234283Y70869D01*
X232469Y72188D01*
X230470Y73206D01*
X228337Y73899D01*
X226121Y74250D01*
D02*
G37*
G36*
X305527Y64157D02*
X304473D01*
X303456Y63885D01*
X302544Y63358D01*
X301799Y62613D01*
X301273Y61701D01*
X301000Y60684D01*
Y59631D01*
X301273Y58614D01*
X301799Y57701D01*
X302544Y56957D01*
X303456Y56430D01*
X304473Y56157D01*
X305527D01*
X306544Y56430D01*
X307456Y56957D01*
X308201Y57701D01*
X308727Y58614D01*
X309000Y59631D01*
Y60684D01*
X308727Y61701D01*
X308201Y62613D01*
X307456Y63358D01*
X306544Y63885D01*
X305527Y64157D01*
D02*
G37*
G36*
X370000Y59640D02*
X368799Y59482D01*
X367680Y59018D01*
X366719Y58281D01*
X365982Y57320D01*
X365518Y56201D01*
X365360Y55000D01*
X365518Y53799D01*
X365982Y52680D01*
X366719Y51719D01*
X367680Y50982D01*
X368799Y50518D01*
X370000Y50360D01*
X371201Y50518D01*
X372320Y50982D01*
X373281Y51719D01*
X374018Y52680D01*
X374482Y53799D01*
X374640Y55000D01*
X374482Y56201D01*
X374018Y57320D01*
X373281Y58281D01*
X372320Y59018D01*
X371201Y59482D01*
X370000Y59640D01*
D02*
G37*
G36*
X485430Y69723D02*
X475707Y60000D01*
X485430Y50277D01*
X485869Y50717D01*
X487188Y52531D01*
X488206Y54530D01*
X488899Y56663D01*
X489250Y58878D01*
Y61121D01*
X488899Y63337D01*
X488206Y65470D01*
X487188Y67469D01*
X485869Y69283D01*
X485430Y69723D01*
D02*
G37*
G36*
X235430D02*
X225707Y60000D01*
X235430Y50277D01*
X235869Y50717D01*
X237188Y52531D01*
X238206Y54530D01*
X238899Y56663D01*
X239250Y58878D01*
Y61121D01*
X238899Y63337D01*
X238206Y65470D01*
X237188Y67469D01*
X235869Y69283D01*
X235430Y69723D01*
D02*
G37*
G36*
X464570D02*
X464131Y69283D01*
X462812Y67469D01*
X461794Y65470D01*
X461101Y63337D01*
X460750Y61121D01*
Y58878D01*
X461101Y56663D01*
X461794Y54530D01*
X462812Y52531D01*
X464131Y50717D01*
X464570Y50277D01*
X474293Y60000D01*
X464570Y69723D01*
D02*
G37*
G36*
X214570D02*
X214131Y69283D01*
X212812Y67469D01*
X211794Y65470D01*
X211101Y63337D01*
X210750Y61121D01*
Y58878D01*
X211101Y56663D01*
X211794Y54530D01*
X212812Y52531D01*
X214131Y50717D01*
X214570Y50277D01*
X224293Y60000D01*
X214570Y69723D01*
D02*
G37*
G36*
X335000Y72190D02*
X333597Y72052D01*
X332248Y71643D01*
X331005Y70978D01*
X329916Y70084D01*
X329022Y68995D01*
X328357Y67751D01*
X327948Y66403D01*
X327810Y65000D01*
X327948Y63597D01*
X328357Y62248D01*
X328761Y61494D01*
X328769Y61056D01*
X328471Y60029D01*
X327968Y59137D01*
X327680Y59018D01*
X326719Y58281D01*
X325982Y57320D01*
X325518Y56201D01*
X325360Y55000D01*
X325518Y53799D01*
X325982Y52680D01*
X326719Y51719D01*
X327680Y50982D01*
X328799Y50518D01*
X330000Y50360D01*
X331201Y50518D01*
X332320Y50982D01*
X333281Y51719D01*
X334018Y52680D01*
X334482Y53799D01*
X334640Y55000D01*
X334528Y55847D01*
X334631Y56274D01*
X334763Y56529D01*
X335942Y57903D01*
X336403Y57948D01*
X337752Y58357D01*
X338995Y59022D01*
X340084Y59916D01*
X341633Y58650D01*
X341552Y58499D01*
X341032Y56784D01*
X340856Y55000D01*
X341032Y53216D01*
X341552Y51501D01*
X342397Y49920D01*
X343534Y48534D01*
X344920Y47397D01*
X346501Y46552D01*
X348216Y46032D01*
X350000Y45856D01*
X351784Y46032D01*
X353499Y46552D01*
X355080Y47397D01*
X356466Y48534D01*
X357603Y49920D01*
X358448Y51501D01*
X358968Y53216D01*
X359144Y55000D01*
X358968Y56784D01*
X358448Y58499D01*
X357603Y60080D01*
X356466Y61466D01*
X355080Y62603D01*
X353499Y63448D01*
X351784Y63968D01*
X350000Y64144D01*
X348216Y63968D01*
X346501Y63448D01*
X344920Y62603D01*
X343534Y61466D01*
X343407Y61311D01*
X341643Y62248D01*
X342052Y63597D01*
X342190Y65000D01*
X342052Y66403D01*
X341643Y67751D01*
X340978Y68995D01*
X340084Y70084D01*
X338995Y70978D01*
X337752Y71643D01*
X336403Y72052D01*
X335000Y72190D01*
D02*
G37*
G36*
X475000Y59293D02*
X465277Y49570D01*
X465717Y49131D01*
X467531Y47812D01*
X469530Y46794D01*
X471663Y46101D01*
X473878Y45750D01*
X476122D01*
X478337Y46101D01*
X480470Y46794D01*
X482469Y47812D01*
X484283Y49131D01*
X484723Y49570D01*
X475000Y59293D01*
D02*
G37*
G36*
X225000D02*
X215277Y49570D01*
X215717Y49131D01*
X217531Y47812D01*
X219530Y46794D01*
X221663Y46101D01*
X223879Y45750D01*
X226121D01*
X228337Y46101D01*
X230470Y46794D01*
X232469Y47812D01*
X234283Y49131D01*
X234723Y49570D01*
X225000Y59293D01*
D02*
G37*
%LPD*%
D10*
X192500Y370000D02*
X197843D01*
X208000Y359843D01*
X212799Y337201D02*
Y355043D01*
X208000Y359843D02*
X212799Y355043D01*
X599081Y257581D02*
Y260346D01*
X576385Y234885D02*
X599081Y257581D01*
X576385Y234000D02*
Y234885D01*
X610919Y262677D02*
Y264654D01*
X545919Y224655D02*
X572897D01*
X610919Y262677D01*
X231000Y175000D02*
Y304000D01*
X230000Y305000D02*
X231000Y304000D01*
X84951Y260525D02*
X89081Y264654D01*
X84951Y100049D02*
X150000Y35000D01*
X84951Y100049D02*
Y260525D01*
X165000Y167310D02*
Y206000D01*
Y219426D01*
X372500Y232500D02*
X390000D01*
X340000Y265000D02*
X372500Y232500D01*
X340000Y265000D02*
Y295000D01*
X332500Y305000D02*
X357500Y330000D01*
X332500Y262500D02*
Y305000D01*
X320000Y250000D02*
X332500Y262500D01*
X300000Y250000D02*
X320000D01*
X212799Y337201D02*
X300000Y250000D01*
X310000Y235000D02*
X340000Y265000D01*
X231294Y313706D02*
X310000Y235000D01*
X208794Y313706D02*
X231294D01*
X208794Y293160D02*
Y313706D01*
X192500Y330000D02*
X208794Y313706D01*
X189340Y333160D02*
X192500Y330000D01*
X143794Y333160D02*
X189340D01*
X304854Y229854D02*
X310000Y235000D01*
X304854Y135146D02*
Y229854D01*
Y135146D02*
X305000Y135000D01*
X357500Y330000D02*
X380000D01*
X492500Y117500D02*
X500000Y110000D01*
X489854Y285146D02*
X490000Y285000D01*
X385146Y285146D02*
X489854D01*
X490000Y285000D02*
X545000Y247000D01*
X380000Y280000D02*
X385146Y285146D01*
X545000Y225574D02*
Y247000D01*
Y225574D02*
X545919Y224655D01*
X560000Y210574D01*
Y73000D02*
Y210574D01*
X511000Y24000D02*
X560000Y73000D01*
X499701Y24000D02*
X511000D01*
X493701Y30000D02*
X499701Y24000D01*
X488701Y35000D02*
X493701Y30000D01*
X348701Y35000D02*
X488701D01*
X499299Y37000D02*
X500000Y36299D01*
X222000Y37000D02*
X499299D01*
X220000Y35000D02*
X222000Y37000D01*
X343701Y30000D02*
X348701Y35000D01*
X150000D02*
X220000D01*
X500000Y36299D02*
X506299Y30000D01*
X165000Y219426D02*
X165919Y220345D01*
X117500Y205000D02*
X165000Y167310D01*
Y90000D02*
Y167310D01*
Y90000D02*
X215000Y40000D01*
X137500Y195000D02*
Y208074D01*
X154081Y224655D01*
X100919Y254081D02*
X117500Y237500D01*
Y205000D02*
Y237500D01*
X100919Y254081D02*
Y260346D01*
X29854Y122646D02*
Y274854D01*
Y122646D02*
X122500Y30000D01*
X29854Y274854D02*
X35000Y280000D01*
X275000Y120000D02*
X477500D01*
X167500Y227500D02*
X275000Y120000D01*
X156926Y227500D02*
X167500D01*
X154081Y224655D02*
X156926Y227500D01*
X206299Y30000D02*
X225000D01*
X198701Y25000D02*
X351299D01*
X193701Y30000D02*
X198701Y25000D01*
X351299D02*
X356299Y30000D01*
X534081Y218419D02*
X555000Y197500D01*
X122500Y30000D02*
X193701D01*
X500000Y36299D02*
Y110000D01*
X477500Y120000D02*
X555000Y197500D01*
X460000Y280000D02*
X519654Y220346D01*
X534081D01*
Y218419D02*
Y220346D01*
X366299Y20000D02*
X630000D01*
X356299Y30000D02*
X366299Y20000D01*
D26*
X193701Y30000D02*
D03*
X356299D02*
D03*
X206299D02*
D03*
X343701D02*
D03*
X506299D02*
D03*
X493701D02*
D03*
D27*
X89081Y264654D02*
D03*
X100919Y260346D02*
D03*
X154081Y224655D02*
D03*
X165919Y220345D02*
D03*
D28*
X545919Y224655D02*
D03*
X534081Y220346D02*
D03*
X599081Y260346D02*
D03*
X610919Y264654D02*
D03*
D29*
X89556Y291840D02*
G03*
X89556Y291840I-3350J0D01*
G01*
X112850Y285000D02*
G03*
X112850Y285000I-7850J0D01*
G01*
X127143Y300374D02*
G03*
X127143Y300374I-5906J0D01*
G01*
X100230Y299527D02*
G03*
X100230Y299527I-5906J0D01*
G01*
X127144Y278160D02*
G03*
X127144Y278160I-3350J0D01*
G01*
X473350Y350000D02*
G03*
X473350Y350000I-3350J0D01*
G01*
X440906Y360000D02*
G03*
X440906Y360000I-5906J0D01*
G01*
X465906Y370000D02*
G03*
X465906Y370000I-5906J0D01*
G01*
X457850Y350000D02*
G03*
X457850Y350000I-7850J0D01*
G01*
X433350D02*
G03*
X433350Y350000I-3350J0D01*
G01*
X273350D02*
G03*
X273350Y350000I-3350J0D01*
G01*
X240905Y360000D02*
G03*
X240905Y360000I-5906J0D01*
G01*
X265905Y370000D02*
G03*
X265905Y370000I-5906J0D01*
G01*
X257850Y350000D02*
G03*
X257850Y350000I-7850J0D01*
G01*
X233350D02*
G03*
X233350Y350000I-3350J0D01*
G01*
X373350Y55000D02*
G03*
X373350Y55000I-3350J0D01*
G01*
X340905Y65000D02*
G03*
X340905Y65000I-5906J0D01*
G01*
X365905Y75000D02*
G03*
X365905Y75000I-5906J0D01*
G01*
X357850Y55000D02*
G03*
X357850Y55000I-7850J0D01*
G01*
X333350D02*
G03*
X333350Y55000I-3350J0D01*
G01*
X579556Y278160D02*
G03*
X579556Y278160I-3350J0D01*
G01*
X602850Y285000D02*
G03*
X602850Y285000I-7850J0D01*
G01*
X603462Y307214D02*
G03*
X603462Y307214I-5906J0D01*
G01*
X583390Y289267D02*
G03*
X583390Y289267I-5906J0D01*
G01*
X617144Y291840D02*
G03*
X617144Y291840I-3350J0D01*
G01*
X514556Y238160D02*
G03*
X514556Y238160I-3350J0D01*
G01*
X537850Y245000D02*
G03*
X537850Y245000I-7850J0D01*
G01*
X538462Y267214D02*
G03*
X538462Y267214I-5906J0D01*
G01*
X518390Y249267D02*
G03*
X518390Y249267I-5906J0D01*
G01*
X552144Y251840D02*
G03*
X552144Y251840I-3350J0D01*
G01*
X192144Y238160D02*
G03*
X192144Y238160I-3350J0D01*
G01*
X165230Y259527D02*
G03*
X165230Y259527I-5906J0D01*
G01*
X192143Y260374D02*
G03*
X192143Y260374I-5906J0D01*
G01*
X177850Y245000D02*
G03*
X177850Y245000I-7850J0D01*
G01*
X154556Y251840D02*
G03*
X154556Y251840I-3350J0D01*
G01*
D30*
X320000Y290000D02*
D03*
X380000Y340000D02*
D03*
X320000Y310000D02*
D03*
Y300000D02*
D03*
Y280000D02*
D03*
Y390000D02*
D03*
Y380000D02*
D03*
Y370000D02*
D03*
Y360000D02*
D03*
Y350000D02*
D03*
Y340000D02*
D03*
Y330000D02*
D03*
Y320000D02*
D03*
Y270000D02*
D03*
Y260000D02*
D03*
X380000Y390000D02*
D03*
Y380000D02*
D03*
Y370000D02*
D03*
Y360000D02*
D03*
Y350000D02*
D03*
Y330000D02*
D03*
Y320000D02*
D03*
Y310000D02*
D03*
Y300000D02*
D03*
Y290000D02*
D03*
Y280000D02*
D03*
Y270000D02*
D03*
Y260000D02*
D03*
D31*
X35000Y280000D02*
D03*
X230000Y305000D02*
D03*
X270000D02*
D03*
X35000Y240000D02*
D03*
X460000Y280000D02*
D03*
X556206Y333160D02*
D03*
X492500Y157500D02*
D03*
Y117500D02*
D03*
X420000Y280000D02*
D03*
Y310000D02*
D03*
X460000D02*
D03*
X593794Y346840D02*
D03*
X528794Y306840D02*
D03*
X491206Y293160D02*
D03*
X305000Y95000D02*
D03*
Y135000D02*
D03*
X390000Y192500D02*
D03*
Y232500D02*
D03*
X310000Y195000D02*
D03*
Y235000D02*
D03*
X340000Y255000D02*
D03*
Y295000D02*
D03*
X192500Y370000D02*
D03*
Y330000D02*
D03*
X171206Y306840D02*
D03*
X208794Y293160D02*
D03*
X106206Y346840D02*
D03*
X143794Y333160D02*
D03*
D32*
X123794Y278160D02*
D03*
X188794Y238160D02*
D03*
D33*
X94325Y299527D02*
D03*
X105000Y285000D02*
D03*
X86206Y291840D02*
D03*
X121237Y300374D02*
D03*
X208000Y359843D02*
D03*
Y340157D02*
D03*
X570751Y321634D02*
D03*
X589249Y328366D02*
D03*
X505751Y281634D02*
D03*
X524249Y288366D02*
D03*
X407500Y342657D02*
D03*
Y362343D02*
D03*
X305000Y79843D02*
D03*
Y60157D02*
D03*
X390000Y160157D02*
D03*
Y179843D02*
D03*
X310000Y160157D02*
D03*
Y179843D02*
D03*
X359843Y235000D02*
D03*
X340157D02*
D03*
X194249Y281634D02*
D03*
X175751Y288366D02*
D03*
X129249Y321634D02*
D03*
X110751Y328366D02*
D03*
X430000Y350000D02*
D03*
X450000D02*
D03*
X435000Y360000D02*
D03*
X460000Y370000D02*
D03*
X230000Y350000D02*
D03*
X250000D02*
D03*
X235000Y360000D02*
D03*
X260000Y370000D02*
D03*
X330000Y55000D02*
D03*
X350000D02*
D03*
X335000Y65000D02*
D03*
X360000Y75000D02*
D03*
X597556Y307214D02*
D03*
X577485Y289267D02*
D03*
X595000Y285000D02*
D03*
X576206Y278160D02*
D03*
X532556Y267214D02*
D03*
X512485Y249267D02*
D03*
X530000Y245000D02*
D03*
X511206Y238160D02*
D03*
X151206Y251840D02*
D03*
X170000Y245000D02*
D03*
X159325Y259527D02*
D03*
X186237Y260374D02*
D03*
D34*
X359842Y160472D02*
D03*
X350000D02*
D03*
X340158D02*
D03*
X359842Y217559D02*
D03*
X340158D02*
D03*
D35*
X374000Y190000D02*
D03*
X326500D02*
D03*
D36*
X475000Y60000D02*
D03*
X600000Y225000D02*
D03*
X640000Y60000D02*
D03*
X60000D02*
D03*
X225000D02*
D03*
X100000Y225000D02*
D03*
X125000Y375000D02*
D03*
X250000Y200000D02*
D03*
X450000D02*
D03*
X550000Y375000D02*
D03*
D37*
X470000Y350000D02*
D03*
X270000D02*
D03*
X370000Y55000D02*
D03*
D38*
X613794Y291840D02*
D03*
X548794Y251840D02*
D03*
D39*
X576385Y234000D02*
D03*
X231000Y175000D02*
D03*
X165000Y206000D02*
D03*
X137500Y195000D02*
D03*
X225000Y30000D02*
D03*
X215000Y40000D02*
D03*
X150000Y35000D02*
D03*
X555000Y197500D02*
D03*
X630000Y20000D02*
D03*
M02*
