G04*
G04 #@! TF.GenerationSoftware,Altium Limited,CircuitMaker,2.1.0 (2.1.0.4)*
G04*
G04 Layer_Color=16770453*
%FSLAX25Y25*%
%MOIN*%
G70*
G04*
G04 #@! TF.SameCoordinates,28D2FB88-65ED-4333-9925-A9BECD5D763D*
G04*
G04*
G04 #@! TF.FilePolarity,Positive*
G04*
G01*
G75*
%ADD26R,0.05905X0.05905*%
%ADD40P,0.08352X4X180.0*%
%ADD41R,0.05905X0.05905*%
%ADD42P,0.08352X4X90.0*%
%ADD43P,0.14142X4X385.0*%
%ADD44P,0.14142X4X65.0*%
%ADD45R,0.10000X0.10000*%
D26*
X181299Y20000D02*
D03*
X343701D02*
D03*
X356299D02*
D03*
X518701D02*
D03*
X531299D02*
D03*
X168701D02*
D03*
D40*
X40546Y49454D02*
D03*
X49454Y40546D02*
D03*
D41*
X20000Y176299D02*
D03*
Y321299D02*
D03*
Y308701D02*
D03*
X680000Y176299D02*
D03*
Y163701D02*
D03*
Y308701D02*
D03*
Y321299D02*
D03*
X20000Y163701D02*
D03*
D42*
X650546Y40546D02*
D03*
X659454Y49454D02*
D03*
D43*
X133453Y295927D02*
D03*
X82109Y303974D02*
D03*
X147109Y263973D02*
D03*
X198453Y255927D02*
D03*
D44*
X565268Y284820D02*
D03*
X609773Y311660D02*
D03*
X544773Y271660D02*
D03*
X500268Y244820D02*
D03*
D45*
X422000Y360000D02*
D03*
X473000Y370000D02*
D03*
X222000Y360000D02*
D03*
X273000Y370000D02*
D03*
X322000Y65000D02*
D03*
X373000Y75000D02*
D03*
M02*
