G04*
G04 #@! TF.GenerationSoftware,Altium Limited,CircuitMaker,2.1.0 (2.1.0.4)*
G04*
G04 Layer_Physical_Order=2*
G04 Layer_Color=11436288*
%FSLAX25Y25*%
%MOIN*%
G70*
G04*
G04 #@! TF.SameCoordinates,28D2FB88-65ED-4333-9925-A9BECD5D763D*
G04*
G04*
G04 #@! TF.FilePolarity,Positive*
G04*
G01*
G75*
%ADD10C,0.01000*%
%ADD26R,0.05905X0.05905*%
%ADD29C,0.00500*%
%ADD30C,0.07400*%
%ADD31C,0.06693*%
G04:AMPARAMS|DCode=32|XSize=66.93mil|YSize=60mil|CornerRadius=0mil|HoleSize=0mil|Usage=FLASHONLY|Rotation=340.000|XOffset=0mil|YOffset=0mil|HoleType=Round|Shape=Round|*
%AMOVALD32*
21,1,0.00693,0.06000,0.00000,0.00000,340.0*
1,1,0.06000,-0.00326,0.00119*
1,1,0.06000,0.00326,-0.00119*
%
%ADD32OVALD32*%

%ADD33C,0.06000*%
%ADD34C,0.07000*%
%ADD35C,0.13780*%
%ADD36C,0.26500*%
%ADD37O,0.06693X0.06000*%
G04:AMPARAMS|DCode=38|XSize=66.93mil|YSize=60mil|CornerRadius=0mil|HoleSize=0mil|Usage=FLASHONLY|Rotation=20.000|XOffset=0mil|YOffset=0mil|HoleType=Round|Shape=Round|*
%AMOVALD38*
21,1,0.00693,0.06000,0.00000,0.00000,20.0*
1,1,0.06000,-0.00326,-0.00119*
1,1,0.06000,0.00326,0.00119*
%
%ADD38OVALD38*%

%ADD39C,0.03000*%
%ADD40P,0.08352X4X180.0*%
%ADD41R,0.05905X0.05905*%
%ADD42P,0.08352X4X90.0*%
%ADD43P,0.14142X4X385.0*%
%ADD44P,0.14142X4X65.0*%
%ADD45R,0.10000X0.10000*%
G36*
X310000Y390000D02*
X316677Y383323D01*
X316239Y382886D01*
X315620Y381814D01*
X315300Y380619D01*
Y379381D01*
X315508Y378607D01*
X315620Y378186D01*
X316239Y376353D01*
Y373647D01*
X315620Y371814D01*
X315508Y371393D01*
X315300Y370619D01*
Y369381D01*
X315508Y368607D01*
X315620Y368186D01*
X316239Y366353D01*
Y363647D01*
X315620Y361814D01*
X315508Y361393D01*
X315300Y360619D01*
Y359381D01*
X315508Y358607D01*
X315620Y358186D01*
X316239Y356353D01*
Y353647D01*
X315620Y351814D01*
X315508Y351393D01*
X315300Y350619D01*
X315300Y349381D01*
X315300Y349381D01*
X315620Y348186D01*
X315626Y347788D01*
X315450Y347613D01*
X284366Y316529D01*
X282228Y316529D01*
X179406D01*
X168649Y316529D01*
X167958D01*
X163161Y316529D01*
X139637D01*
X136662Y316529D01*
X135359Y317631D01*
X133962Y319644D01*
X133255Y321529D01*
X133280Y321810D01*
X133280Y321810D01*
X133097Y322847D01*
X133097Y322847D01*
X133086Y322871D01*
X129460Y321180D01*
X129249Y321634D01*
X128796Y321422D01*
X127105Y325047D01*
X127081Y325036D01*
X127081Y325036D01*
X126274Y324359D01*
X126274D01*
X125670Y323497D01*
X125453Y322899D01*
X122533Y321406D01*
X121666Y321063D01*
X121651Y321058D01*
X120366Y320914D01*
X118331Y322949D01*
X114639Y326641D01*
X114690Y327493D01*
X114782Y328542D01*
X114782Y328542D01*
X114767Y328629D01*
X114599Y329580D01*
X114154Y330534D01*
X113623Y331166D01*
X113477Y331341D01*
X113477Y331341D01*
X112614Y331945D01*
X112614Y331945D01*
X111249Y332765D01*
X109677Y333709D01*
X109677Y333709D01*
X107736Y336759D01*
X107736Y336759D01*
X107736Y338690D01*
Y342432D01*
X108311Y342947D01*
X108562Y343143D01*
X109438Y343879D01*
X110095Y344816D01*
X110486Y345892D01*
X110586Y347032D01*
X110387Y348159D01*
X109904Y349196D01*
X109168Y350073D01*
X108230Y350729D01*
X107155Y351120D01*
X106015Y351220D01*
X104888Y351022D01*
X104888Y351022D01*
X103851Y350538D01*
X102974Y349802D01*
X102317Y348865D01*
X102052Y348135D01*
X102043Y348111D01*
Y348111D01*
X101926Y347789D01*
X101926Y347789D01*
X101826Y346649D01*
X102025Y345522D01*
X102509Y344485D01*
X103139Y343733D01*
X103212Y343647D01*
X103244Y343608D01*
X103244Y343608D01*
X104182Y342952D01*
X104677Y342504D01*
Y337778D01*
Y335024D01*
X104677Y332911D01*
X104793Y332326D01*
X104793Y332326D01*
X105068Y331703D01*
X103801Y328894D01*
X102928Y326956D01*
X99682Y323710D01*
X90402Y314430D01*
X87909Y311936D01*
X85204Y309232D01*
X84031Y309659D01*
X78523Y311664D01*
X74418Y300388D01*
X79553Y298519D01*
X79575Y298496D01*
X80226Y297416D01*
X81725Y293041D01*
X81566Y291840D01*
X81725Y290640D01*
X82188Y289521D01*
X82925Y288560D01*
X83886Y287822D01*
X85005Y287359D01*
X86206Y287201D01*
X87407Y287359D01*
X88526Y287822D01*
X89487Y288560D01*
X89634Y288751D01*
X91694Y289244D01*
X93219Y288379D01*
X95939Y285844D01*
X95856Y285000D01*
X96032Y283216D01*
X96552Y281501D01*
X97397Y279920D01*
X98534Y278534D01*
X99920Y277397D01*
X101501Y276552D01*
X103216Y276032D01*
X105000Y275856D01*
X106784Y276032D01*
X108499Y276552D01*
X110080Y277397D01*
X111466Y278534D01*
X112603Y279920D01*
X113448Y281501D01*
X113968Y283216D01*
X114144Y285000D01*
X113968Y286784D01*
X113448Y288499D01*
X112603Y290080D01*
X111466Y291466D01*
X110080Y292603D01*
X108499Y293448D01*
X106784Y293968D01*
X105000Y294144D01*
X104431Y294515D01*
X101838Y297580D01*
X101429Y298651D01*
X101515Y299527D01*
X101377Y300930D01*
X100968Y302279D01*
X100303Y303522D01*
X99409Y304611D01*
X98319Y305506D01*
X97076Y306170D01*
X95727Y306579D01*
X94460Y306704D01*
X93993Y306790D01*
X92304Y309260D01*
X92140Y309500D01*
X91645Y311347D01*
X93902Y313604D01*
X100279Y319980D01*
X103462Y323164D01*
X106145Y324474D01*
X108025Y325392D01*
X108266Y325223D01*
X108888Y324788D01*
X109878Y324428D01*
X110927Y324336D01*
X110927Y324336D01*
X111964Y324519D01*
X112431Y324524D01*
X117155Y319800D01*
X120498Y316456D01*
X123036Y313919D01*
X123532Y313587D01*
X124117Y313471D01*
X126722D01*
X131681D01*
X133288Y313471D01*
X137969D01*
X161409D01*
X164676Y313471D01*
X165646Y312391D01*
X166055Y311529D01*
X167132Y309256D01*
X167174Y308471D01*
X166926Y307789D01*
X166826Y306649D01*
X167025Y305522D01*
X167509Y304485D01*
X168244Y303608D01*
X169182Y302952D01*
X169972Y302331D01*
Y296392D01*
Y292065D01*
X168604Y287632D01*
X167290Y286317D01*
X163997Y283025D01*
X155968Y274996D01*
X152665Y271693D01*
X150204Y269232D01*
X149031Y269659D01*
X143523Y271664D01*
X139418Y260387D01*
X144553Y258519D01*
X144575Y258496D01*
X145226Y257416D01*
X146724Y253041D01*
X146566Y251840D01*
X146724Y250640D01*
X147188Y249521D01*
X147925Y248560D01*
X148886Y247822D01*
X150005Y247359D01*
X151206Y247201D01*
X152407Y247359D01*
X153526Y247822D01*
X154487Y248560D01*
X154634Y248751D01*
X156694Y249243D01*
X158219Y248379D01*
X160939Y245845D01*
X160856Y245000D01*
X161032Y243216D01*
X161552Y241501D01*
X162397Y239920D01*
X163534Y238534D01*
X164920Y237397D01*
X166501Y236552D01*
X168216Y236032D01*
X170000Y235856D01*
X171784Y236032D01*
X173499Y236552D01*
X175080Y237397D01*
X176466Y238534D01*
X177603Y239920D01*
X178448Y241501D01*
X178968Y243216D01*
X179144Y245000D01*
X178968Y246784D01*
X178448Y248499D01*
X177603Y250080D01*
X176466Y251466D01*
X175080Y252603D01*
X173499Y253448D01*
X171784Y253968D01*
X170000Y254144D01*
X169431Y254516D01*
X166838Y257580D01*
X166429Y258651D01*
X166515Y259527D01*
X166377Y260930D01*
X165968Y262279D01*
X165303Y263522D01*
X164409Y264611D01*
X163319Y265506D01*
X162076Y266170D01*
X160728Y266579D01*
X159460Y266704D01*
X158993Y266790D01*
X157304Y269260D01*
X157140Y269500D01*
X156903Y270383D01*
X156697Y271399D01*
X160038Y274740D01*
X164075Y278777D01*
X168462Y283164D01*
X173025Y285392D01*
X173266Y285223D01*
X173888Y284788D01*
X174878Y284427D01*
X174878Y284427D01*
X175927Y284336D01*
X175927Y284336D01*
X176964Y284519D01*
X176964Y284519D01*
X176964Y284519D01*
X177919Y284964D01*
X178658Y285584D01*
X178726Y285641D01*
Y285641D01*
X179279Y286432D01*
X179330Y286504D01*
X179330Y286504D01*
X179690Y287493D01*
X179782Y288542D01*
X179782Y288542D01*
X179766Y288629D01*
X179599Y289580D01*
X179154Y290534D01*
Y290534D01*
X178477Y291341D01*
X178477Y291341D01*
X178405Y291391D01*
X177614Y291945D01*
X176412Y292618D01*
X174972Y293424D01*
X174971Y293425D01*
X173031Y296772D01*
X173031Y296772D01*
X173031Y302649D01*
X173562Y303143D01*
X174438Y303879D01*
X174438Y303879D01*
X174458Y303906D01*
X175095Y304816D01*
X175486Y305892D01*
X175586Y307032D01*
X178471Y310291D01*
X179454Y310971D01*
X179638D01*
X222890D01*
X223705Y310229D01*
X223947Y309847D01*
X225760Y305971D01*
X225654Y305572D01*
Y304428D01*
X225950Y303322D01*
X226522Y302331D01*
X227331Y301522D01*
X228322Y300950D01*
X229428Y300654D01*
X230572D01*
X231678Y300950D01*
X232669Y301522D01*
X233478Y302331D01*
X234050Y303322D01*
X234347Y304428D01*
Y305572D01*
X234240Y305971D01*
X236053Y309847D01*
X236295Y310229D01*
X237110Y310971D01*
X262890D01*
X263705Y310229D01*
X263947Y309847D01*
X265760Y305971D01*
X265653Y305572D01*
Y304428D01*
X265950Y303322D01*
X266522Y302331D01*
X267331Y301522D01*
X268322Y300950D01*
X269428Y300654D01*
X270572D01*
X271678Y300950D01*
X272669Y301522D01*
X273090Y301943D01*
X273478Y302331D01*
X273478Y302331D01*
X274050Y303322D01*
X274206Y303471D01*
X274433D01*
X303614D01*
X304237D01*
X305572Y301655D01*
X306510Y298673D01*
X219809Y211972D01*
X219317Y211480D01*
X218607D01*
X165332Y211480D01*
X113704Y211480D01*
X112165Y213779D01*
X111424Y216480D01*
X112188Y217531D01*
X113206Y219530D01*
X113899Y221663D01*
X114250Y223879D01*
Y226121D01*
X113899Y228337D01*
X113206Y230470D01*
X112188Y232469D01*
X110869Y234283D01*
X110430Y234723D01*
X100354Y224646D01*
X100000Y225000D01*
X99647Y224646D01*
X89570Y234723D01*
X89131Y234283D01*
X87812Y232469D01*
X86794Y230470D01*
X86101Y228337D01*
X85750Y226121D01*
Y223879D01*
X86101Y221663D01*
X86794Y219530D01*
X87812Y217531D01*
X88576Y216480D01*
X87835Y213779D01*
X86296Y211480D01*
X67793D01*
X66365Y211480D01*
X66358Y211480D01*
X65683Y211480D01*
X63858Y213305D01*
X40133Y237030D01*
X39055Y238108D01*
X39054Y238182D01*
X39346Y239424D01*
X39346Y239428D01*
X39347Y239428D01*
X39346Y239928D01*
Y240572D01*
X39050Y241678D01*
X38478Y242669D01*
X37669Y243478D01*
X36678Y244050D01*
X35572Y244346D01*
X34428D01*
X33322Y244050D01*
X32331Y243478D01*
X31522Y242669D01*
X30950Y241678D01*
X30654Y240572D01*
Y239428D01*
X30950Y238322D01*
X31522Y237331D01*
X32331Y236522D01*
X33322Y235950D01*
X34428Y235653D01*
X35572Y235653D01*
X35572Y235653D01*
X35576Y235654D01*
X36818Y235946D01*
X36892Y235945D01*
X37964Y234873D01*
X61643Y211194D01*
X63808Y209029D01*
X63684Y206294D01*
X62897Y204029D01*
X53900D01*
X53133D01*
X52417Y204746D01*
X17025Y240138D01*
X16529Y240634D01*
Y241322D01*
Y289237D01*
X19588Y290504D01*
X21529Y291308D01*
X22695Y290142D01*
X30945Y281892D01*
X30946Y281818D01*
X30654Y280576D01*
X30654Y280572D01*
X30654Y280572D01*
X30654Y280072D01*
Y279428D01*
X30950Y278322D01*
X31522Y277331D01*
X32331Y276522D01*
X33322Y275950D01*
X34428Y275654D01*
X35572D01*
X36678Y275950D01*
X37669Y276522D01*
X38478Y277331D01*
X39050Y278322D01*
X39346Y279428D01*
Y280572D01*
X39050Y281678D01*
X38478Y282669D01*
X37669Y283478D01*
X36678Y284050D01*
X35572Y284347D01*
X34428Y284347D01*
X34428Y284347D01*
X34424Y284346D01*
X33182Y284054D01*
X33108Y284055D01*
X24071Y293091D01*
X21529Y295634D01*
X21529Y296308D01*
Y304748D01*
X23953D01*
Y312653D01*
X23953Y312653D01*
Y317347D01*
X23953D01*
X23953Y317653D01*
Y325252D01*
X17843D01*
X14089Y328992D01*
X13868Y329349D01*
X15928Y334824D01*
X18386Y340248D01*
X21193Y345499D01*
X24337Y350556D01*
X27806Y355396D01*
X31583Y359999D01*
X35654Y364346D01*
X40000Y368416D01*
X44603Y372194D01*
X49444Y375662D01*
X54501Y378807D01*
X59752Y381614D01*
X65176Y384072D01*
X70749Y386169D01*
X76448Y387898D01*
X82247Y389250D01*
X88122Y390220D01*
X94048Y390804D01*
X95050Y390837D01*
X100000Y390956D01*
Y390956D01*
X100002Y390956D01*
X114212D01*
X115837Y385956D01*
X115717Y385869D01*
X115277Y385430D01*
X125000Y375707D01*
X134723Y385430D01*
X134283Y385869D01*
X134163Y385956D01*
X135788Y390956D01*
X300000D01*
X301764Y391130D01*
X303461Y391645D01*
X305024Y392481D01*
X306395Y393605D01*
X310000Y390000D01*
D02*
G37*
G36*
X433670Y378471D02*
X434367D01*
X434849Y377988D01*
X446051Y366786D01*
X446200Y365269D01*
X444849Y361922D01*
X441704Y362551D01*
X441643Y362752D01*
X440978Y363995D01*
X440084Y365084D01*
X438995Y365978D01*
X437751Y366643D01*
X436403Y367052D01*
X435000Y367190D01*
X433597Y367052D01*
X432680Y366774D01*
X428000Y366000D01*
X428000Y366000D01*
X416000D01*
Y366000D01*
X414913Y364943D01*
X414680Y364877D01*
X409956Y365543D01*
X409949Y365548D01*
X409120Y366026D01*
X409044Y366070D01*
X409044Y366070D01*
X408027Y366343D01*
X408027Y366343D01*
X406974Y366343D01*
X406973Y366343D01*
X406973Y366343D01*
X406888Y366320D01*
X405956Y366070D01*
X405956Y366070D01*
X405044Y365543D01*
X405044D01*
X404982Y365481D01*
X404299Y364799D01*
X404299Y364799D01*
X403773Y363887D01*
X403773Y363886D01*
X403500Y362869D01*
X403500Y362869D01*
X403500Y362781D01*
X403500Y361904D01*
X403500Y361816D01*
X403523Y361731D01*
X403773Y360799D01*
X403773Y360799D01*
X404299Y359887D01*
X404299Y359887D01*
X404982Y359204D01*
X405044Y359142D01*
X405956Y358615D01*
X405956D01*
X406973Y358343D01*
X406973Y358343D01*
X406974Y358343D01*
X407061Y358343D01*
X408027D01*
X408027Y358343D01*
X408111Y358365D01*
X409044Y358615D01*
X409044Y358615D01*
X409949Y359138D01*
X409956Y359142D01*
X414680Y359809D01*
X414913Y359742D01*
X416000Y355192D01*
Y354000D01*
X418471D01*
Y315421D01*
X414708Y311529D01*
X391333D01*
X390634D01*
X390131Y312032D01*
X384374Y317788D01*
X384380Y318186D01*
X384700Y319381D01*
X384700Y319381D01*
X384700Y319678D01*
Y320619D01*
X384492Y321393D01*
X384380Y321814D01*
X383761Y323647D01*
Y326353D01*
X384380Y328186D01*
X384492Y328607D01*
X384700Y329381D01*
Y330619D01*
X384492Y331393D01*
X384380Y331814D01*
X383761Y333647D01*
Y336353D01*
X384380Y338186D01*
X384492Y338607D01*
X384700Y339381D01*
Y340619D01*
X384492Y341393D01*
X384380Y341814D01*
X383761Y343647D01*
Y346353D01*
X384380Y348186D01*
X384492Y348607D01*
X384700Y349381D01*
Y350619D01*
X384492Y351393D01*
X384380Y351814D01*
X383761Y353647D01*
Y356353D01*
X384380Y358186D01*
X384492Y358607D01*
X384700Y359381D01*
Y360619D01*
X384492Y361393D01*
X384380Y361814D01*
X383761Y363647D01*
Y366353D01*
X384380Y368186D01*
X384492Y368607D01*
X384700Y369381D01*
Y370619D01*
X384492Y371393D01*
X384380Y371814D01*
X383761Y373647D01*
Y373944D01*
X387884Y378471D01*
X433670D01*
D02*
G37*
G36*
X394976Y392481D02*
X396539Y391645D01*
X398236Y391130D01*
X400000Y390956D01*
X539212D01*
X540837Y385956D01*
X540717Y385869D01*
X540277Y385430D01*
X550000Y375707D01*
X559723Y385430D01*
X559283Y385869D01*
X559163Y385956D01*
X560788Y390956D01*
X600000D01*
X600000Y390956D01*
X600000Y390956D01*
X604950Y390837D01*
X605952Y390804D01*
X611878Y390220D01*
X617753Y389250D01*
X623553Y387898D01*
X629251Y386170D01*
X634824Y384072D01*
X640248Y381614D01*
X645500Y378807D01*
X650556Y375663D01*
X655397Y372194D01*
X660000Y368417D01*
X664346Y364346D01*
X668417Y360000D01*
X672194Y355397D01*
X675663Y350556D01*
X678807Y345500D01*
X681614Y340248D01*
X684072Y334824D01*
X686132Y329349D01*
X685912Y328994D01*
X682158Y325252D01*
X676047D01*
Y321451D01*
X676047Y319509D01*
X675499Y318961D01*
X602559Y246021D01*
X602067Y245529D01*
X593783D01*
X577844D01*
X576500D01*
X575915Y245413D01*
X575419Y245081D01*
X574467Y244130D01*
X557366Y227028D01*
X556867Y226529D01*
X556173D01*
X426327D01*
X425633D01*
X425141Y227022D01*
X384550Y267613D01*
X384374Y267788D01*
X384380Y268186D01*
X384700Y269381D01*
X384700Y269381D01*
X384700Y269678D01*
Y270619D01*
X384492Y271393D01*
X384380Y271814D01*
X383761Y273647D01*
Y276353D01*
X384052Y277216D01*
X387545Y278438D01*
X389409Y278587D01*
X389465Y278577D01*
X390000Y278471D01*
X393431D01*
X414409D01*
X415794D01*
X415848Y278419D01*
X416520Y277334D01*
X416522Y277331D01*
X416522Y277331D01*
X417331Y276522D01*
X418322Y275950D01*
X419428Y275654D01*
X420572D01*
X421678Y275950D01*
X422669Y276522D01*
X423478Y277331D01*
X424050Y278322D01*
X424346Y279428D01*
Y280572D01*
X424050Y281678D01*
X423478Y282669D01*
X422669Y283478D01*
X421678Y284050D01*
X420572Y284347D01*
X419428D01*
X418322Y284050D01*
X417331Y283478D01*
X416910Y283056D01*
X416522Y282669D01*
X416522Y282669D01*
X416520Y282666D01*
X415848Y281581D01*
X415794Y281529D01*
X414525D01*
X393390D01*
X390634Y281529D01*
X388623Y283540D01*
X386505Y285658D01*
X387618Y290885D01*
X388766Y291477D01*
X389492Y291630D01*
X486573D01*
X486870D01*
X487317Y291135D01*
X487974Y290198D01*
X487974Y290198D01*
X487974Y290198D01*
X488099Y290093D01*
X488851Y289462D01*
X489888Y288979D01*
X491015Y288780D01*
X492155Y288879D01*
X492155Y288879D01*
X493230Y289271D01*
X493618Y289542D01*
X494279Y289932D01*
X495247Y289974D01*
X500767Y284454D01*
X500759Y281875D01*
X500748Y278794D01*
X499187Y277232D01*
X498855Y276736D01*
X498739Y276151D01*
Y272339D01*
Y256797D01*
X498739Y253809D01*
Y250649D01*
X497453Y250181D01*
X492578Y248407D01*
X496682Y237130D01*
X501625Y238929D01*
X502743Y238755D01*
X506725Y236959D01*
X507188Y235840D01*
X507925Y234879D01*
X508886Y234141D01*
X509980Y233688D01*
X510005Y233678D01*
X510005Y233678D01*
X511206Y233520D01*
X512407Y233678D01*
X513526Y234141D01*
X514469Y234865D01*
X514487Y234879D01*
X514487Y234879D01*
X514487Y234879D01*
X515224Y235840D01*
X515688Y236959D01*
X515846Y238160D01*
X515834Y238250D01*
X517081Y239767D01*
X522031Y239909D01*
X522430Y239880D01*
X523534Y238534D01*
X524920Y237397D01*
X526501Y236552D01*
X528216Y236032D01*
X530000Y235856D01*
X531784Y236032D01*
X533499Y236552D01*
X535080Y237397D01*
X536466Y238534D01*
X537603Y239920D01*
X538448Y241501D01*
X538968Y243216D01*
X539144Y245000D01*
X538968Y246784D01*
X538448Y248499D01*
X537603Y250080D01*
X536466Y251466D01*
X535080Y252603D01*
X533499Y253448D01*
X531784Y253968D01*
X530000Y254144D01*
X528216Y253968D01*
X526501Y253448D01*
X524920Y252603D01*
X524320Y252111D01*
X521772Y252065D01*
X518509Y253175D01*
X518463Y253261D01*
X517569Y254351D01*
X516479Y255245D01*
X515236Y255909D01*
X513887Y256319D01*
X512484Y256457D01*
X511082Y256319D01*
X509733Y255909D01*
X508490Y255245D01*
X507990Y254835D01*
X506315Y253893D01*
X503739Y255073D01*
X501798Y255963D01*
X501798Y258280D01*
Y271361D01*
X501798Y273738D01*
X502387Y274607D01*
X505052Y277111D01*
X505052D01*
X505575Y277603D01*
X505965Y277637D01*
X506624Y277695D01*
X506624Y277695D01*
X507614Y278055D01*
X508405Y278609D01*
X508477Y278659D01*
Y278659D01*
X509154Y279466D01*
Y279466D01*
X509599Y280420D01*
X509782Y281458D01*
X509782Y281458D01*
X509774Y281545D01*
X509690Y282507D01*
X509330Y283497D01*
X509330Y283497D01*
X508726Y284359D01*
Y284359D01*
X507919Y285036D01*
X507919Y285036D01*
X506964Y285481D01*
X506027Y285647D01*
X505927Y285664D01*
X505927Y285664D01*
X505927Y285664D01*
X505289Y285609D01*
X504878Y285573D01*
X504026Y285522D01*
X502564Y286983D01*
X497964Y291583D01*
X497052Y292496D01*
X497341Y294107D01*
X497984Y297681D01*
X498897Y298471D01*
X525896D01*
X527467D01*
X532434D01*
X537226Y298471D01*
X546041D01*
X549443Y298471D01*
X549857Y298068D01*
X552326Y295600D01*
X556690Y291236D01*
X557930Y289996D01*
X557578Y288406D01*
X558038Y287142D01*
X558038D01*
X561682Y277130D01*
X566625Y278929D01*
X567743Y278755D01*
X571725Y276959D01*
X572188Y275840D01*
X572925Y274879D01*
X573886Y274142D01*
X574980Y273689D01*
X575005Y273678D01*
X575005Y273678D01*
X576206Y273520D01*
X577407Y273678D01*
X578526Y274142D01*
X579469Y274865D01*
X579487Y274879D01*
X579487Y274879D01*
X579487Y274879D01*
X580224Y275840D01*
X580688Y276959D01*
X580846Y278160D01*
X580834Y278250D01*
X582081Y279767D01*
X587031Y279909D01*
X587430Y279880D01*
X588534Y278534D01*
X589920Y277397D01*
X591501Y276552D01*
X593216Y276032D01*
X595000Y275856D01*
X596784Y276032D01*
X598499Y276552D01*
X600080Y277397D01*
X601466Y278534D01*
X602603Y279920D01*
X603448Y281501D01*
X603968Y283216D01*
X604144Y285000D01*
X603968Y286784D01*
X603448Y288499D01*
X602603Y290080D01*
X601466Y291466D01*
X600080Y292603D01*
X598499Y293448D01*
X596784Y293968D01*
X595000Y294144D01*
X593216Y293968D01*
X591501Y293448D01*
X589920Y292603D01*
X589320Y292111D01*
X586772Y292065D01*
X583509Y293175D01*
X583463Y293261D01*
X582569Y294351D01*
X581479Y295245D01*
X580236Y295909D01*
X578887Y296319D01*
X577484Y296457D01*
X576082Y296319D01*
X574733Y295909D01*
X573490Y295245D01*
X572990Y294835D01*
X568854Y292511D01*
X568854Y292511D01*
X567499Y292018D01*
X562801Y290307D01*
X560190Y292063D01*
X558913Y293339D01*
X555302Y296950D01*
X555219Y299778D01*
D01*
X555178Y301153D01*
D01*
X555100Y303820D01*
X568042Y316761D01*
X569071Y317791D01*
X569538Y317786D01*
X570575Y317603D01*
X570575Y317603D01*
X570965Y317637D01*
X571624Y317695D01*
X571624Y317695D01*
X572614Y318055D01*
X573405Y318609D01*
X573477Y318659D01*
Y318659D01*
X574154Y319466D01*
X574154Y319466D01*
X574154Y319466D01*
X574599Y320420D01*
X574782Y321458D01*
X574782Y321458D01*
X574774Y321545D01*
X574690Y322507D01*
X574690Y322507D01*
X574330Y323497D01*
X574330Y323497D01*
X573726Y324359D01*
Y324359D01*
X572919Y325036D01*
X572919Y325036D01*
X571964Y325481D01*
X571027Y325647D01*
X570927Y325664D01*
X570927Y325664D01*
X569878Y325572D01*
X569026Y325522D01*
X563408Y331139D01*
X560492Y334056D01*
X560486Y334108D01*
X560486Y334108D01*
X560095Y335184D01*
X560095Y335184D01*
X560095Y335184D01*
X559438Y336121D01*
X558562Y336857D01*
X557524Y337341D01*
X556397Y337539D01*
X556397Y337539D01*
X556058Y337510D01*
X555257Y337440D01*
X554182Y337048D01*
X553244Y336392D01*
X552509Y335515D01*
X552509Y335515D01*
X552364Y335205D01*
X552025Y334478D01*
X551826Y333351D01*
X551926Y332211D01*
X552317Y331135D01*
X552974Y330198D01*
X553851Y329462D01*
X554888Y328978D01*
X556015Y328780D01*
X557155Y328879D01*
X558230Y329271D01*
X558618Y329542D01*
X559279Y329932D01*
X560247Y329975D01*
X561538Y328684D01*
X566909Y323313D01*
X566903Y322847D01*
X566738Y321910D01*
X566738Y321909D01*
X566720Y321810D01*
X566812Y320760D01*
X566863Y319908D01*
X566002Y319048D01*
X553593Y306639D01*
X550117Y303163D01*
X548484Y301529D01*
X545907Y301529D01*
X538682D01*
X536403Y301529D01*
X535669Y302084D01*
X535446Y302369D01*
X534839Y303471D01*
X533153Y306529D01*
X533174Y306649D01*
X533074Y307789D01*
X532683Y308865D01*
X532026Y309802D01*
X531149Y310538D01*
X530899Y310734D01*
X530323Y311249D01*
Y318537D01*
X530323Y320660D01*
X532213Y322550D01*
X553773Y344110D01*
X555633Y345971D01*
X558300Y345971D01*
X587853D01*
X589139D01*
X589768Y345064D01*
X589905Y344816D01*
X590562Y343879D01*
X591438Y343143D01*
X592476Y342659D01*
X593603Y342461D01*
X594743Y342560D01*
X595818Y342952D01*
X596756Y343608D01*
X597491Y344485D01*
X597975Y345522D01*
X598174Y346649D01*
X598074Y347789D01*
X597683Y348865D01*
X597026Y349802D01*
X596149Y350538D01*
X595112Y351022D01*
X593985Y351220D01*
X592845Y351120D01*
X591770Y350729D01*
X590832Y350073D01*
X590832Y350073D01*
X590097Y349196D01*
X589914Y349029D01*
X588097D01*
X558470D01*
X555000Y349029D01*
X554415Y348913D01*
X553919Y348581D01*
X551465Y346128D01*
X530170Y324833D01*
X527712Y322375D01*
X527381Y321879D01*
X527264Y321294D01*
Y318200D01*
Y311177D01*
X526770Y310729D01*
X525832Y310073D01*
X525832Y310073D01*
X525800Y310034D01*
X525097Y309196D01*
X524450Y308370D01*
X524209D01*
X465158D01*
X464347Y309428D01*
X464347Y310572D01*
X464050Y311678D01*
X463478Y312669D01*
X463057Y313090D01*
X462669Y313478D01*
X462669Y313478D01*
X461678Y314050D01*
X461529Y314206D01*
Y314433D01*
X461529Y345600D01*
X463865Y346691D01*
X466529Y346967D01*
X466719Y346719D01*
X467680Y345982D01*
X468799Y345518D01*
X470000Y345360D01*
X471201Y345518D01*
X472320Y345982D01*
X473281Y346719D01*
X474018Y347680D01*
X474482Y348799D01*
X474640Y350000D01*
X474482Y351201D01*
X474018Y352320D01*
X473281Y353281D01*
X472320Y354018D01*
X471201Y354482D01*
X470000Y354640D01*
X468799Y354482D01*
X467680Y354018D01*
X466719Y353281D01*
X466529Y353033D01*
X463865Y353309D01*
X461529Y354400D01*
Y355000D01*
X461413Y355585D01*
X461081Y356081D01*
X459309Y357854D01*
X459571Y359729D01*
X461296Y362938D01*
X461403Y362948D01*
X462320Y363226D01*
X467000Y364000D01*
X467000Y364000D01*
X478293D01*
X472647Y369647D01*
X473000Y370000D01*
X472647Y370354D01*
X478293Y376000D01*
X467000D01*
Y376000D01*
X462320Y376774D01*
X461403Y377052D01*
X460000Y377190D01*
X458597Y377052D01*
X457248Y376643D01*
X456005Y375978D01*
X454916Y375084D01*
X454022Y373995D01*
X453357Y372751D01*
X452948Y371403D01*
X452938Y371296D01*
X449729Y369570D01*
X447854Y369309D01*
X437178Y379985D01*
X436082Y381081D01*
X435585Y381413D01*
X435000Y381529D01*
X433601D01*
X388600D01*
X386529Y386529D01*
X390000Y390000D01*
X393605Y393605D01*
X394976Y392481D01*
D02*
G37*
G36*
X382394Y255443D02*
X417929Y219908D01*
X418919Y218919D01*
X419415Y218587D01*
X420000Y218471D01*
X421373D01*
X444552D01*
X445344Y213471D01*
X444530Y213206D01*
X442531Y212188D01*
X440717Y210869D01*
X440277Y210430D01*
X450000Y200707D01*
X459723Y210430D01*
X459283Y210869D01*
X457469Y212188D01*
X455470Y213206D01*
X454656Y213471D01*
X455448Y218471D01*
X461867D01*
X462357Y217980D01*
X490480Y189857D01*
X490971Y189366D01*
Y188667D01*
Y162007D01*
Y161706D01*
X490822Y161550D01*
X489831Y160978D01*
X489831Y160978D01*
X489022Y160169D01*
X488450Y159178D01*
X488154Y158072D01*
Y156928D01*
X488450Y155822D01*
X489022Y154831D01*
X489831Y154022D01*
X489145Y149134D01*
X489079Y148965D01*
X382678Y42564D01*
X382189Y42075D01*
X381479D01*
X355326D01*
X355095Y42641D01*
X354478Y47075D01*
X355080Y47397D01*
X356466Y48534D01*
X357603Y49920D01*
X358448Y51501D01*
X358968Y53216D01*
X359144Y55000D01*
X358968Y56784D01*
X358448Y58499D01*
X357603Y60080D01*
X356466Y61466D01*
X355080Y62603D01*
X353499Y63448D01*
X351784Y63968D01*
X350000Y64144D01*
X348216Y63968D01*
X347079Y63623D01*
X345611Y64037D01*
X342068Y66382D01*
X342052Y66403D01*
X341643Y67751D01*
X340978Y68995D01*
X340084Y70084D01*
X338995Y70978D01*
X337752Y71643D01*
X336403Y72052D01*
X335000Y72190D01*
X333597Y72052D01*
X332680Y71774D01*
X328000Y71000D01*
X328000Y71000D01*
X316000D01*
Y66788D01*
X311000Y66529D01*
X309843D01*
X309257Y66413D01*
X308761Y66081D01*
X302731Y66568D01*
X301597Y68135D01*
X301529Y68290D01*
Y71710D01*
X301597Y71865D01*
X304473Y75843D01*
X305527D01*
X306544Y76115D01*
X307456Y76642D01*
X307475Y76661D01*
X304646Y79489D01*
X305000Y79843D01*
X304646Y80196D01*
X307475Y83025D01*
X307456Y83043D01*
X306544Y83570D01*
X306025Y83709D01*
X304255Y87096D01*
X306165Y90812D01*
X306678Y90950D01*
X307669Y91522D01*
X308478Y92331D01*
X309050Y93322D01*
X309347Y94428D01*
Y95572D01*
X309050Y96678D01*
X308478Y97669D01*
X307669Y98478D01*
X306678Y99050D01*
X305572Y99347D01*
X304428Y99347D01*
X301457Y103288D01*
X301384Y103454D01*
Y126546D01*
X301457Y126711D01*
X304428Y130654D01*
X305572D01*
X306678Y130950D01*
X307669Y131522D01*
X308478Y132331D01*
X309050Y133322D01*
X309347Y134428D01*
Y135572D01*
X309050Y136678D01*
X308478Y137669D01*
X307669Y138478D01*
X306678Y139050D01*
X305572Y139347D01*
X304428D01*
X301457Y143289D01*
X301384Y143454D01*
Y157541D01*
X306273Y158613D01*
X306799Y157701D01*
X307482Y157019D01*
X307544Y156957D01*
X307544D01*
X308456Y156430D01*
X308456Y156430D01*
X309473Y156157D01*
X309473Y156157D01*
X310527D01*
X311544Y156430D01*
X312380Y156913D01*
X312456Y156957D01*
X312456Y156957D01*
Y156957D01*
X313201Y157701D01*
X313201Y157701D01*
X313209Y157715D01*
X317671Y159213D01*
X318282Y159281D01*
X318836Y159236D01*
X319100Y159060D01*
X319685Y158943D01*
X321042D01*
X335753D01*
X335964Y158736D01*
X336557Y157709D01*
X336557Y157709D01*
X337394Y156871D01*
X338421Y156279D01*
X339565Y155972D01*
X340750D01*
X341511Y156176D01*
X341894Y156279D01*
X343760Y156871D01*
X346397D01*
X348263Y156279D01*
X348647Y156176D01*
X349408Y155972D01*
X350592D01*
X351353Y156176D01*
X351737Y156279D01*
X353603Y156871D01*
X356240D01*
X358106Y156279D01*
X358489Y156176D01*
X359250Y155972D01*
X360435D01*
X361579Y156279D01*
X362606Y156871D01*
X363443Y157709D01*
X364014Y158628D01*
X364569D01*
X386230D01*
X386799Y157701D01*
X387482Y157019D01*
X387544Y156957D01*
X387544Y156957D01*
X387544Y156957D01*
X388456Y156430D01*
X389473Y156157D01*
X389473Y156157D01*
X390527Y156157D01*
Y156157D01*
X390527Y156157D01*
X390612Y156180D01*
X391544Y156430D01*
X391544Y156430D01*
X392456Y156957D01*
X392456D01*
X393201Y157701D01*
X393201Y157701D01*
X393201Y157701D01*
X393727Y158613D01*
X393727Y158613D01*
X393750Y158698D01*
X394000Y159631D01*
X394000Y159631D01*
X394000Y159719D01*
X394000Y159719D01*
Y160413D01*
X394000Y160684D01*
X394000Y160684D01*
X393727Y161701D01*
X393727Y161701D01*
X393201Y162613D01*
X393201Y162613D01*
X392456Y163358D01*
X392456Y163358D01*
X391544Y163885D01*
X390527Y164157D01*
X390527Y164157D01*
X386964Y167628D01*
X386597Y168135D01*
X386529Y168290D01*
Y171710D01*
X386597Y171865D01*
X389473Y175843D01*
X390527Y175843D01*
X390527Y175843D01*
X391544Y176115D01*
X391544Y176115D01*
X392456Y176642D01*
X392475Y176661D01*
X389647Y179489D01*
X390000Y179843D01*
X389647Y180196D01*
X392475Y183025D01*
X392456Y183043D01*
X392456Y183043D01*
X391937Y183343D01*
X391592Y185337D01*
X391632Y186794D01*
X391986Y188628D01*
X392669Y189022D01*
X393478Y189831D01*
X394050Y190822D01*
X394346Y191928D01*
Y193072D01*
X394050Y194178D01*
X393478Y195169D01*
X392669Y195978D01*
X391678Y196550D01*
X390572Y196846D01*
X389428Y196846D01*
X389428Y196846D01*
X388322Y196550D01*
X388108Y196555D01*
X374525Y210138D01*
X374029Y210633D01*
Y211327D01*
Y252517D01*
X374340Y252891D01*
X375415Y253654D01*
X379029Y255394D01*
X379381Y255300D01*
X380619Y255300D01*
X380619Y255300D01*
X381814Y255620D01*
X382212Y255626D01*
X382394Y255443D01*
D02*
G37*
G36*
X683953Y304748D02*
X685971Y300584D01*
Y185126D01*
Y184433D01*
X681790Y180252D01*
X679849Y180252D01*
X676047D01*
Y172653D01*
X676047Y172346D01*
Y170230D01*
X673602Y167171D01*
Y167171D01*
X672164Y165371D01*
X671924Y165230D01*
X592042D01*
X589433Y165230D01*
X587550Y167113D01*
X559158Y195505D01*
X557500Y197163D01*
Y197997D01*
X557119Y198916D01*
X556416Y199619D01*
X555497Y200000D01*
X554503D01*
X553584Y199619D01*
X552881Y198916D01*
X552500Y197997D01*
X552500Y197003D01*
X552500Y197003D01*
X552881Y196084D01*
X552881Y196084D01*
X553584Y195381D01*
X554503Y195000D01*
X555337D01*
X557008Y193330D01*
X585295Y165042D01*
X587718Y162619D01*
X588214Y162288D01*
X588799Y162171D01*
X592298D01*
X668725D01*
X675928D01*
Y162171D01*
X676047D01*
X676047Y159748D01*
X680971D01*
X683953Y159748D01*
X685971Y155584D01*
X685971Y79355D01*
X685971Y78146D01*
X685570Y77733D01*
X661168Y53331D01*
X659454Y55044D01*
X658234Y53824D01*
X653868Y56499D01*
X653856Y56529D01*
X653899Y56663D01*
X654250Y58878D01*
Y61121D01*
X653899Y63337D01*
X653206Y65470D01*
X652188Y67469D01*
X650869Y69283D01*
X650430Y69723D01*
X640353Y59646D01*
X630277Y49570D01*
X630717Y49131D01*
X632531Y47812D01*
X634530Y46794D01*
X636663Y46101D01*
X638566Y45800D01*
X639151Y44952D01*
X640587Y40750D01*
X627144Y27307D01*
X623608Y23771D01*
X621367Y21529D01*
X618702Y21529D01*
X535252D01*
Y23953D01*
X527654D01*
X527347Y23953D01*
X522654D01*
X522171Y24773D01*
D01*
X520230Y28076D01*
Y87901D01*
X520230Y91299D01*
X520114Y91884D01*
X519782Y92381D01*
X517372Y94791D01*
X497656Y114507D01*
X496555Y115608D01*
X496554Y115682D01*
X496846Y116925D01*
X496846Y116928D01*
X496846Y116928D01*
X496846Y117428D01*
Y118072D01*
X496550Y119178D01*
X495978Y120169D01*
X495169Y120978D01*
X494178Y121550D01*
X493072Y121846D01*
X491928D01*
X490822Y121550D01*
X489831Y120978D01*
X489022Y120169D01*
X488450Y119178D01*
X488154Y118072D01*
Y116928D01*
X488450Y115822D01*
X489022Y114831D01*
X489831Y114022D01*
X490822Y113450D01*
X491928Y113154D01*
X493072Y113154D01*
X493072Y113154D01*
X493076Y113154D01*
X494318Y113446D01*
X494392Y113445D01*
X495465Y112372D01*
X515314Y92523D01*
X517171Y90666D01*
X517171Y87967D01*
Y30831D01*
Y23953D01*
X514748D01*
Y16047D01*
X522346D01*
X522653Y16047D01*
X527347D01*
X527654Y16047D01*
X535252D01*
X535252Y18471D01*
X618552D01*
X622000Y18471D01*
X622585Y18587D01*
X624490Y17254D01*
X623981Y13143D01*
X622654Y11892D01*
X617754Y10750D01*
X611878Y9780D01*
X605952Y9196D01*
X600322Y9012D01*
X600000Y9044D01*
X357993D01*
X355209Y14043D01*
X355619Y14705D01*
X357035Y16047D01*
X360252D01*
Y23953D01*
X352654D01*
X352346Y23953D01*
X347654D01*
X347346Y23953D01*
X343852D01*
X341911Y23953D01*
X341401Y24463D01*
X331467Y34397D01*
X333380Y39016D01*
X381477D01*
X382823D01*
X383408Y39133D01*
X383904Y39464D01*
X384927Y40487D01*
X496937Y152497D01*
X575514Y231074D01*
X575940Y231500D01*
X576882Y231500D01*
X576882Y231500D01*
X577801Y231881D01*
X577801Y231881D01*
X577801Y231881D01*
X578504Y232584D01*
X578885Y233503D01*
X578885Y233503D01*
Y233595D01*
X582689Y237223D01*
X585453Y237024D01*
X586922Y234188D01*
X587621Y232094D01*
X586794Y230470D01*
X586101Y228337D01*
X585750Y226121D01*
Y223879D01*
X586101Y221663D01*
X586794Y219530D01*
X587812Y217531D01*
X589131Y215717D01*
X589570Y215277D01*
X599647Y225354D01*
X600000Y225000D01*
X600353Y225354D01*
X610430Y215277D01*
X610869Y215717D01*
X612188Y217531D01*
X613206Y219530D01*
X613899Y221663D01*
X614250Y223879D01*
Y226121D01*
X613899Y228337D01*
X613206Y230470D01*
X612188Y232469D01*
X611407Y233544D01*
X611394Y234596D01*
X612046Y237815D01*
X612163Y238167D01*
X612843Y239381D01*
X613426Y239964D01*
X677655Y304193D01*
X678210Y304748D01*
X680151Y304748D01*
X683953Y304748D01*
D02*
G37*
G36*
X372837Y375000D02*
X370587Y372750D01*
X367282Y369445D01*
X341281Y343444D01*
X338918Y341082D01*
X338587Y340585D01*
X338471Y340000D01*
Y336580D01*
Y300759D01*
Y299206D01*
X338419Y299152D01*
X337334Y298480D01*
X337331Y298478D01*
X337331Y298478D01*
X336522Y297669D01*
X335950Y296678D01*
X335653Y295572D01*
Y294428D01*
X335950Y293322D01*
X336522Y292331D01*
X337331Y291522D01*
X338322Y290950D01*
X339428Y290653D01*
X340572D01*
X341678Y290950D01*
X342669Y291522D01*
X343478Y292331D01*
X344050Y293322D01*
X344346Y294428D01*
Y295572D01*
X344050Y296678D01*
X343478Y297669D01*
X343057Y298090D01*
X342669Y298478D01*
X342669Y298478D01*
X342666Y298480D01*
X341581Y299152D01*
X341529Y299206D01*
Y300722D01*
Y336742D01*
X341529Y339367D01*
X343448Y341285D01*
X368094Y365931D01*
X369146Y366983D01*
X374522Y365972D01*
X375869Y362549D01*
X375620Y361814D01*
X375507Y361393D01*
X375300Y360619D01*
Y359381D01*
X375507Y358607D01*
X375620Y358186D01*
X376239Y356353D01*
Y353647D01*
X375620Y351814D01*
X375507Y351393D01*
X375300Y350619D01*
Y349381D01*
X375507Y348607D01*
X375620Y348186D01*
X376239Y346353D01*
Y343647D01*
X375620Y341814D01*
X375507Y341393D01*
X375300Y340619D01*
X375300Y339381D01*
X375300Y339381D01*
X375620Y338186D01*
X375625Y337788D01*
X372313Y334475D01*
X371419Y333581D01*
X371087Y333085D01*
X370971Y332500D01*
Y328113D01*
Y321887D01*
Y318113D01*
Y311887D01*
Y308113D01*
Y301887D01*
Y298113D01*
Y291887D01*
Y288113D01*
Y281887D01*
Y278113D01*
Y271887D01*
Y268113D01*
Y261887D01*
Y258113D01*
Y211420D01*
Y210000D01*
X371087Y209415D01*
X371419Y208919D01*
X372387Y207950D01*
X378131Y202206D01*
X376948Y199218D01*
X375525Y197741D01*
X374777Y197890D01*
X373223D01*
X371699Y197587D01*
X370263Y196992D01*
X368971Y196128D01*
X367872Y195029D01*
X367008Y193737D01*
X366413Y192301D01*
X366110Y190777D01*
Y189223D01*
X366413Y187699D01*
X367008Y186263D01*
X367872Y184971D01*
X368971Y183872D01*
X370263Y183008D01*
X371699Y182413D01*
X373223Y182110D01*
X374777D01*
X376301Y182413D01*
X377737Y183008D01*
X378471Y183498D01*
X380584Y182951D01*
X383471Y181242D01*
Y179368D01*
X383471Y166888D01*
Y165157D01*
X381105Y162819D01*
X379502Y161687D01*
X364485D01*
X364036Y162209D01*
X363443Y163235D01*
X363443Y163235D01*
X363443Y163235D01*
X363321Y163358D01*
X362606Y164073D01*
X361579Y164666D01*
X360435Y164972D01*
X359250D01*
X359250Y164972D01*
X359152Y164946D01*
X358489Y164769D01*
X358106Y164666D01*
X356240Y164073D01*
X353603D01*
X351737Y164666D01*
X351353Y164769D01*
X350592Y164972D01*
X349408D01*
X348647Y164769D01*
X348263Y164666D01*
X346397Y164073D01*
X343760D01*
X341894Y164666D01*
X341511Y164769D01*
X340750Y164972D01*
X339565D01*
X338421Y164666D01*
X337394Y164073D01*
X336867Y163546D01*
X336557Y163235D01*
X336557Y163235D01*
X335964Y162209D01*
X335753Y162002D01*
X321022D01*
X320318D01*
X316529Y165791D01*
Y166750D01*
X316529Y179795D01*
Y181982D01*
X316974Y182328D01*
X321471Y183872D01*
X322763Y183008D01*
X324199Y182413D01*
X325723Y182110D01*
X327277D01*
X328801Y182413D01*
X330237Y183008D01*
X331529Y183872D01*
X332628Y184971D01*
X333492Y186263D01*
X334087Y187699D01*
X334390Y189223D01*
Y190777D01*
X334087Y192301D01*
X333492Y193737D01*
X332628Y195029D01*
X331529Y196128D01*
X330237Y196992D01*
X328801Y197587D01*
X327277Y197890D01*
X325723D01*
X324199Y197587D01*
X322763Y196992D01*
X321471Y196128D01*
X320372Y195029D01*
X319800Y194174D01*
X319123Y193888D01*
X317905Y194165D01*
X314232Y196001D01*
X314050Y196678D01*
X313478Y197669D01*
X312669Y198478D01*
X311678Y199050D01*
X310572Y199346D01*
X309428Y199346D01*
X306529Y203497D01*
Y226503D01*
X309428Y230654D01*
X310572D01*
X311678Y230950D01*
X312669Y231522D01*
X313478Y232331D01*
X314050Y233322D01*
X314347Y234428D01*
Y235572D01*
X314050Y236678D01*
X313478Y237669D01*
X312669Y238478D01*
X311678Y239050D01*
X310572Y239347D01*
X309428D01*
X306457Y243288D01*
X306384Y243454D01*
Y253548D01*
Y254221D01*
X310504Y258341D01*
X312356Y258285D01*
X316239Y257114D01*
X316294Y257060D01*
X317114Y256239D01*
X318186Y255620D01*
X319381Y255300D01*
X320619D01*
X321814Y255620D01*
X322886Y256239D01*
X323551Y256904D01*
X323761Y257114D01*
X323761Y257114D01*
X324380Y258186D01*
X324657Y258471D01*
X329348D01*
X331503Y258471D01*
X332722Y257619D01*
X335653Y255572D01*
X335653Y255089D01*
Y254428D01*
X335950Y253322D01*
X336522Y252331D01*
X337042Y251812D01*
X337331Y251522D01*
X337331Y251522D01*
X337332Y251522D01*
X338322Y250950D01*
X338628Y250655D01*
Y249769D01*
Y238770D01*
X337932Y238343D01*
X337701Y238201D01*
X337019Y237518D01*
X336957Y237456D01*
X336957Y237456D01*
X336947Y237439D01*
X336430Y236544D01*
Y236544D01*
X336157Y235527D01*
X336157Y235527D01*
X336157Y235527D01*
Y234473D01*
X336157Y234473D01*
X336157Y234473D01*
X336180Y234388D01*
X336430Y233456D01*
Y233456D01*
X336947Y232561D01*
X336957Y232544D01*
X336957D01*
X337019Y232482D01*
X337701Y231799D01*
X337931Y231658D01*
X338628Y231230D01*
Y221963D01*
X338421Y221752D01*
X337395Y221160D01*
X337394Y221160D01*
X337394Y221160D01*
X336557Y220322D01*
X335964Y219296D01*
X335658Y218151D01*
Y216967D01*
X335964Y215822D01*
X336557Y214796D01*
X337394Y213958D01*
X338421Y213366D01*
X339565Y213059D01*
X340750D01*
X341894Y213366D01*
X342920Y213958D01*
X343758Y214796D01*
X344351Y215822D01*
X344657Y216967D01*
Y218151D01*
X344351Y219296D01*
X343758Y220322D01*
X343231Y220849D01*
X342921Y221160D01*
X342920Y221160D01*
X342920Y221160D01*
X341894Y221752D01*
X341687Y221963D01*
Y231230D01*
X342383Y231658D01*
X342614Y231799D01*
X343296Y232482D01*
X343358Y232544D01*
X343358Y232544D01*
X343368Y232561D01*
X343885Y233456D01*
Y233456D01*
X344157Y234473D01*
X344157Y234473D01*
X344157Y234473D01*
Y235527D01*
X344157Y235527D01*
X344157Y235527D01*
X344135Y235612D01*
X343885Y236544D01*
Y236544D01*
X343368Y237439D01*
X343358Y237456D01*
X343358D01*
X343296Y237518D01*
X342614Y238201D01*
X342384Y238342D01*
X341687Y238770D01*
Y249947D01*
Y250861D01*
X342667Y251521D01*
X342669Y251522D01*
X343478Y252331D01*
X344050Y253322D01*
X344346Y254428D01*
Y255572D01*
X344050Y256678D01*
X343478Y257669D01*
X342669Y258478D01*
X341678Y259050D01*
X340572Y259347D01*
X339428Y259347D01*
X339428Y259346D01*
X339046Y259244D01*
X338079Y259084D01*
X336082Y261081D01*
X335585Y261413D01*
X335000Y261529D01*
X330770D01*
X324684D01*
X324380Y261814D01*
X324380Y261814D01*
X323761Y263647D01*
Y266353D01*
X324380Y268186D01*
X324493Y268607D01*
X324700Y269381D01*
Y270619D01*
X324493Y271393D01*
X324380Y271814D01*
X323761Y273647D01*
Y276353D01*
X324380Y278186D01*
X324493Y278607D01*
X324700Y279381D01*
Y280619D01*
X324493Y281393D01*
X324380Y281814D01*
X323761Y283647D01*
Y286353D01*
X324380Y288186D01*
X324493Y288607D01*
X324700Y289381D01*
Y290619D01*
X324380Y291814D01*
X323761Y292886D01*
X323209Y295000D01*
X323761Y297114D01*
X324380Y298186D01*
X324700Y299381D01*
Y300619D01*
X324380Y301814D01*
X323761Y302886D01*
X323209Y305000D01*
X323761Y307114D01*
X324380Y308186D01*
X324700Y309381D01*
Y310619D01*
X324493Y311393D01*
X324380Y311814D01*
X323761Y313647D01*
Y316353D01*
X324380Y318186D01*
X324493Y318607D01*
X324700Y319381D01*
Y320619D01*
X324493Y321393D01*
X324380Y321814D01*
X323761Y323647D01*
Y326353D01*
X324380Y328186D01*
X324493Y328607D01*
X324700Y329381D01*
Y330619D01*
X324493Y331393D01*
X324380Y331814D01*
X323761Y333647D01*
Y336353D01*
X324380Y338186D01*
X324493Y338607D01*
X324700Y339381D01*
Y340619D01*
X324493Y341393D01*
X324380Y341814D01*
X323761Y343647D01*
Y346353D01*
X324380Y348186D01*
X324493Y348607D01*
X324700Y349381D01*
Y350619D01*
X324493Y351393D01*
X324380Y351814D01*
X323761Y353647D01*
Y356353D01*
X324380Y358186D01*
X324493Y358607D01*
X324700Y359381D01*
Y360619D01*
X324493Y361393D01*
X324380Y361814D01*
X323761Y363647D01*
Y366353D01*
X324380Y368186D01*
X324493Y368607D01*
X324700Y369381D01*
Y370619D01*
X324493Y371393D01*
X324380Y371814D01*
X323761Y373647D01*
Y375389D01*
X327027Y380000D01*
X370766D01*
X372837Y375000D01*
D02*
G37*
G36*
X309518Y276600D02*
X312279Y275045D01*
X312240Y274403D01*
X311689Y273852D01*
X299746Y261909D01*
X298773Y260936D01*
X298441Y260440D01*
X298325Y259854D01*
Y258400D01*
X298325Y135723D01*
X298325Y101692D01*
Y100146D01*
X298441Y99560D01*
X298773Y99064D01*
X300097Y97740D01*
X300107Y92270D01*
X298919Y91081D01*
X298587Y90585D01*
X298471Y90000D01*
Y88113D01*
X298471Y79564D01*
X298471Y66888D01*
Y65157D01*
X298587Y64572D01*
X298919Y64076D01*
X301159Y61835D01*
X301084Y61037D01*
X301000Y60684D01*
X301000Y60684D01*
Y59631D01*
X301000Y59631D01*
X301273Y58614D01*
X301273Y58613D01*
X301755Y57778D01*
X301799Y57701D01*
X301799Y57701D01*
X302482Y57019D01*
X302544Y56957D01*
X302544Y56957D01*
X302544Y56957D01*
X303456Y56430D01*
X303456Y56430D01*
X304473Y56157D01*
X304473Y56157D01*
X305527D01*
X305527Y56157D01*
X305611Y56180D01*
X306544Y56430D01*
X306544Y56430D01*
X307456Y56957D01*
X307456Y56957D01*
Y56957D01*
X308201Y57701D01*
X308727Y58613D01*
X312310Y60156D01*
X314000Y60425D01*
X316000Y59366D01*
Y59000D01*
X321266D01*
X322556Y58150D01*
X325360Y55000D01*
X325518Y53799D01*
X325982Y52680D01*
X326719Y51719D01*
X327680Y50982D01*
X328799Y50518D01*
X330000Y50360D01*
X331201Y50518D01*
X332320Y50982D01*
X333281Y51719D01*
X334018Y52680D01*
X334299Y53358D01*
X334910Y54018D01*
X336176Y54664D01*
X338186Y54065D01*
X341220Y52597D01*
X341552Y51501D01*
X342397Y49920D01*
X343534Y48534D01*
X344920Y47397D01*
X345522Y47075D01*
X344905Y42641D01*
X344674Y42075D01*
X326534Y42075D01*
X319972Y42075D01*
X267581Y42075D01*
X266371D01*
X266063Y42383D01*
X248903Y59543D01*
X246415Y62031D01*
X236177Y72268D01*
X233190Y75256D01*
X232529Y75916D01*
Y80398D01*
Y170659D01*
X232529Y172994D01*
X233119Y173584D01*
X233500Y174503D01*
X233500Y175497D01*
X233119Y176416D01*
X232416Y177119D01*
X231497Y177500D01*
X230503D01*
X229584Y177119D01*
X228881Y176416D01*
X228881Y176416D01*
X228500Y175497D01*
X228500Y175497D01*
Y174503D01*
X228881Y173584D01*
X229471Y172994D01*
X229471Y170615D01*
Y82214D01*
Y78622D01*
X227821Y76469D01*
X226419Y74639D01*
X224578Y74250D01*
X223879D01*
X221663Y73899D01*
X219530Y73206D01*
X217531Y72188D01*
X215717Y70869D01*
X215277Y70430D01*
X225354Y60353D01*
X224646Y59646D01*
X214570Y69723D01*
X214131Y69283D01*
X212812Y67469D01*
X211794Y65470D01*
X211101Y63337D01*
X210750Y61121D01*
Y58878D01*
X211101Y56663D01*
X211794Y54530D01*
X212812Y52531D01*
X213576Y51480D01*
X212835Y48779D01*
X211296Y46480D01*
X73704D01*
X72166Y48779D01*
X71424Y51480D01*
X72188Y52531D01*
X73206Y54530D01*
X73899Y56663D01*
X74250Y58878D01*
Y61121D01*
X73899Y63337D01*
X73206Y65470D01*
X72188Y67469D01*
X70869Y69283D01*
X70430Y69723D01*
X60353Y59646D01*
X60000Y60000D01*
X59646Y59646D01*
X49570Y69723D01*
X49131Y69283D01*
X47812Y67469D01*
X46794Y65470D01*
X46101Y63337D01*
X45750Y61121D01*
Y58878D01*
X46101Y56663D01*
X46150Y56511D01*
X41766Y53824D01*
X40546Y55044D01*
X38832Y53331D01*
X17023Y75139D01*
X16529Y75634D01*
Y76323D01*
Y159748D01*
X23953D01*
Y163030D01*
X23953Y164237D01*
X25994Y166278D01*
X52626Y192910D01*
X53187Y193471D01*
X53821D01*
X134816D01*
X135427D01*
X135494Y193471D01*
X136084Y192881D01*
X137003Y192500D01*
X137997D01*
X137997Y192500D01*
X138916Y192881D01*
X138916Y192881D01*
X139619Y193584D01*
X139619Y193584D01*
X140000Y194503D01*
X140000Y194503D01*
X140000Y195497D01*
X140000Y195497D01*
X139804Y195971D01*
X139873Y196163D01*
X141254Y200012D01*
X141690Y200971D01*
X164684D01*
X229015Y200971D01*
X230500D01*
X230750Y201020D01*
X231312Y201002D01*
X233407Y200219D01*
X235800Y198566D01*
X236101Y196663D01*
X236794Y194530D01*
X237812Y192531D01*
X239131Y190717D01*
X239570Y190277D01*
X249646Y200354D01*
X259723Y210430D01*
X259283Y210869D01*
X257469Y212188D01*
X255470Y213206D01*
X253337Y213899D01*
X251434Y214200D01*
X250849Y215048D01*
X249413Y219250D01*
X306842Y276680D01*
X309518Y276600D01*
D02*
G37*
G36*
X309022Y190492D02*
X310684Y187226D01*
X308894Y183687D01*
X308456Y183570D01*
X307544Y183043D01*
X307525Y183025D01*
X310353Y180196D01*
X310000Y179843D01*
X310353Y179489D01*
X307525Y176661D01*
X307544Y176642D01*
X308456Y176115D01*
X309473Y175843D01*
X310527D01*
X313403Y171865D01*
X313471Y171710D01*
Y168290D01*
X313403Y168135D01*
X310527Y164157D01*
X309473Y164157D01*
X308456Y163885D01*
X307544Y163358D01*
X306799Y162613D01*
X306273Y161701D01*
X301384Y162774D01*
Y177226D01*
X306273Y178299D01*
X306799Y177386D01*
X306818Y177368D01*
X309293Y179843D01*
X306818Y182317D01*
X306799Y182299D01*
X306273Y181387D01*
X301384Y182459D01*
Y188648D01*
X302501Y189594D01*
X305312Y191508D01*
X309022Y190492D01*
D02*
G37*
%LPC*%
G36*
X193072Y374346D02*
X191928D01*
X190822Y374050D01*
X189831Y373478D01*
X189022Y372669D01*
X188450Y371678D01*
X188154Y370572D01*
Y369428D01*
X188450Y368322D01*
X189022Y367331D01*
X189831Y366522D01*
X190822Y365950D01*
X191928Y365653D01*
X193072D01*
X194178Y365950D01*
X195169Y366522D01*
X195978Y367331D01*
X196550Y368322D01*
X196846Y369428D01*
Y370572D01*
X196550Y371678D01*
X195978Y372669D01*
X195169Y373478D01*
X194178Y374050D01*
X193072Y374346D01*
D02*
G37*
G36*
X135430Y384723D02*
X125707Y375000D01*
X135430Y365277D01*
X135869Y365717D01*
X137188Y367531D01*
X138206Y369530D01*
X138899Y371663D01*
X139250Y373879D01*
Y376121D01*
X138899Y378337D01*
X138206Y380470D01*
X137188Y382469D01*
X135869Y384283D01*
X135430Y384723D01*
D02*
G37*
G36*
X114570D02*
X114131Y384283D01*
X112812Y382469D01*
X111794Y380470D01*
X111101Y378337D01*
X110750Y376121D01*
Y373879D01*
X111101Y371663D01*
X111794Y369530D01*
X112812Y367531D01*
X114131Y365717D01*
X114570Y365277D01*
X124293Y375000D01*
X114570Y384723D01*
D02*
G37*
G36*
X279000Y375293D02*
X273707Y370000D01*
X279000Y364707D01*
Y375293D01*
D02*
G37*
G36*
X260000Y377190D02*
X258597Y377052D01*
X257248Y376643D01*
X256005Y375978D01*
X254916Y375084D01*
X254022Y373995D01*
X253357Y372751D01*
X252948Y371403D01*
X252810Y370000D01*
X252948Y368597D01*
X253357Y367249D01*
X254022Y366005D01*
X254916Y364916D01*
X256005Y364022D01*
X257248Y363357D01*
X258597Y362948D01*
X260000Y362810D01*
X261403Y362948D01*
X262320Y363226D01*
X267000Y364000D01*
X267000Y364000D01*
X278293D01*
X272646Y369647D01*
X273000Y370000D01*
X272646Y370354D01*
X278293Y376000D01*
X267000D01*
Y376000D01*
X262320Y376774D01*
X261403Y377052D01*
X260000Y377190D01*
D02*
G37*
G36*
X235000Y367190D02*
X233597Y367052D01*
X232680Y366774D01*
X228000Y366000D01*
X228000Y366000D01*
X216000D01*
Y363986D01*
X211920Y362552D01*
X211000Y362499D01*
X210456Y363043D01*
X209544Y363570D01*
X208527Y363843D01*
X207473D01*
X206456Y363570D01*
X205544Y363043D01*
X204799Y362299D01*
X204273Y361386D01*
X204000Y360369D01*
Y359316D01*
X204273Y358299D01*
X204799Y357386D01*
X205544Y356642D01*
X206456Y356115D01*
X207473Y355843D01*
X208527D01*
X209544Y356115D01*
X210456Y356642D01*
X211000Y357186D01*
X211920Y357133D01*
X216000Y355699D01*
Y354000D01*
X221266D01*
X222556Y353150D01*
X225360Y350000D01*
X225518Y348799D01*
X225982Y347680D01*
X226719Y346719D01*
X227680Y345982D01*
X228799Y345518D01*
X230000Y345360D01*
X231201Y345518D01*
X232320Y345982D01*
X233281Y346719D01*
X234018Y347680D01*
X234299Y348358D01*
X234910Y349018D01*
X236176Y349664D01*
X238186Y349064D01*
X241220Y347597D01*
X241552Y346501D01*
X242397Y344920D01*
X243534Y343534D01*
X244920Y342397D01*
X246501Y341552D01*
X248216Y341032D01*
X250000Y340856D01*
X251784Y341032D01*
X253499Y341552D01*
X255080Y342397D01*
X256466Y343534D01*
X257603Y344920D01*
X258448Y346501D01*
X258968Y348216D01*
X259144Y350000D01*
X258968Y351784D01*
X258448Y353499D01*
X257603Y355080D01*
X256466Y356466D01*
X255080Y357603D01*
X253499Y358448D01*
X251784Y358968D01*
X250000Y359144D01*
X248216Y358968D01*
X247079Y358623D01*
X245611Y359036D01*
X242068Y361382D01*
X242052Y361403D01*
X241643Y362752D01*
X240978Y363995D01*
X240084Y365084D01*
X238995Y365978D01*
X237752Y366643D01*
X236403Y367052D01*
X235000Y367190D01*
D02*
G37*
G36*
X125000Y374293D02*
X115277Y364570D01*
X115717Y364131D01*
X117531Y362812D01*
X119530Y361794D01*
X121663Y361101D01*
X123879Y360750D01*
X126121D01*
X128337Y361101D01*
X130470Y361794D01*
X132469Y362812D01*
X134283Y364131D01*
X134723Y364570D01*
X125000Y374293D01*
D02*
G37*
G36*
X270000Y354640D02*
X268799Y354482D01*
X267680Y354018D01*
X266719Y353281D01*
X265982Y352320D01*
X265518Y351201D01*
X265360Y350000D01*
X265518Y348799D01*
X265982Y347680D01*
X266719Y346719D01*
X267680Y345982D01*
X268799Y345518D01*
X270000Y345360D01*
X271201Y345518D01*
X272320Y345982D01*
X273281Y346719D01*
X274018Y347680D01*
X274482Y348799D01*
X274640Y350000D01*
X274482Y351201D01*
X274018Y352320D01*
X273281Y353281D01*
X272320Y354018D01*
X271201Y354482D01*
X270000Y354640D01*
D02*
G37*
G36*
X208527Y344157D02*
X207473D01*
X206456Y343885D01*
X205544Y343358D01*
X205525Y343339D01*
X208000Y340864D01*
X210475Y343339D01*
X210456Y343358D01*
X209544Y343885D01*
X208527Y344157D01*
D02*
G37*
G36*
X204818Y342632D02*
X204799Y342614D01*
X204273Y341701D01*
X204000Y340684D01*
Y339631D01*
X204273Y338614D01*
X204799Y337701D01*
X204818Y337683D01*
X207293Y340157D01*
X204818Y342632D01*
D02*
G37*
G36*
X211182D02*
X208707Y340157D01*
X211182Y337683D01*
X211201Y337701D01*
X211727Y338614D01*
X212000Y339631D01*
Y340684D01*
X211727Y341701D01*
X211201Y342614D01*
X211182Y342632D01*
D02*
G37*
G36*
X208000Y339450D02*
X205525Y336975D01*
X205544Y336957D01*
X206456Y336430D01*
X207473Y336157D01*
X208527D01*
X209544Y336430D01*
X210456Y336957D01*
X210475Y336975D01*
X208000Y339450D01*
D02*
G37*
G36*
X143603Y337539D02*
X142476Y337341D01*
X141438Y336857D01*
X140562Y336121D01*
X139905Y335184D01*
X139514Y334108D01*
X139414Y332968D01*
X139613Y331841D01*
X140096Y330804D01*
X140832Y329927D01*
X141770Y329271D01*
X142845Y328879D01*
X143985Y328780D01*
X145112Y328978D01*
X146149Y329462D01*
X147026Y330198D01*
X147682Y331135D01*
X148074Y332211D01*
X148174Y333351D01*
X147975Y334478D01*
X147491Y335515D01*
X146756Y336392D01*
X145818Y337048D01*
X144743Y337440D01*
X143603Y337539D01*
D02*
G37*
G36*
X193072Y334347D02*
X191928D01*
X190822Y334050D01*
X189831Y333478D01*
X189022Y332669D01*
X188450Y331678D01*
X188154Y330572D01*
Y329428D01*
X188450Y328322D01*
X189022Y327331D01*
X189831Y326522D01*
X190822Y325950D01*
X191928Y325654D01*
X193072D01*
X194178Y325950D01*
X195169Y326522D01*
X195978Y327331D01*
X196550Y328322D01*
X196846Y329428D01*
Y330572D01*
X196550Y331678D01*
X195978Y332669D01*
X195169Y333478D01*
X194178Y334050D01*
X193072Y334347D01*
D02*
G37*
G36*
X129073Y325664D02*
X128986Y325649D01*
X128036Y325481D01*
X128012Y325470D01*
X129491Y322298D01*
X132663Y323777D01*
X132652Y323801D01*
X131975Y324608D01*
X131112Y325212D01*
X130122Y325572D01*
X130122Y325572D01*
X130035Y325580D01*
X129073Y325664D01*
X129073Y325664D01*
D02*
G37*
G36*
X140902Y298849D02*
X134118Y295686D01*
X137281Y288901D01*
X140902Y298849D01*
D02*
G37*
G36*
X208603Y297539D02*
X207476Y297341D01*
X206438Y296857D01*
X205562Y296121D01*
X204905Y295184D01*
X204514Y294108D01*
X204414Y292968D01*
X204613Y291841D01*
X205097Y290804D01*
X205832Y289927D01*
X206770Y289271D01*
X207845Y288879D01*
X208985Y288780D01*
X210112Y288979D01*
X211149Y289462D01*
X212026Y290198D01*
X212683Y291135D01*
X213074Y292211D01*
X213174Y293351D01*
X212975Y294478D01*
X212491Y295515D01*
X211756Y296392D01*
X210818Y297048D01*
X209743Y297440D01*
X208603Y297539D01*
D02*
G37*
G36*
X121237Y307564D02*
X119835Y307426D01*
X118486Y307016D01*
X117243Y306352D01*
X116153Y305458D01*
X115259Y304368D01*
X114594Y303125D01*
X114185Y301776D01*
X114047Y300374D01*
X114185Y298971D01*
X114594Y297622D01*
X115259Y296379D01*
X116153Y295289D01*
X117243Y294395D01*
X118486Y293731D01*
X119835Y293322D01*
X121102Y293197D01*
X125763Y292341D01*
X125763Y292341D01*
X136375Y288479D01*
X133000Y295716D01*
X133453Y295927D01*
X133242Y296380D01*
X140479Y299755D01*
X129867Y303618D01*
D01*
X125732Y305942D01*
X125232Y306352D01*
X123989Y307016D01*
X122640Y307426D01*
X121237Y307564D01*
D02*
G37*
G36*
X194073Y285664D02*
X193036Y285481D01*
X193012Y285470D01*
X194491Y282298D01*
X197663Y283777D01*
X197652Y283801D01*
X196975Y284608D01*
X196112Y285212D01*
X195122Y285573D01*
X194073Y285664D01*
D02*
G37*
G36*
X192105Y285048D02*
X192081Y285036D01*
X191274Y284359D01*
X190670Y283496D01*
X190310Y282507D01*
X190218Y281458D01*
X190401Y280420D01*
X190412Y280396D01*
X193585Y281875D01*
X192105Y285048D01*
D02*
G37*
G36*
X198085Y282871D02*
X194913Y281392D01*
X196393Y278220D01*
X196417Y278231D01*
X197223Y278908D01*
X197828Y279771D01*
X198188Y280760D01*
X198280Y281810D01*
X198097Y282847D01*
X198085Y282871D01*
D02*
G37*
G36*
X194007Y280969D02*
X190835Y279490D01*
X190846Y279466D01*
X191523Y278659D01*
X192386Y278055D01*
X193376Y277695D01*
X194425Y277603D01*
X195462Y277786D01*
X195486Y277797D01*
X194007Y280969D01*
D02*
G37*
G36*
X123794Y282799D02*
X122593Y282641D01*
X121474Y282178D01*
X120513Y281440D01*
X119776Y280479D01*
X119312Y279360D01*
X119154Y278160D01*
X119312Y276959D01*
X119776Y275840D01*
X120513Y274879D01*
X121474Y274142D01*
X122593Y273678D01*
X123794Y273520D01*
X124995Y273678D01*
X126114Y274142D01*
X127075Y274879D01*
X127812Y275840D01*
X128276Y276959D01*
X128434Y278160D01*
X128276Y279360D01*
X127812Y280479D01*
X127075Y281440D01*
X126114Y282178D01*
X124995Y282641D01*
X123794Y282799D01*
D02*
G37*
G36*
X205902Y258849D02*
X199118Y255685D01*
X202281Y248902D01*
X205902Y258849D01*
D02*
G37*
G36*
X186237Y267564D02*
X184835Y267426D01*
X183486Y267017D01*
X182243Y266352D01*
X181153Y265458D01*
X180259Y264368D01*
X179595Y263125D01*
X179185Y261776D01*
X179047Y260374D01*
X179185Y258971D01*
X179595Y257622D01*
X180259Y256379D01*
X181153Y255290D01*
X182243Y254395D01*
X183486Y253731D01*
X184835Y253322D01*
X186102Y253197D01*
X190763Y252341D01*
X190763Y252341D01*
X201375Y248479D01*
X198000Y255716D01*
X198453Y255927D01*
X198242Y256381D01*
X205479Y259755D01*
X194867Y263618D01*
D01*
X190732Y265942D01*
X190232Y266352D01*
X188989Y267017D01*
X187640Y267426D01*
X186237Y267564D01*
D02*
G37*
G36*
X188794Y242799D02*
X187593Y242641D01*
X186474Y242178D01*
X185513Y241440D01*
X184776Y240479D01*
X184312Y239360D01*
X184154Y238160D01*
X184312Y236959D01*
X184776Y235840D01*
X185513Y234879D01*
X186474Y234141D01*
X187593Y233678D01*
X188794Y233520D01*
X189995Y233678D01*
X191114Y234141D01*
X192075Y234879D01*
X192812Y235840D01*
X193275Y236959D01*
X193434Y238160D01*
X193275Y239360D01*
X192812Y240479D01*
X192075Y241440D01*
X191114Y242178D01*
X189995Y242641D01*
X188794Y242799D01*
D02*
G37*
G36*
X101121Y239250D02*
X98879D01*
X96663Y238899D01*
X94530Y238206D01*
X92531Y237188D01*
X90717Y235869D01*
X90277Y235430D01*
X100000Y225707D01*
X109723Y235430D01*
X109283Y235869D01*
X107469Y237188D01*
X105470Y238206D01*
X103337Y238899D01*
X101121Y239250D01*
D02*
G37*
G36*
X408027Y346657D02*
X406973D01*
X405956Y346385D01*
X405044Y345858D01*
X405025Y345839D01*
X407500Y343365D01*
X409975Y345839D01*
X409956Y345858D01*
X409044Y346385D01*
X408027Y346657D01*
D02*
G37*
G36*
X404318Y345132D02*
X404299Y345113D01*
X403773Y344201D01*
X403500Y343184D01*
Y342131D01*
X403773Y341113D01*
X404299Y340201D01*
X404318Y340182D01*
X406793Y342657D01*
X404318Y345132D01*
D02*
G37*
G36*
X410682D02*
X408207Y342657D01*
X410682Y340182D01*
X410701Y340201D01*
X411227Y341113D01*
X411500Y342131D01*
Y343184D01*
X411227Y344201D01*
X410701Y345113D01*
X410682Y345132D01*
D02*
G37*
G36*
X407500Y341950D02*
X405025Y339475D01*
X405044Y339457D01*
X405956Y338930D01*
X406973Y338657D01*
X408027D01*
X409044Y338930D01*
X409956Y339457D01*
X409975Y339475D01*
X407500Y341950D01*
D02*
G37*
G36*
X560430Y384723D02*
X550707Y375000D01*
X560430Y365277D01*
X560869Y365717D01*
X562188Y367531D01*
X563206Y369530D01*
X563899Y371663D01*
X564250Y373879D01*
Y376121D01*
X563899Y378337D01*
X563206Y380470D01*
X562188Y382469D01*
X560869Y384283D01*
X560430Y384723D01*
D02*
G37*
G36*
X539570D02*
X539131Y384283D01*
X537812Y382469D01*
X536794Y380470D01*
X536101Y378337D01*
X535750Y376121D01*
Y373879D01*
X536101Y371663D01*
X536794Y369530D01*
X537812Y367531D01*
X539131Y365717D01*
X539570Y365277D01*
X549293Y375000D01*
X539570Y384723D01*
D02*
G37*
G36*
X479000Y375293D02*
X473707Y370000D01*
X479000Y364707D01*
Y375293D01*
D02*
G37*
G36*
X550000Y374293D02*
X540277Y364570D01*
X540717Y364131D01*
X542531Y362812D01*
X544530Y361794D01*
X546663Y361101D01*
X548878Y360750D01*
X551122D01*
X553337Y361101D01*
X555470Y361794D01*
X557469Y362812D01*
X559283Y364131D01*
X559723Y364570D01*
X550000Y374293D01*
D02*
G37*
G36*
X589425Y332397D02*
X588376Y332305D01*
X587386Y331945D01*
X586523Y331341D01*
X585846Y330534D01*
X585835Y330510D01*
X589007Y329031D01*
X590486Y332203D01*
X590462Y332214D01*
X589425Y332397D01*
D02*
G37*
G36*
X591393Y331780D02*
X589913Y328608D01*
X593085Y327129D01*
X593097Y327153D01*
X593280Y328190D01*
X593188Y329240D01*
X592828Y330229D01*
X592224Y331092D01*
X591417Y331769D01*
X591393Y331780D01*
D02*
G37*
G36*
X585412Y329604D02*
X585401Y329580D01*
X585218Y328542D01*
X585310Y327493D01*
X585670Y326503D01*
X586274Y325641D01*
X587081Y324964D01*
X587105Y324953D01*
X588585Y328125D01*
X585412Y329604D01*
D02*
G37*
G36*
X589491Y327702D02*
X588012Y324530D01*
X588036Y324519D01*
X589073Y324336D01*
X590122Y324428D01*
X591112Y324788D01*
X591975Y325392D01*
X592652Y326199D01*
X592663Y326223D01*
X589491Y327702D01*
D02*
G37*
G36*
X612694Y319109D02*
X602082Y315246D01*
X602082Y315246D01*
X597421Y314391D01*
X596154Y314266D01*
X594805Y313857D01*
X593562Y313192D01*
X592472Y312298D01*
X591578Y311209D01*
X590914Y309966D01*
X590505Y308617D01*
X590366Y307214D01*
X590505Y305811D01*
X590914Y304463D01*
X591578Y303219D01*
X592472Y302130D01*
X593562Y301236D01*
X594805Y300571D01*
X596154Y300162D01*
X597556Y300024D01*
X598959Y300162D01*
X600308Y300571D01*
X601551Y301236D01*
X602051Y301646D01*
X606187Y303970D01*
X606187Y303970D01*
X616798Y307833D01*
X609561Y311207D01*
X609773Y311660D01*
X609319Y311872D01*
X612694Y319109D01*
D02*
G37*
G36*
X613600Y318686D02*
X610437Y311902D01*
X617221Y308739D01*
X613600Y318686D01*
D02*
G37*
G36*
X524425Y292397D02*
X523376Y292305D01*
X522386Y291945D01*
X521523Y291341D01*
X520846Y290534D01*
X520835Y290510D01*
X524007Y289031D01*
X525486Y292203D01*
X525462Y292214D01*
X524425Y292397D01*
D02*
G37*
G36*
X613794Y296480D02*
X612593Y296322D01*
X611474Y295859D01*
X610513Y295121D01*
X609776Y294160D01*
X609312Y293041D01*
X609154Y291840D01*
X609312Y290640D01*
X609776Y289521D01*
X610513Y288560D01*
X611474Y287822D01*
X612593Y287359D01*
X613794Y287201D01*
X614995Y287359D01*
X616114Y287822D01*
X617075Y288560D01*
X617812Y289521D01*
X618275Y290640D01*
X618434Y291840D01*
X618275Y293041D01*
X617812Y294160D01*
X617075Y295121D01*
X616114Y295859D01*
X614995Y296322D01*
X613794Y296480D01*
D02*
G37*
G36*
X526393Y291780D02*
X524913Y288608D01*
X528086Y287129D01*
X528097Y287153D01*
X528280Y288190D01*
X528188Y289240D01*
X527828Y290229D01*
X527223Y291092D01*
X526417Y291769D01*
X526393Y291780D01*
D02*
G37*
G36*
X520412Y289604D02*
X520401Y289580D01*
X520218Y288542D01*
X520310Y287493D01*
X520670Y286504D01*
X521274Y285641D01*
X522081Y284964D01*
X522105Y284952D01*
X523585Y288125D01*
X520412Y289604D01*
D02*
G37*
G36*
X524491Y287702D02*
X523012Y284530D01*
X523036Y284519D01*
X524073Y284336D01*
X525122Y284427D01*
X526112Y284788D01*
X526975Y285392D01*
X527652Y286199D01*
X527663Y286223D01*
X524491Y287702D01*
D02*
G37*
G36*
X460572Y284347D02*
X459428D01*
X458322Y284050D01*
X457331Y283478D01*
X456522Y282669D01*
X455950Y281678D01*
X455653Y280572D01*
Y279428D01*
X455950Y278322D01*
X456522Y277331D01*
X457331Y276522D01*
X458322Y275950D01*
X459428Y275654D01*
X460572D01*
X461678Y275950D01*
X462669Y276522D01*
X463478Y277331D01*
X464050Y278322D01*
X464347Y279428D01*
Y280572D01*
X464050Y281678D01*
X463478Y282669D01*
X462669Y283478D01*
X461678Y284050D01*
X460572Y284347D01*
D02*
G37*
G36*
X547694Y279109D02*
X537082Y275246D01*
X537082Y275246D01*
X532421Y274391D01*
X531154Y274266D01*
X529805Y273857D01*
X528562Y273192D01*
X527472Y272298D01*
X526578Y271209D01*
X525914Y269966D01*
X525505Y268617D01*
X525366Y267214D01*
X525505Y265811D01*
X525914Y264462D01*
X526578Y263219D01*
X527472Y262130D01*
X528562Y261236D01*
X529805Y260571D01*
X531154Y260162D01*
X532556Y260024D01*
X533959Y260162D01*
X535308Y260571D01*
X536551Y261236D01*
X537051Y261646D01*
X541187Y263970D01*
X541187Y263970D01*
X551798Y267832D01*
X544561Y271207D01*
X544773Y271660D01*
X544319Y271872D01*
X547694Y279109D01*
D02*
G37*
G36*
X548600Y278686D02*
X545437Y271902D01*
X552221Y268739D01*
X548600Y278686D01*
D02*
G37*
G36*
X548794Y256480D02*
X547593Y256322D01*
X546474Y255858D01*
X545513Y255121D01*
X544776Y254160D01*
X544312Y253041D01*
X544154Y251840D01*
X544312Y250640D01*
X544776Y249521D01*
X545513Y248560D01*
X546474Y247822D01*
X547593Y247359D01*
X548794Y247201D01*
X549995Y247359D01*
X551114Y247822D01*
X552075Y248560D01*
X552812Y249521D01*
X553275Y250640D01*
X553434Y251840D01*
X553275Y253041D01*
X552812Y254160D01*
X552075Y255121D01*
X551114Y255858D01*
X549995Y256322D01*
X548794Y256480D01*
D02*
G37*
G36*
X390572Y236846D02*
X389428D01*
X388322Y236550D01*
X387331Y235978D01*
X386522Y235169D01*
X385950Y234178D01*
X385653Y233072D01*
Y231928D01*
X385950Y230822D01*
X386522Y229831D01*
X387331Y229022D01*
X388322Y228450D01*
X389428Y228153D01*
X390572D01*
X391678Y228450D01*
X392669Y229022D01*
X393478Y229831D01*
X394050Y230822D01*
X394346Y231928D01*
Y233072D01*
X394050Y234178D01*
X393478Y235169D01*
X392669Y235978D01*
X391678Y236550D01*
X390572Y236846D01*
D02*
G37*
G36*
X460430Y209723D02*
X450707Y200000D01*
X460430Y190277D01*
X460869Y190717D01*
X462188Y192531D01*
X463206Y194530D01*
X463899Y196663D01*
X464250Y198879D01*
Y201121D01*
X463899Y203337D01*
X463206Y205470D01*
X462188Y207469D01*
X460869Y209283D01*
X460430Y209723D01*
D02*
G37*
G36*
X439570D02*
X439131Y209283D01*
X437812Y207469D01*
X436794Y205470D01*
X436101Y203337D01*
X435750Y201121D01*
Y198879D01*
X436101Y196663D01*
X436794Y194530D01*
X437812Y192531D01*
X439131Y190717D01*
X439570Y190277D01*
X449293Y200000D01*
X439570Y209723D01*
D02*
G37*
G36*
X450000Y199293D02*
X440277Y189570D01*
X440717Y189131D01*
X442531Y187812D01*
X444530Y186794D01*
X446663Y186101D01*
X448878Y185750D01*
X451122D01*
X453337Y186101D01*
X455470Y186794D01*
X457469Y187812D01*
X459283Y189131D01*
X459723Y189570D01*
X450000Y199293D01*
D02*
G37*
G36*
X393182Y182317D02*
X390707Y179843D01*
X393182Y177368D01*
X393201Y177386D01*
X393684Y178223D01*
X393727Y178299D01*
X393727Y178299D01*
X394000Y179316D01*
Y180369D01*
X393727Y181386D01*
X393201Y182299D01*
X393182Y182317D01*
D02*
G37*
G36*
X308182Y82318D02*
X305707Y79843D01*
X308182Y77368D01*
X308201Y77386D01*
X308727Y78299D01*
X309000Y79316D01*
Y80369D01*
X308727Y81387D01*
X308201Y82299D01*
X308182Y82318D01*
D02*
G37*
G36*
X379000Y80293D02*
X373707Y75000D01*
X379000Y69707D01*
Y80293D01*
D02*
G37*
G36*
X360000Y82190D02*
X358597Y82052D01*
X357248Y81643D01*
X356005Y80978D01*
X354916Y80084D01*
X354022Y78995D01*
X353357Y77751D01*
X352948Y76403D01*
X352810Y75000D01*
X352948Y73597D01*
X353357Y72249D01*
X354022Y71005D01*
X354916Y69916D01*
X356005Y69022D01*
X357248Y68357D01*
X358597Y67948D01*
X360000Y67810D01*
X361403Y67948D01*
X362320Y68226D01*
X367000Y69000D01*
X367000Y69000D01*
X378293D01*
X372646Y74647D01*
X373000Y75000D01*
X372646Y75353D01*
X378293Y81000D01*
X367000D01*
Y81000D01*
X362320Y81774D01*
X361403Y82052D01*
X360000Y82190D01*
D02*
G37*
G36*
X370000Y59640D02*
X368799Y59482D01*
X367680Y59018D01*
X366719Y58281D01*
X365982Y57320D01*
X365518Y56201D01*
X365360Y55000D01*
X365518Y53799D01*
X365982Y52680D01*
X366719Y51719D01*
X367680Y50982D01*
X368799Y50518D01*
X370000Y50360D01*
X371201Y50518D01*
X372320Y50982D01*
X373281Y51719D01*
X374018Y52680D01*
X374482Y53799D01*
X374640Y55000D01*
X374482Y56201D01*
X374018Y57320D01*
X373281Y58281D01*
X372320Y59018D01*
X371201Y59482D01*
X370000Y59640D01*
D02*
G37*
G36*
X600000Y224293D02*
X590277Y214570D01*
X590717Y214131D01*
X592531Y212812D01*
X594530Y211794D01*
X596663Y211101D01*
X598878Y210750D01*
X601122D01*
X603337Y211101D01*
X605470Y211794D01*
X607469Y212812D01*
X609283Y214131D01*
X609723Y214570D01*
X600000Y224293D01*
D02*
G37*
G36*
X641121Y74250D02*
X638878D01*
X636663Y73899D01*
X634530Y73206D01*
X632531Y72188D01*
X630717Y70869D01*
X630277Y70430D01*
X640000Y60707D01*
X649723Y70430D01*
X649283Y70869D01*
X647469Y72188D01*
X645470Y73206D01*
X643337Y73899D01*
X641121Y74250D01*
D02*
G37*
G36*
X476122D02*
X473878D01*
X471663Y73899D01*
X469530Y73206D01*
X467531Y72188D01*
X465717Y70869D01*
X465277Y70430D01*
X475000Y60707D01*
X484723Y70430D01*
X484283Y70869D01*
X482469Y72188D01*
X480470Y73206D01*
X478337Y73899D01*
X476122Y74250D01*
D02*
G37*
G36*
X485430Y69723D02*
X475707Y60000D01*
X485430Y50277D01*
X485869Y50717D01*
X487188Y52531D01*
X488206Y54530D01*
X488899Y56663D01*
X489250Y58878D01*
Y61121D01*
X488899Y63337D01*
X488206Y65470D01*
X487188Y67469D01*
X485869Y69283D01*
X485430Y69723D01*
D02*
G37*
G36*
X629570D02*
X629131Y69283D01*
X627812Y67469D01*
X626794Y65470D01*
X626101Y63337D01*
X625750Y61121D01*
Y58878D01*
X626101Y56663D01*
X626794Y54530D01*
X627812Y52531D01*
X629131Y50717D01*
X629570Y50277D01*
X639293Y60000D01*
X629570Y69723D01*
D02*
G37*
G36*
X464570D02*
X464131Y69283D01*
X462812Y67469D01*
X461794Y65470D01*
X461101Y63337D01*
X460750Y61121D01*
Y58878D01*
X461101Y56663D01*
X461794Y54530D01*
X462812Y52531D01*
X464131Y50717D01*
X464570Y50277D01*
X474293Y60000D01*
X464570Y69723D01*
D02*
G37*
G36*
X475000Y59293D02*
X465277Y49570D01*
X465717Y49131D01*
X467531Y47812D01*
X469530Y46794D01*
X471663Y46101D01*
X473878Y45750D01*
X476122D01*
X478337Y46101D01*
X480470Y46794D01*
X482469Y47812D01*
X484283Y49131D01*
X484723Y49570D01*
X475000Y59293D01*
D02*
G37*
G36*
X360369Y239000D02*
X359316D01*
X358299Y238727D01*
X357386Y238201D01*
X357368Y238182D01*
X359843Y235707D01*
X362317Y238182D01*
X362299Y238201D01*
X361386Y238727D01*
X360369Y239000D01*
D02*
G37*
G36*
X356661Y237475D02*
X356642Y237456D01*
X356115Y236544D01*
X355843Y235527D01*
Y234473D01*
X356115Y233456D01*
X356642Y232544D01*
X356661Y232525D01*
X359136Y235000D01*
X356661Y237475D01*
D02*
G37*
G36*
X363025D02*
X360550Y235000D01*
X363025Y232525D01*
X363043Y232544D01*
X363570Y233456D01*
X363843Y234473D01*
Y235527D01*
X363570Y236544D01*
X363043Y237456D01*
X363025Y237475D01*
D02*
G37*
G36*
X359843Y234293D02*
X357368Y231818D01*
X357386Y231799D01*
X358299Y231273D01*
X359316Y231000D01*
X360369D01*
X361386Y231273D01*
X362299Y231799D01*
X362317Y231818D01*
X359843Y234293D01*
D02*
G37*
G36*
X360435Y222059D02*
X359250D01*
X358106Y221752D01*
X357080Y221160D01*
X357014Y221095D01*
X359842Y218266D01*
X362671Y221095D01*
X362606Y221160D01*
X361579Y221752D01*
X360435Y222059D01*
D02*
G37*
G36*
X363378Y220388D02*
X360550Y217559D01*
X363378Y214731D01*
X363443Y214796D01*
X364036Y215822D01*
X364342Y216967D01*
Y218151D01*
X364036Y219296D01*
X363443Y220322D01*
X363378Y220388D01*
D02*
G37*
G36*
X356307D02*
X356242Y220322D01*
X355649Y219296D01*
X355343Y218151D01*
Y216967D01*
X355649Y215822D01*
X356242Y214796D01*
X356307Y214731D01*
X359135Y217559D01*
X356307Y220388D01*
D02*
G37*
G36*
X359842Y216852D02*
X357014Y214023D01*
X357080Y213958D01*
X358106Y213366D01*
X359250Y213059D01*
X360435D01*
X361579Y213366D01*
X362606Y213958D01*
X362671Y214023D01*
X359842Y216852D01*
D02*
G37*
G36*
X260430Y209723D02*
X250707Y200000D01*
X260430Y190277D01*
X260869Y190717D01*
X262188Y192531D01*
X263206Y194530D01*
X263899Y196663D01*
X264250Y198879D01*
Y201121D01*
X263899Y203337D01*
X263206Y205470D01*
X262188Y207469D01*
X260869Y209283D01*
X260430Y209723D01*
D02*
G37*
G36*
X250000Y199293D02*
X240277Y189570D01*
X240717Y189131D01*
X242531Y187812D01*
X244530Y186794D01*
X246663Y186101D01*
X248879Y185750D01*
X251121D01*
X253337Y186101D01*
X255470Y186794D01*
X257469Y187812D01*
X259283Y189131D01*
X259723Y189570D01*
X250000Y199293D01*
D02*
G37*
G36*
X61121Y74250D02*
X58878D01*
X56663Y73899D01*
X54530Y73206D01*
X52531Y72188D01*
X50717Y70869D01*
X50277Y70430D01*
X60000Y60707D01*
X69723Y70430D01*
X69283Y70869D01*
X67469Y72188D01*
X65470Y73206D01*
X63337Y73899D01*
X61121Y74250D01*
D02*
G37*
%LPD*%
D10*
X40546Y49454D02*
G03*
X40000Y48137I1318J-1318D01*
G01*
X221843Y359843D02*
X222000Y360000D01*
X208000Y359843D02*
X221843D01*
X309843Y65000D02*
X322000D01*
X305000Y60157D02*
X309843Y65000D01*
X300000Y90000D02*
X305000Y95000D01*
X300000Y65157D02*
Y90000D01*
Y65157D02*
X305000Y60157D01*
X494225Y293160D02*
X505751Y281634D01*
X491206Y293160D02*
X494225D01*
X500268Y276151D02*
X505751Y281634D01*
X500268Y244820D02*
Y276151D01*
X652000Y50000D02*
X658908D01*
X622000Y20000D02*
X652000Y50000D01*
X531299Y20000D02*
X622000D01*
X582434Y240049D02*
X611348D01*
X576385Y234000D02*
X582434Y240049D01*
X611348D02*
X680000Y308701D01*
X602701Y244000D02*
X680000Y321299D01*
X576500Y244000D02*
X602701D01*
X576277Y234000D02*
X576385D01*
X382823Y40546D02*
X576277Y234000D01*
X323155Y40546D02*
X382823D01*
X557500Y225000D02*
X576500Y244000D01*
X231000Y75283D02*
X266000Y40283D01*
Y40546D01*
X323155D01*
X232451Y44951D02*
X246750Y59250D01*
X231000Y75283D02*
Y175000D01*
X53859Y44951D02*
X232451D01*
X49454Y40546D02*
X53859Y44951D01*
X219951Y209951D02*
X320000Y310000D01*
X65049Y209951D02*
X219951D01*
X35000Y240000D02*
X65049Y209951D01*
X40000Y35000D02*
Y48137D01*
X15000Y75000D02*
X40546Y49454D01*
X318000Y290000D02*
X320000D01*
X230500Y202500D02*
X318000Y290000D01*
X52500Y202500D02*
X230500D01*
X226000Y206000D02*
X320000Y300000D01*
X165000Y206000D02*
X226000D01*
X340000Y340000D02*
X380000Y380000D01*
X340000Y295000D02*
Y340000D01*
X593134Y347500D02*
X593794Y346840D01*
X555000Y347500D02*
X593134D01*
X528794Y321294D02*
X555000Y347500D01*
X528794Y306840D02*
Y321294D01*
X463160Y306840D02*
X528794D01*
X460000Y310000D02*
X463160Y306840D01*
X460000Y310000D02*
Y355000D01*
X435000Y380000D02*
X460000Y355000D01*
X380000Y380000D02*
X435000D01*
X419657Y362343D02*
X422000Y360000D01*
X407500Y362343D02*
X419657D01*
X420000Y358000D02*
X422000Y360000D01*
X420000Y310000D02*
Y358000D01*
X390000Y310000D02*
X420000D01*
X380000Y320000D02*
X390000Y310000D01*
X550089Y300000D02*
X565268Y284820D01*
X549117Y300000D02*
X550089D01*
X556206Y333160D02*
X559225D01*
X570751Y321634D01*
X549117Y300000D02*
X570751Y321634D01*
X390000Y300000D02*
X549117D01*
X380000Y310000D02*
X390000Y300000D01*
X386840Y293160D02*
X491206D01*
X380000Y300000D02*
X386840Y293160D01*
X390000Y280000D02*
X420000D01*
X380000Y290000D02*
X390000Y280000D01*
X380000Y260000D02*
X420000Y220000D01*
X462500D01*
X492500Y190000D01*
Y157500D02*
Y190000D01*
X518701Y20000D02*
Y91299D01*
X492500Y117500D02*
X518701Y91299D01*
X106206Y332911D02*
Y346840D01*
Y332911D02*
X110751Y328366D01*
X82109Y303974D02*
X106502Y328366D01*
X110751D01*
X124117Y315000D01*
X285000D02*
X320000Y350000D01*
X124117Y315000D02*
X285000D01*
X171206Y306840D02*
X171502Y306545D01*
Y288366D02*
Y306545D01*
Y288366D02*
X175751D01*
X147109Y263973D02*
X171502Y288366D01*
X171206Y306840D02*
X176866Y312500D01*
X302500D01*
X320000Y330000D01*
X270000Y305000D02*
X305000D01*
X320000Y320000D01*
X15000Y240000D02*
X52500Y202500D01*
X26299Y176299D02*
X52500Y202500D01*
X20000Y176299D02*
X26299D01*
X20627Y163074D02*
X52527Y194973D01*
X52500Y195000D02*
X137500D01*
X52500D02*
X52527Y194973D01*
X299854Y259854D02*
X320000Y280000D01*
X299854Y100146D02*
X305000Y95000D01*
X299854Y100146D02*
Y259854D01*
X372500Y332500D02*
X380000Y340000D01*
X372500Y210000D02*
Y332500D01*
Y210000D02*
X390000Y192500D01*
X385000Y187500D02*
X390000Y192500D01*
X385000Y165157D02*
Y187500D01*
Y165157D02*
X390000Y160157D01*
X360158D02*
X390000D01*
X359842Y160472D02*
X360158Y160157D01*
X319685Y160472D02*
X340158D01*
X315000Y165157D02*
X319685Y160472D01*
X310000Y195000D02*
X315000Y190000D01*
Y165157D02*
Y190000D01*
X310000Y160157D02*
X315000Y165157D01*
X305000Y200000D02*
X310000Y195000D01*
X305000Y200000D02*
Y232577D01*
X304854Y232723D02*
X305000Y232577D01*
X304854Y232723D02*
Y254854D01*
X320000Y270000D01*
X340000Y255000D02*
X340157Y254843D01*
Y235000D02*
Y254843D01*
Y217559D02*
X340158Y217559D01*
X340157Y217559D02*
Y235000D01*
X335000Y260000D02*
X340000Y255000D01*
X320000Y260000D02*
X335000D01*
X380000Y270000D02*
X425000Y225000D01*
X557500D01*
X680000Y321299D02*
X687500Y313799D01*
Y183799D02*
Y313799D01*
X680000Y176299D02*
X687500Y183799D01*
X680000Y176299D02*
X687500Y168799D01*
Y77500D02*
Y168799D01*
X659454Y49454D02*
X687500Y77500D01*
X658908Y50000D02*
X659454Y49454D01*
X20000Y163701D02*
X20627Y163074D01*
X15000Y75000D02*
Y171299D01*
X20000Y176299D01*
X215000Y40000D02*
X225000Y30000D01*
X242500Y12500D02*
X348799D01*
X225000Y30000D02*
X242500Y12500D01*
X348799D02*
X356299Y20000D01*
X150000Y35000D02*
X165000Y20000D01*
X168701D01*
X323155Y40546D02*
X343701Y20000D01*
X555000Y197500D02*
X588799Y163701D01*
X680000D01*
X630000Y20000D02*
X650546Y40546D01*
X20000Y295000D02*
X35000Y280000D01*
X20000Y295000D02*
Y308701D01*
X15000Y316299D02*
X20000Y321299D01*
X15000Y240000D02*
Y316299D01*
X171695Y10396D02*
X181299Y20000D01*
X85000Y10396D02*
X171695D01*
X40000Y35000D02*
X85000Y10396D01*
D26*
X181299Y20000D02*
D03*
X343701D02*
D03*
X356299D02*
D03*
X518701D02*
D03*
X531299D02*
D03*
X168701D02*
D03*
D29*
X89556Y291840D02*
G03*
X89556Y291840I-3350J0D01*
G01*
X112850Y285000D02*
G03*
X112850Y285000I-7850J0D01*
G01*
X127143Y300374D02*
G03*
X127143Y300374I-5906J0D01*
G01*
X100230Y299527D02*
G03*
X100230Y299527I-5906J0D01*
G01*
X127144Y278160D02*
G03*
X127144Y278160I-3350J0D01*
G01*
X473350Y350000D02*
G03*
X473350Y350000I-3350J0D01*
G01*
X440906Y360000D02*
G03*
X440906Y360000I-5906J0D01*
G01*
X465906Y370000D02*
G03*
X465906Y370000I-5906J0D01*
G01*
X457850Y350000D02*
G03*
X457850Y350000I-7850J0D01*
G01*
X433350D02*
G03*
X433350Y350000I-3350J0D01*
G01*
X273350D02*
G03*
X273350Y350000I-3350J0D01*
G01*
X240905Y360000D02*
G03*
X240905Y360000I-5906J0D01*
G01*
X265905Y370000D02*
G03*
X265905Y370000I-5906J0D01*
G01*
X257850Y350000D02*
G03*
X257850Y350000I-7850J0D01*
G01*
X233350D02*
G03*
X233350Y350000I-3350J0D01*
G01*
X373350Y55000D02*
G03*
X373350Y55000I-3350J0D01*
G01*
X340905Y65000D02*
G03*
X340905Y65000I-5906J0D01*
G01*
X365905Y75000D02*
G03*
X365905Y75000I-5906J0D01*
G01*
X357850Y55000D02*
G03*
X357850Y55000I-7850J0D01*
G01*
X333350D02*
G03*
X333350Y55000I-3350J0D01*
G01*
X579556Y278160D02*
G03*
X579556Y278160I-3350J0D01*
G01*
X602850Y285000D02*
G03*
X602850Y285000I-7850J0D01*
G01*
X603462Y307214D02*
G03*
X603462Y307214I-5906J0D01*
G01*
X583390Y289267D02*
G03*
X583390Y289267I-5906J0D01*
G01*
X617144Y291840D02*
G03*
X617144Y291840I-3350J0D01*
G01*
X514556Y238160D02*
G03*
X514556Y238160I-3350J0D01*
G01*
X537850Y245000D02*
G03*
X537850Y245000I-7850J0D01*
G01*
X538462Y267214D02*
G03*
X538462Y267214I-5906J0D01*
G01*
X518390Y249267D02*
G03*
X518390Y249267I-5906J0D01*
G01*
X552144Y251840D02*
G03*
X552144Y251840I-3350J0D01*
G01*
X192144Y238160D02*
G03*
X192144Y238160I-3350J0D01*
G01*
X165230Y259527D02*
G03*
X165230Y259527I-5906J0D01*
G01*
X192143Y260374D02*
G03*
X192143Y260374I-5906J0D01*
G01*
X177850Y245000D02*
G03*
X177850Y245000I-7850J0D01*
G01*
X154556Y251840D02*
G03*
X154556Y251840I-3350J0D01*
G01*
D30*
X320000Y290000D02*
D03*
X380000Y340000D02*
D03*
X320000Y310000D02*
D03*
Y300000D02*
D03*
Y280000D02*
D03*
Y390000D02*
D03*
Y380000D02*
D03*
Y370000D02*
D03*
Y360000D02*
D03*
Y350000D02*
D03*
Y340000D02*
D03*
Y330000D02*
D03*
Y320000D02*
D03*
Y270000D02*
D03*
Y260000D02*
D03*
X380000Y390000D02*
D03*
Y380000D02*
D03*
Y370000D02*
D03*
Y360000D02*
D03*
Y350000D02*
D03*
Y330000D02*
D03*
Y320000D02*
D03*
Y310000D02*
D03*
Y300000D02*
D03*
Y290000D02*
D03*
Y280000D02*
D03*
Y270000D02*
D03*
Y260000D02*
D03*
D31*
X35000Y280000D02*
D03*
X230000Y305000D02*
D03*
X270000D02*
D03*
X35000Y240000D02*
D03*
X460000Y280000D02*
D03*
X556206Y333160D02*
D03*
X492500Y157500D02*
D03*
Y117500D02*
D03*
X420000Y280000D02*
D03*
Y310000D02*
D03*
X460000D02*
D03*
X593794Y346840D02*
D03*
X528794Y306840D02*
D03*
X491206Y293160D02*
D03*
X305000Y95000D02*
D03*
Y135000D02*
D03*
X390000Y192500D02*
D03*
Y232500D02*
D03*
X310000Y195000D02*
D03*
Y235000D02*
D03*
X340000Y255000D02*
D03*
Y295000D02*
D03*
X192500Y370000D02*
D03*
Y330000D02*
D03*
X171206Y306840D02*
D03*
X208794Y293160D02*
D03*
X106206Y346840D02*
D03*
X143794Y333160D02*
D03*
D32*
X123794Y278160D02*
D03*
X188794Y238160D02*
D03*
D33*
X94325Y299527D02*
D03*
X105000Y285000D02*
D03*
X86206Y291840D02*
D03*
X121237Y300374D02*
D03*
X208000Y359843D02*
D03*
Y340157D02*
D03*
X570751Y321634D02*
D03*
X589249Y328366D02*
D03*
X505751Y281634D02*
D03*
X524249Y288366D02*
D03*
X407500Y342657D02*
D03*
Y362343D02*
D03*
X305000Y79843D02*
D03*
Y60157D02*
D03*
X390000Y160157D02*
D03*
Y179843D02*
D03*
X310000Y160157D02*
D03*
Y179843D02*
D03*
X359843Y235000D02*
D03*
X340157D02*
D03*
X194249Y281634D02*
D03*
X175751Y288366D02*
D03*
X129249Y321634D02*
D03*
X110751Y328366D02*
D03*
X430000Y350000D02*
D03*
X450000D02*
D03*
X435000Y360000D02*
D03*
X460000Y370000D02*
D03*
X230000Y350000D02*
D03*
X250000D02*
D03*
X235000Y360000D02*
D03*
X260000Y370000D02*
D03*
X330000Y55000D02*
D03*
X350000D02*
D03*
X335000Y65000D02*
D03*
X360000Y75000D02*
D03*
X597556Y307214D02*
D03*
X577485Y289267D02*
D03*
X595000Y285000D02*
D03*
X576206Y278160D02*
D03*
X532556Y267214D02*
D03*
X512485Y249267D02*
D03*
X530000Y245000D02*
D03*
X511206Y238160D02*
D03*
X151206Y251840D02*
D03*
X170000Y245000D02*
D03*
X159325Y259527D02*
D03*
X186237Y260374D02*
D03*
D34*
X359842Y160472D02*
D03*
X350000D02*
D03*
X340158D02*
D03*
X359842Y217559D02*
D03*
X340158D02*
D03*
D35*
X374000Y190000D02*
D03*
X326500D02*
D03*
D36*
X475000Y60000D02*
D03*
X600000Y225000D02*
D03*
X640000Y60000D02*
D03*
X60000D02*
D03*
X225000D02*
D03*
X100000Y225000D02*
D03*
X125000Y375000D02*
D03*
X250000Y200000D02*
D03*
X450000D02*
D03*
X550000Y375000D02*
D03*
D37*
X470000Y350000D02*
D03*
X270000D02*
D03*
X370000Y55000D02*
D03*
D38*
X613794Y291840D02*
D03*
X548794Y251840D02*
D03*
D39*
X576385Y234000D02*
D03*
X231000Y175000D02*
D03*
X165000Y206000D02*
D03*
X137500Y195000D02*
D03*
X225000Y30000D02*
D03*
X215000Y40000D02*
D03*
X150000Y35000D02*
D03*
X555000Y197500D02*
D03*
X630000Y20000D02*
D03*
D40*
X40546Y49454D02*
D03*
X49454Y40546D02*
D03*
D41*
X20000Y176299D02*
D03*
Y321299D02*
D03*
Y308701D02*
D03*
X680000Y176299D02*
D03*
Y163701D02*
D03*
Y308701D02*
D03*
Y321299D02*
D03*
X20000Y163701D02*
D03*
D42*
X650546Y40546D02*
D03*
X659454Y49454D02*
D03*
D43*
X133453Y295927D02*
D03*
X82109Y303974D02*
D03*
X147109Y263973D02*
D03*
X198453Y255927D02*
D03*
D44*
X565268Y284820D02*
D03*
X609773Y311660D02*
D03*
X544773Y271660D02*
D03*
X500268Y244820D02*
D03*
D45*
X422000Y360000D02*
D03*
X473000Y370000D02*
D03*
X222000Y360000D02*
D03*
X273000Y370000D02*
D03*
X322000Y65000D02*
D03*
X373000Y75000D02*
D03*
M02*
