0
SECTION
2
HEADER
9
$INSUNITS
70
1
9
$ACADVER
1
AC1014
9
$HANDSEED
5
FFFF
0
ENDSEC
0
SECTION
2
TABLES
0
TABLE
2
VPORT
5
8
100
AcDbSymbolTable
0
ENDTAB
0
TABLE
2
LTYPE
5
5
100
AcDbSymbolTable
0
LTYPE
5
14
100
AcDbSymbolTableRecord
100
AcDbLinetypeTableRecord
2
BYBLOCK
70
0
0
LTYPE
5
15
100
AcDbSymbolTableRecord
100
AcDbLinetypeTableRecord
2
BYLAYER
70
0
0
ENDTAB
0
TABLE
2
LAYER
5
2
100
AcDbSymbolTable
70
2
0
LAYER
5
50
100
AcDbSymbolTableRecord
100
AcDbLayerTableRecord
2
0
70
0
6
CONTINUOUS
0
ENDTAB
0
TABLE
2
STYLE
5
3
100
AcDbSymbolTable
70
1
0
STYLE
5
11
100
AcDbSymbolTableRecord
100
AcDbTextStyleTableRecord
2
STANDARD
70
0
0
ENDTAB
0
TABLE
2
VIEW
5
6
100
AcDbSymbolTable
70
0
0
ENDTAB
0
TABLE
2
UCS
5
7
100
AcDbSymbolTable
70
0
0
ENDTAB
0
TABLE
2
APPID
5
9
100
AcDbSymbolTable
70
2
0
APPID
5
12
100
AcDbSymbolTableRecord
100
AcDbRegAppTableRecord
2
ACAD
70
0
0
ENDTAB
0
TABLE
2
DIMSTYLE
5
A
100
AcDbSymbolTable
70
1
0
ENDTAB
0
TABLE
2
BLOCK_RECORD
5
1
100
AcDbSymbolTable
70
1
0
BLOCK_RECORD
5
1F
100
AcDbSymbolTableRecord
100
AcDbBlockTableRecord
2
*MODEL_SPACE
0
BLOCK_RECORD
5
1B
100
AcDbSymbolTableRecord
100
AcDbBlockTableRecord
2
*PAPER_SPACE
0
ENDTAB
0
ENDSEC
0
SECTION
2
BLOCKS
0
BLOCK
5
20
100
AcDbEntity
100
AcDbBlockBegin
2
*MODEL_SPACE
0
ENDBLK
5
21
100
AcDbEntity
100
AcDbBlockEnd
0
BLOCK
5
1C
100
AcDbEntity
100
AcDbBlockBegin
2
*PAPER_SPACE
0
ENDBLK
5
1D
100
AcDbEntity
100
AcDbBlockEnd
0
ENDSEC
0
SECTION
2
ENTITIES
0
LWPOLYLINE
5
100
100
AcDbEntity
8
0
100
AcDbPolyline
90
8
70
1
43
0.0
10
6.000000223400086
20
1.7483827159451283e-16
10
0.99999999999999989
20
0
42
-0.41421356237309542
10
0
20
0.99999999999999956
10
0
20
3.0000001276571919
42
-0.4142135623730952
10
0.99999999999999956
20
4.0000001276571915
10
6.000000223400086
20
4.0000001276571915
42
-0.41421356237309476
10
7.0000002234000851
20
3.0000001276571915
10
7.0000002234000851
20
1
42
-0.41421356237309481
0
LWPOLYLINE
5
101
100
AcDbEntity
8
0
100
AcDbPolyline
90
4
70
1
43
0.0
10
2.2240000797857449
20
3.2240001117000432
10
2.7760000797857445
20
3.2240001117000432
10
2.7760000797857445
20
3.7760001117000423
10
2.2240000797857449
20
3.7760001117000423
0
LWPOLYLINE
5
102
100
AcDbEntity
8
0
100
AcDbPolyline
90
4
70
1
43
0.0
10
4.2240001436143411
20
3.2240001117000432
10
4.7760001436143398
20
3.2240001117000432
10
4.7760001436143398
20
3.7760001117000423
10
4.2240001436143411
20
3.7760001117000423
0
LWPOLYLINE
5
103
100
AcDbEntity
8
0
100
AcDbPolyline
90
4
70
1
43
0.0
10
0.69624731061521705
20
2.685042487176724
10
1.2149576372890385
20
2.496247368060954
10
1.4037527564048076
20
3.0149576947347749
10
0.88504242973098612
20
3.2037528138505453
0
LWPOLYLINE
5
104
100
AcDbEntity
8
0
100
AcDbPolyline
90
4
70
1
43
0.0
10
1.3462473313595118
20
2.2850424744110045
10
1.8649576580333331
20
2.096247355295235
10
2.0537527771491026
20
2.6149576819690568
10
1.5350424504752811
20
2.8037528010848258
0
LWPOLYLINE
5
105
100
AcDbEntity
8
0
100
AcDbPolyline
90
4
70
1
43
0.0
10
5.135042565366752
20
2.0962473552952345
10
5.6537528920405737
20
2.2850424744110045
10
5.4649577729248042
20
2.8037528010848254
10
4.9462474462509824
20
2.6149576819690563
0
LWPOLYLINE
5
106
100
AcDbEntity
8
0
100
AcDbPolyline
90
4
70
1
43
0.0
10
5.7850423243140714
20
2.4962472426624016
10
6.3037526509878905
20
2.6850423617781733
10
6.1149575318721237
20
3.2037526884519938
10
5.5962472051983019
20
3.0149575693362229
0
LWPOLYLINE
5
107
100
AcDbEntity
8
0
100
AcDbPolyline
90
36
70
1
43
0.0
10
3.2239999577018219
20
0.82599999335314334
10
3.7759999577018211
20
0.82599999335314334
10
3.7759999577018211
20
0.69599999335314389
10
5.3360038947096893
20
0.69599999335314455
10
5.3360038947096955
20
0.79199999335314364
10
5.601003894709697
20
0.79199999335314331
10
5.601003894709697
20
0.63999999335314139
10
5.6350038947096959
20
0.63999999335314139
10
5.6350038947096959
20
0.5299999933531413
10
5.601003894709697
20
0.5299999933531413
10
5.601003894709697
20
0.30799999335314343
10
5.5300038947096937
20
0.3079999933531431
10
5.5300038947096954
20
0.261999993353144
10
5.4070038947096952
20
0.261999993353144
10
5.4070038947096934
20
0.30799999335314387
10
5.3360038947096893
20
0.30799999335314437
10
5.3360038947096893
20
0.40099999335313607
10
3.7759999577018211
20
0.40099999335313613
10
3.7759999577018211
20
0.27399999335314346
10
3.2239999577018219
20
0.27399999335314346
10
3.2239999577018219
20
0.40099999335313641
10
1.663996020693947
20
0.40099999335313713
10
1.663996020693947
20
0.30799999335314432
10
1.5929960206939495
20
0.30799999335314387
10
1.5929960206939477
20
0.26199999335314378
10
1.469996020693948
20
0.26199999335314378
10
1.4699960206939493
20
0.3079999933531431
10
1.3989960206939469
20
0.30799999335314343
10
1.3989960206939469
20
0.5299999933531413
10
1.3649960206939471
20
0.5299999933531413
10
1.3649960206939471
20
0.63999999335314139
10
1.3989960206939471
20
0.63999999335314139
10
1.3989960206939471
20
0.79199999335314331
10
1.663996020693947
20
0.79199999335314364
10
1.663996020693947
20
0.69599999335314311
10
3.2239999577018219
20
0.69599999335314378
0
LINE
5
108
100
AcDbEntity
8
0
100
AcDbLine
10
3.4999999577018217
20
0.27399999335314346
30
0
11
3.4999999577018217
21
0.82599999335314334
31
0
0
LINE
5
109
100
AcDbEntity
8
0
100
AcDbLine
10
3.7599999577018215
20
2.1805000606371636
30
0
11
3.2399999577018219
21
2.1805000606371636
31
0
0
LINE
5
110
100
AcDbEntity
8
0
100
AcDbLine
10
3.2399999577018219
20
2.1805000606371636
30
0
11
3.2399999577018219
21
1.620500060637164
31
0
0
LINE
5
111
100
AcDbEntity
8
0
100
AcDbLine
10
3.2399999577018219
20
1.620500060637164
30
0
11
3.7599999577018219
21
1.6205000606371636
31
0
0
LINE
5
112
100
AcDbEntity
8
0
100
AcDbLine
10
3.7599999577018219
20
1.6205000606371636
30
0
11
3.7599999577018215
21
2.1805000606371636
31
0
0
LINE
5
113
100
AcDbEntity
8
0
100
AcDbLine
10
3.7599999577018215
20
2.1805000606371636
30
0
11
3.2399999577018219
21
1.620500060637164
31
0
0
LINE
5
114
100
AcDbEntity
8
0
100
AcDbLine
10
3.2399999577018219
20
2.1805000606371636
30
0
11
3.7599999577018219
21
1.6205000606371636
31
0
0
LINE
5
115
100
AcDbEntity
8
0
100
AcDbLine
10
1.5314960206939479
20
0.54999999335314342
30
0
11
1.5314960206939472
21
0.79199999335314331
31
0
0
LINE
5
116
100
AcDbEntity
8
0
100
AcDbLine
10
1.5314960206939479
20
0.54999999335314342
30
0
11
1.5314960206939479
21
0.26199999335314378
31
0
0
ENDSEC
0
SECTION
2
OBJECTS
0
DICTIONARY
5
C
100
AcDbDictionary
3
ACAD_GROUP
350
D
3
ACAD_MLINESTYLE
350
17
0
DICTIONARY
5
D
100
AcDbDictionary
0
DICTIONARY
5
1A
330
C
100
AcDbDictionary
0
DICTIONARY
5
17
100
AcDbDictionary
0
ENDSEC
0
EOF
