0
SECTION
2
HEADER
9
$INSUNITS
70
1
9
$ACADVER
1
AC1014
9
$HANDSEED
5
FFFF
0
ENDSEC
0
SECTION
2
TABLES
0
TABLE
2
VPORT
5
8
100
AcDbSymbolTable
0
ENDTAB
0
TABLE
2
LTYPE
5
5
100
AcDbSymbolTable
0
LTYPE
5
14
100
AcDbSymbolTableRecord
100
AcDbLinetypeTableRecord
2
BYBLOCK
70
0
0
LTYPE
5
15
100
AcDbSymbolTableRecord
100
AcDbLinetypeTableRecord
2
BYLAYER
70
0
0
ENDTAB
0
TABLE
2
LAYER
5
2
100
AcDbSymbolTable
70
2
0
LAYER
5
50
100
AcDbSymbolTableRecord
100
AcDbLayerTableRecord
2
0
70
0
6
CONTINUOUS
0
ENDTAB
0
TABLE
2
STYLE
5
3
100
AcDbSymbolTable
70
1
0
STYLE
5
11
100
AcDbSymbolTableRecord
100
AcDbTextStyleTableRecord
2
STANDARD
70
0
0
ENDTAB
0
TABLE
2
VIEW
5
6
100
AcDbSymbolTable
70
0
0
ENDTAB
0
TABLE
2
UCS
5
7
100
AcDbSymbolTable
70
0
0
ENDTAB
0
TABLE
2
APPID
5
9
100
AcDbSymbolTable
70
2
0
APPID
5
12
100
AcDbSymbolTableRecord
100
AcDbRegAppTableRecord
2
ACAD
70
0
0
ENDTAB
0
TABLE
2
DIMSTYLE
5
A
100
AcDbSymbolTable
70
1
0
ENDTAB
0
TABLE
2
BLOCK_RECORD
5
1
100
AcDbSymbolTable
70
1
0
BLOCK_RECORD
5
1F
100
AcDbSymbolTableRecord
100
AcDbBlockTableRecord
2
*MODEL_SPACE
0
BLOCK_RECORD
5
1B
100
AcDbSymbolTableRecord
100
AcDbBlockTableRecord
2
*PAPER_SPACE
0
ENDTAB
0
ENDSEC
0
SECTION
2
BLOCKS
0
BLOCK
5
20
100
AcDbEntity
100
AcDbBlockBegin
2
*MODEL_SPACE
0
ENDBLK
5
21
100
AcDbEntity
100
AcDbBlockEnd
0
BLOCK
5
1C
100
AcDbEntity
100
AcDbBlockBegin
2
*PAPER_SPACE
0
ENDBLK
5
1D
100
AcDbEntity
100
AcDbBlockEnd
0
ENDSEC
0
SECTION
2
ENTITIES
0
LWPOLYLINE
5
100
100
AcDbEntity
8
0
100
AcDbPolyline
90
36
70
1
43
0.0
10
-5.3377501117000437
20
-0.465928666813545
10
-5.3377501117000392
20
-0.28999999999995635
10
-5.4087501117000372
20
-0.28999999999995457
10
-5.4087501117000363
20
-0.243999999999955
10
-5.5287501117000364
20
-0.24399999999995151
10
-5.5287501117000364
20
-0.2899999999999518
10
-5.5997501117000388
20
-0.28999999999995002
10
-5.5997501117000441
20
-0.52999999999994984
10
-5.6337501117000439
20
-0.5299999999999494
10
-5.6337501117000457
20
-0.63999999999994905
10
-5.5997501117000459
20
-0.63999999999994972
10
-5.5997501117000494
20
-0.77399999999994951
10
-5.337750111700049
20
-0.77399999999995617
10
-5.3377501117000463
20
-0.63407133318637821
10
-3.7750001117000451
20
-0.63407133318640441
10
-3.7750001117000465
20
-0.8249999999999994
10
-3.2250001117000466
20
-0.8250000000000004
10
-3.2250001117000431
20
-0.63407133318641107
10
-1.6622501117000421
20
-0.63407133318642261
10
-1.6622501117000428
20
-0.77400000000000024
10
-1.4002501117000425
20
-0.77400000000000024
10
-1.4002501117000425
20
-0.64000000000000046
10
-1.366250111700043
20
-0.64000000000000046
10
-1.366250111700043
20
-0.53000000000000047
10
-1.4002501117000419
20
-0.53000000000000047
10
-1.4002501117000412
20
-0.29000000000000037
10
-1.4712501117000429
20
-0.29000000000000037
10
-1.4712501117000429
20
-0.24400000000000044
10
-1.591250111700043
20
-0.24400000000000044
10
-1.591250111700043
20
-0.29000000000000037
10
-1.6622501117000414
20
-0.29000000000000037
10
-1.6622501117000414
20
-0.46592866681358941
10
-3.2250001117000395
20
-0.46592866681357786
10
-3.2250001117000369
20
-0.27500000000000036
10
-3.7750001117000438
20
-0.27499999999999863
10
-3.7750001117000451
20
-0.46592866681357159
0
LWPOLYLINE
5
101
100
AcDbEntity
8
0
100
AcDbPolyline
90
4
70
1
43
0.0
10
-3.7599999577018219
20
-1.6205000606371636
10
-3.7599999577018215
20
-2.1805000606371636
10
-3.2399999577018219
20
-2.1805000606371636
10
-3.2399999577018219
20
-1.620500060637164
0
LWPOLYLINE
5
102
100
AcDbEntity
8
0
100
AcDbPolyline
90
4
70
1
43
0.0
10
-6.1149575318721237
20
-3.2037526884519938
10
-5.5962472051983019
20
-3.0149575693362229
10
-5.7850423243140714
20
-2.4962472426624016
10
-6.3037526509878905
20
-2.6850423617781733
0
LWPOLYLINE
5
103
100
AcDbEntity
8
0
100
AcDbPolyline
90
4
70
1
43
0.0
10
-5.4649577729248042
20
-2.8037528010848254
10
-4.9462474462509824
20
-2.6149576819690563
10
-5.135042565366752
20
-2.0962473552952345
10
-5.6537528920405737
20
-2.2850424744110045
0
LWPOLYLINE
5
104
100
AcDbEntity
8
0
100
AcDbPolyline
90
4
70
1
43
0.0
10
-2.0537527771491026
20
-2.6149576819690568
10
-1.5350424504752809
20
-2.8037528010848258
10
-1.3462473313595118
20
-2.2850424744110045
10
-1.8649576580333334
20
-2.096247355295235
0
LWPOLYLINE
5
105
100
AcDbEntity
8
0
100
AcDbPolyline
90
4
70
1
43
0.0
10
-4.7760001436143398
20
-3.7760001117000423
10
-4.2240001436143411
20
-3.7760001117000423
10
-4.2240001436143411
20
-3.2240001117000432
10
-4.7760001436143398
20
-3.2240001117000432
0
LWPOLYLINE
5
106
100
AcDbEntity
8
0
100
AcDbPolyline
90
4
70
1
43
0.0
10
-1.4037527564048076
20
-3.0149576947347749
10
-0.88504242973098579
20
-3.2037528138505453
10
-0.69624731061521739
20
-2.685042487176724
10
-1.2149576372890385
20
-2.496247368060954
0
LWPOLYLINE
5
107
100
AcDbEntity
8
0
100
AcDbPolyline
90
4
70
1
43
0.0
10
-2.7760000797857445
20
-3.7760001117000423
10
-2.2240000797857449
20
-3.7760001117000423
10
-2.2240000797857449
20
-3.2240001117000432
10
-2.7760000797857445
20
-3.2240001117000432
0
LWPOLYLINE
5
108
100
AcDbEntity
8
0
100
AcDbPolyline
90
8
70
1
43
0.0
10
0
20
-0.99999999999999956
10
0
20
-3.0000001276571919
42
-0.4142135623730952
10
-0.99999999999999956
20
-4.0000001276571915
10
-6.0000002234000842
20
-4.0000001276571915
42
-0.41421356237309498
10
-7.0000002234000851
20
-3.0000001276571915
10
-7.0000002234000851
20
-1
42
-0.41421356237309481
10
-6.000000223400086
20
-1.7483827159451283e-16
10
-1
20
0
42
-0.41421356237309548
0
ENDSEC
0
SECTION
2
OBJECTS
0
DICTIONARY
5
C
100
AcDbDictionary
3
ACAD_GROUP
350
D
3
ACAD_MLINESTYLE
350
17
0
DICTIONARY
5
D
100
AcDbDictionary
0
DICTIONARY
5
1A
330
C
100
AcDbDictionary
0
DICTIONARY
5
17
100
AcDbDictionary
0
ENDSEC
0
EOF
