0
SECTION
2
HEADER
9
$INSUNITS
70
1
9
$ACADVER
1
AC1014
9
$HANDSEED
5
FFFF
0
ENDSEC
0
SECTION
2
TABLES
0
TABLE
2
VPORT
5
8
100
AcDbSymbolTable
0
ENDTAB
0
TABLE
2
LTYPE
5
5
100
AcDbSymbolTable
0
LTYPE
5
14
100
AcDbSymbolTableRecord
100
AcDbLinetypeTableRecord
2
BYBLOCK
70
0
0
LTYPE
5
15
100
AcDbSymbolTableRecord
100
AcDbLinetypeTableRecord
2
BYLAYER
70
0
0
ENDTAB
0
TABLE
2
LAYER
5
2
100
AcDbSymbolTable
70
2
0
LAYER
5
50
100
AcDbSymbolTableRecord
100
AcDbLayerTableRecord
2
0
70
0
6
CONTINUOUS
0
ENDTAB
0
TABLE
2
STYLE
5
3
100
AcDbSymbolTable
70
1
0
STYLE
5
11
100
AcDbSymbolTableRecord
100
AcDbTextStyleTableRecord
2
STANDARD
70
0
0
ENDTAB
0
TABLE
2
VIEW
5
6
100
AcDbSymbolTable
70
0
0
ENDTAB
0
TABLE
2
UCS
5
7
100
AcDbSymbolTable
70
0
0
ENDTAB
0
TABLE
2
APPID
5
9
100
AcDbSymbolTable
70
2
0
APPID
5
12
100
AcDbSymbolTableRecord
100
AcDbRegAppTableRecord
2
ACAD
70
0
0
ENDTAB
0
TABLE
2
DIMSTYLE
5
A
100
AcDbSymbolTable
70
1
0
ENDTAB
0
TABLE
2
BLOCK_RECORD
5
1
100
AcDbSymbolTable
70
1
0
BLOCK_RECORD
5
1F
100
AcDbSymbolTableRecord
100
AcDbBlockTableRecord
2
*MODEL_SPACE
0
BLOCK_RECORD
5
1B
100
AcDbSymbolTableRecord
100
AcDbBlockTableRecord
2
*PAPER_SPACE
0
ENDTAB
0
ENDSEC
0
SECTION
2
BLOCKS
0
BLOCK
5
20
100
AcDbEntity
100
AcDbBlockBegin
2
*MODEL_SPACE
0
ENDBLK
5
21
100
AcDbEntity
100
AcDbBlockEnd
0
BLOCK
5
1C
100
AcDbEntity
100
AcDbBlockBegin
2
*PAPER_SPACE
0
ENDBLK
5
1D
100
AcDbEntity
100
AcDbBlockEnd
0
ENDSEC
0
SECTION
2
ENTITIES
0
CIRCLE
5
100
100
AcDbEntity
8
0
100
AcDbCircle
10
0.6000000191485787
20
0.6000000191485787
30
0
40
0.080000000000000016
210
0
220
0
230
1
0
CIRCLE
5
101
100
AcDbEntity
8
0
100
AcDbCircle
10
2.5000000797857447
20
2.0000000638285957
30
0
40
0.080000000000000002
210
0
220
0
230
1
0
CIRCLE
5
102
100
AcDbEntity
8
0
100
AcDbCircle
10
4.5000001436143409
20
2.0000000638285957
30
0
40
0.080000000000000002
210
0
220
0
230
1
0
CIRCLE
5
103
100
AcDbEntity
8
0
100
AcDbCircle
10
6.4000002042515067
20
0.6000000191485787
30
0
40
0.080000000000000002
210
0
220
0
230
1
0
LWPOLYLINE
5
104
100
AcDbEntity
8
0
100
AcDbPolyline
90
8
70
1
43
0.0
10
6.000000223400086
20
1.7483827159451283e-16
10
0.99999999999999989
20
0
42
-0.41421356237309542
10
0
20
0.99999999999999956
10
0
20
3.0000001276571919
42
-0.4142135623730952
10
0.99999999999999956
20
4.0000001276571915
10
6.000000223400086
20
4.0000001276571915
42
-0.41421356237309476
10
7.0000002234000851
20
3.0000001276571915
10
7.0000002234000851
20
1
42
-0.41421356237309481
0
LWPOLYLINE
5
105
100
AcDbEntity
8
0
100
AcDbPolyline
90
4
70
1
43
0.0
10
2.2240000797857449
20
3.2240001117000432
10
2.7760000797857445
20
3.2240001117000432
10
2.7760000797857445
20
3.7760001117000423
10
2.2240000797857449
20
3.7760001117000423
0
LWPOLYLINE
5
106
100
AcDbEntity
8
0
100
AcDbPolyline
90
4
70
1
43
0.0
10
4.2240001436143411
20
3.2240001117000432
10
4.7760001436143398
20
3.2240001117000432
10
4.7760001436143398
20
3.7760001117000423
10
4.2240001436143411
20
3.7760001117000423
0
LWPOLYLINE
5
107
100
AcDbEntity
8
0
100
AcDbPolyline
90
4
70
1
43
0.0
10
0.69624731061521705
20
2.685042487176724
10
1.2149576372890385
20
2.496247368060954
10
1.4037527564048076
20
3.0149576947347749
10
0.88504242973098612
20
3.2037528138505453
0
LWPOLYLINE
5
108
100
AcDbEntity
8
0
100
AcDbPolyline
90
4
70
1
43
0.0
10
1.3462473313595118
20
2.2850424744110045
10
1.8649576580333331
20
2.096247355295235
10
2.0537527771491026
20
2.6149576819690568
10
1.5350424504752811
20
2.8037528010848258
0
LWPOLYLINE
5
109
100
AcDbEntity
8
0
100
AcDbPolyline
90
4
70
1
43
0.0
10
5.135042565366752
20
2.0962473552952345
10
5.6537528920405737
20
2.2850424744110045
10
5.4649577729248042
20
2.8037528010848254
10
4.9462474462509824
20
2.6149576819690563
0
LWPOLYLINE
5
110
100
AcDbEntity
8
0
100
AcDbPolyline
90
4
70
1
43
0.0
10
5.7850423243140714
20
2.4962472426624016
10
6.3037526509878905
20
2.6850423617781733
10
6.1149575318721237
20
3.2037526884519938
10
5.5962472051983019
20
3.0149575693362229
0
LINE
5
111
100
AcDbEntity
8
0
100
AcDbLine
10
2.0452683362596495
20
4.0000001276571915
30
0
11
3.0452683362596495
21
4.0000001276571915
31
0
0
LINE
5
112
100
AcDbEntity
8
0
100
AcDbLine
10
5.0000001595714894
20
4.0000001276571915
30
0
11
6.0000001595714902
21
4.0000001276571915
31
0
0
LWPOLYLINE
5
113
100
AcDbEntity
8
0
100
AcDbPolyline
90
36
70
1
43
0.0
10
3.2239999577018219
20
0.82599999335314334
10
3.7759999577018211
20
0.82599999335314334
10
3.7759999577018211
20
0.69599999335314389
10
5.3375038947096964
20
0.69599999335314455
10
5.3375038947097044
20
0.79199999335314386
10
5.5995038947097049
20
0.79199999335314364
10
5.5995038947097049
20
0.63999999335314151
10
5.6335038947097038
20
0.63999999335314151
10
5.6335038947097038
20
0.5299999933531413
10
5.5995038947097049
20
0.5299999933531413
10
5.5995038947097049
20
0.3079999933531436
10
5.5285038947097016
20
0.3079999933531436
10
5.5285038947097043
20
0.261999993353144
10
5.4085038947097042
20
0.261999993353144
10
5.4085038947097015
20
0.3079999933531441
10
5.3375038947097044
20
0.30799999335314454
10
5.3375038947097044
20
0.4009999933531358
10
3.7759999577018211
20
0.40099999335313613
10
3.7759999577018211
20
0.27399999335314346
10
3.2239999577018219
20
0.27399999335314346
10
3.2239999577018219
20
0.40099999335313641
10
1.6624960206939472
20
0.40099999335313685
10
1.6624960206939472
20
0.30799999335314432
10
1.5914960206939497
20
0.30799999335314387
10
1.5914960206939479
20
0.26199999335314378
10
1.4714960206939476
20
0.26199999335314378
10
1.4714960206939491
20
0.30799999335314338
10
1.400496020693947
20
0.30799999335314338
10
1.400496020693947
20
0.5299999933531413
10
1.3664960206939474
20
0.5299999933531413
10
1.3664960206939474
20
0.63999999335314128
10
1.400496020693947
20
0.63999999335314128
10
1.400496020693947
20
0.79199999335314319
10
1.6624960206939472
20
0.79199999335314353
10
1.6624960206939472
20
0.69599999335314311
10
3.2239999577018219
20
0.69599999335314378
0
LINE
5
114
100
AcDbEntity
8
0
100
AcDbLine
10
3.4999999577018217
20
0.27399999335314346
30
0
11
3.4999999577018217
21
0.82599999335314334
31
0
0
LINE
5
115
100
AcDbEntity
8
0
100
AcDbLine
10
3.7460001117000421
20
2.1645000606371658
30
0
11
3.254000111700043
21
2.1645000606371658
31
0
0
LINE
5
116
100
AcDbEntity
8
0
100
AcDbLine
10
3.254000111700043
20
2.1645000606371658
30
0
11
3.254000111700043
21
1.636500060637166
31
0
0
LINE
5
117
100
AcDbEntity
8
0
100
AcDbLine
10
3.254000111700043
20
1.636500060637166
30
0
11
3.746000111700043
21
1.636500060637166
31
0
0
LINE
5
118
100
AcDbEntity
8
0
100
AcDbLine
10
3.746000111700043
20
1.636500060637166
30
0
11
3.7460001117000421
21
2.1645000606371658
31
0
0
LINE
5
119
100
AcDbEntity
8
0
100
AcDbLine
10
3.7460001117000421
20
2.1645000606371658
30
0
11
3.254000111700043
21
1.636500060637166
31
0
0
LINE
5
120
100
AcDbEntity
8
0
100
AcDbLine
10
3.254000111700043
20
2.1645000606371658
30
0
11
3.746000111700043
21
1.636500060637166
31
0
0
ENDSEC
0
SECTION
2
OBJECTS
0
DICTIONARY
5
C
100
AcDbDictionary
3
ACAD_GROUP
350
D
3
ACAD_MLINESTYLE
350
17
0
DICTIONARY
5
D
100
AcDbDictionary
0
DICTIONARY
5
1A
330
C
100
AcDbDictionary
0
DICTIONARY
5
17
100
AcDbDictionary
0
ENDSEC
0
EOF
