M48
;Layer_Color=6321
;FILE_FORMAT=2:5
INCH,LZ
;TYPE=PLATED
T1F00S00C0.01500
T2F00S00C0.02953
T3F00S00C0.03000
T4F00S00C0.04000
T5F00S00C0.06693
T6F00S00C0.10236
T7F00S00C0.11811
T8F00S00C0.15748
T9F00S00C0.16000
%
T01
X015Y0035
X0215Y004
X0225Y003
X063Y002
X0555Y01975
X0231Y0175
X0165Y0206
X01375Y0195
X0576385Y0234
T02
X039Y01925
X04925Y01575
Y01175
X0305Y0135
Y0095
X031Y0195
X0035Y024
Y028
X0106206Y034684
X0143794Y033316
X01925Y033
X0171206Y030684
X0208794Y029316
X023Y0305
X027
X034Y0295
Y0255
X031Y0235
X039Y02325
X042Y028
Y031
X046
Y028
X0491206Y029316
X0528794Y030684
X0556206Y033316
X0593794Y034684
X01925Y037
T03
X039Y0160157
Y0179843
X031
Y0160157
X0305Y0079843
Y0060157
X0194249Y0281634
X0175751Y0288366
X0129249Y0321634
X0110751Y0328366
X0208Y0340157
Y0359843
X0340157Y0235
X0359843
X04075Y0342657
Y0362343
X0505751Y0281634
X0524249Y0288366
X0570751Y0321634
X0589249Y0328366
T04
X0340158Y0160472
X035
X0359842
Y0217559
X0340158
X032Y026
Y027
Y028
Y029
Y03
Y031
Y032
Y033
Y034
Y035
Y036
X038
Y035
Y034
Y033
Y032
Y031
Y03
Y029
Y028
Y027
Y026
Y037
Y038
Y039
X032
Y038
Y037
T05
X033Y0055
X037
X0188794Y023816
X0151206Y025184
X0123794Y027816
X0086206Y029184
X023Y035
X027
X043
X047
X0511206Y023816
X0548794Y025184
X0576206Y027816
X0613794Y029184
T06
X0374Y019
X03265
T07
X0335Y0065
X036Y0075
X0186237Y0260374
X0159325Y0259527
X0121237Y0300374
X0094325Y0299527
X0235Y036
X0435
X0512485Y0249267
X0532556Y0267214
X0577485Y0289267
X0597556Y0307214
X046Y037
X026
T08
X035Y0055
X017Y0245
X0105Y0285
X025Y035
X045
X053Y0245
X0595Y0285
T09
X064Y006
X0475
X045Y02
X025
X0225Y006
X006
X01Y0225
X06
X055Y0375
X0125
M30
